%TF.GenerationSoftware,KiCad,Pcbnew,9.0.7*%
%TF.CreationDate,2026-02-21T16:48:58+00:00*%
%TF.ProjectId,z-axis-addon,7a2d6178-6973-42d6-9164-646f6e2e6b69,A*%
%TF.SameCoordinates,Original*%
%TF.FileFunction,Drillmap*%
%TF.FilePolarity,Positive*%
%FSLAX45Y45*%
G04 Gerber Fmt 4.5, Leading zero omitted, Abs format (unit mm)*
G04 Created by KiCad (PCBNEW 9.0.7) date 2026-02-21 16:48:58*
%MOMM*%
%LPD*%
G01*
G04 APERTURE LIST*
%ADD10C,0.050000*%
%ADD11C,0.200000*%
%ADD12C,0.320000*%
G04 APERTURE END LIST*
D10*
X15265400Y-13627100D02*
X15265400Y-13538200D01*
X22123400Y-13627100D02*
X22123400Y-13538200D01*
X15265400Y-9347200D02*
X15265400Y-10350500D01*
X16027400Y-10350500D02*
X16027400Y-9347200D01*
X22123400Y-9347200D02*
X22123400Y-10350500D01*
X21361612Y-10363193D02*
X21361612Y-9359893D01*
X16027400Y-11264900D02*
X16027400Y-10795000D01*
X21361612Y-11264900D02*
X16027400Y-11264900D01*
X21361612Y-10795000D02*
X21361612Y-11264900D01*
X15265400Y-13538200D02*
X15265400Y-10350500D01*
X17957800Y-13893800D02*
X15532100Y-13893800D01*
X22123400Y-13538200D02*
X22123400Y-12839700D01*
X22123400Y-13627100D02*
G75*
G02*
X21856700Y-13893800I-266700J0D01*
G01*
X15532100Y-13893800D02*
G75*
G02*
X15265400Y-13627100I0J266700D01*
G01*
X16027400Y-10363200D02*
X16027400Y-10350500D01*
X15265400Y-9347200D02*
G75*
G02*
X16027400Y-9347200I381000J0D01*
G01*
X21361612Y-10363193D02*
X21361612Y-10795000D01*
X21361612Y-9359893D02*
G75*
G02*
X22123400Y-9347200I380789J12693D01*
G01*
X22123400Y-10477500D02*
X22123400Y-10350500D01*
X19939000Y-13893800D02*
X17957800Y-13893800D01*
X22123400Y-12839700D02*
X22123400Y-10477500D01*
X16027400Y-10795000D02*
X16027400Y-10363200D01*
X21856700Y-13893800D02*
X19939000Y-13893800D01*
D11*
D12*
X15486400Y-9187200D02*
X15806400Y-9507200D01*
X15806400Y-9187200D02*
X15486400Y-9507200D01*
X21582400Y-9187200D02*
X21902400Y-9507200D01*
X21902400Y-9187200D02*
X21582400Y-9507200D01*
D11*
X15523677Y-14207784D02*
X15523677Y-14007784D01*
X15523677Y-14007784D02*
X15571296Y-14007784D01*
X15571296Y-14007784D02*
X15599867Y-14017308D01*
X15599867Y-14017308D02*
X15618915Y-14036355D01*
X15618915Y-14036355D02*
X15628439Y-14055403D01*
X15628439Y-14055403D02*
X15637962Y-14093498D01*
X15637962Y-14093498D02*
X15637962Y-14122069D01*
X15637962Y-14122069D02*
X15628439Y-14160165D01*
X15628439Y-14160165D02*
X15618915Y-14179212D01*
X15618915Y-14179212D02*
X15599867Y-14198260D01*
X15599867Y-14198260D02*
X15571296Y-14207784D01*
X15571296Y-14207784D02*
X15523677Y-14207784D01*
X15723677Y-14207784D02*
X15723677Y-14074450D01*
X15723677Y-14112546D02*
X15733201Y-14093498D01*
X15733201Y-14093498D02*
X15742724Y-14083974D01*
X15742724Y-14083974D02*
X15761772Y-14074450D01*
X15761772Y-14074450D02*
X15780820Y-14074450D01*
X15847486Y-14207784D02*
X15847486Y-14074450D01*
X15847486Y-14007784D02*
X15837962Y-14017308D01*
X15837962Y-14017308D02*
X15847486Y-14026831D01*
X15847486Y-14026831D02*
X15857010Y-14017308D01*
X15857010Y-14017308D02*
X15847486Y-14007784D01*
X15847486Y-14007784D02*
X15847486Y-14026831D01*
X15971296Y-14207784D02*
X15952248Y-14198260D01*
X15952248Y-14198260D02*
X15942724Y-14179212D01*
X15942724Y-14179212D02*
X15942724Y-14007784D01*
X16076058Y-14207784D02*
X16057010Y-14198260D01*
X16057010Y-14198260D02*
X16047486Y-14179212D01*
X16047486Y-14179212D02*
X16047486Y-14007784D01*
X16304629Y-14207784D02*
X16304629Y-14007784D01*
X16304629Y-14007784D02*
X16371296Y-14150641D01*
X16371296Y-14150641D02*
X16437962Y-14007784D01*
X16437962Y-14007784D02*
X16437962Y-14207784D01*
X16618915Y-14207784D02*
X16618915Y-14103022D01*
X16618915Y-14103022D02*
X16609391Y-14083974D01*
X16609391Y-14083974D02*
X16590343Y-14074450D01*
X16590343Y-14074450D02*
X16552248Y-14074450D01*
X16552248Y-14074450D02*
X16533201Y-14083974D01*
X16618915Y-14198260D02*
X16599867Y-14207784D01*
X16599867Y-14207784D02*
X16552248Y-14207784D01*
X16552248Y-14207784D02*
X16533201Y-14198260D01*
X16533201Y-14198260D02*
X16523677Y-14179212D01*
X16523677Y-14179212D02*
X16523677Y-14160165D01*
X16523677Y-14160165D02*
X16533201Y-14141117D01*
X16533201Y-14141117D02*
X16552248Y-14131593D01*
X16552248Y-14131593D02*
X16599867Y-14131593D01*
X16599867Y-14131593D02*
X16618915Y-14122069D01*
X16714153Y-14074450D02*
X16714153Y-14274450D01*
X16714153Y-14083974D02*
X16733201Y-14074450D01*
X16733201Y-14074450D02*
X16771296Y-14074450D01*
X16771296Y-14074450D02*
X16790344Y-14083974D01*
X16790344Y-14083974D02*
X16799867Y-14093498D01*
X16799867Y-14093498D02*
X16809391Y-14112546D01*
X16809391Y-14112546D02*
X16809391Y-14169688D01*
X16809391Y-14169688D02*
X16799867Y-14188736D01*
X16799867Y-14188736D02*
X16790344Y-14198260D01*
X16790344Y-14198260D02*
X16771296Y-14207784D01*
X16771296Y-14207784D02*
X16733201Y-14207784D01*
X16733201Y-14207784D02*
X16714153Y-14198260D01*
X16895105Y-14188736D02*
X16904629Y-14198260D01*
X16904629Y-14198260D02*
X16895105Y-14207784D01*
X16895105Y-14207784D02*
X16885582Y-14198260D01*
X16885582Y-14198260D02*
X16895105Y-14188736D01*
X16895105Y-14188736D02*
X16895105Y-14207784D01*
X16895105Y-14083974D02*
X16904629Y-14093498D01*
X16904629Y-14093498D02*
X16895105Y-14103022D01*
X16895105Y-14103022D02*
X16885582Y-14093498D01*
X16885582Y-14093498D02*
X16895105Y-14083974D01*
X16895105Y-14083974D02*
X16895105Y-14103022D01*
X15062900Y-14436300D02*
X15262900Y-14636300D01*
X15262900Y-14436300D02*
X15062900Y-14636300D01*
X15504629Y-14427784D02*
X15628439Y-14427784D01*
X15628439Y-14427784D02*
X15561772Y-14503974D01*
X15561772Y-14503974D02*
X15590343Y-14503974D01*
X15590343Y-14503974D02*
X15609391Y-14513498D01*
X15609391Y-14513498D02*
X15618915Y-14523022D01*
X15618915Y-14523022D02*
X15628439Y-14542069D01*
X15628439Y-14542069D02*
X15628439Y-14589688D01*
X15628439Y-14589688D02*
X15618915Y-14608736D01*
X15618915Y-14608736D02*
X15609391Y-14618260D01*
X15609391Y-14618260D02*
X15590343Y-14627784D01*
X15590343Y-14627784D02*
X15533201Y-14627784D01*
X15533201Y-14627784D02*
X15514153Y-14618260D01*
X15514153Y-14618260D02*
X15504629Y-14608736D01*
X15714153Y-14608736D02*
X15723677Y-14618260D01*
X15723677Y-14618260D02*
X15714153Y-14627784D01*
X15714153Y-14627784D02*
X15704629Y-14618260D01*
X15704629Y-14618260D02*
X15714153Y-14608736D01*
X15714153Y-14608736D02*
X15714153Y-14627784D01*
X15799867Y-14446831D02*
X15809391Y-14437308D01*
X15809391Y-14437308D02*
X15828439Y-14427784D01*
X15828439Y-14427784D02*
X15876058Y-14427784D01*
X15876058Y-14427784D02*
X15895105Y-14437308D01*
X15895105Y-14437308D02*
X15904629Y-14446831D01*
X15904629Y-14446831D02*
X15914153Y-14465879D01*
X15914153Y-14465879D02*
X15914153Y-14484927D01*
X15914153Y-14484927D02*
X15904629Y-14513498D01*
X15904629Y-14513498D02*
X15790343Y-14627784D01*
X15790343Y-14627784D02*
X15914153Y-14627784D01*
X16037962Y-14427784D02*
X16057010Y-14427784D01*
X16057010Y-14427784D02*
X16076058Y-14437308D01*
X16076058Y-14437308D02*
X16085582Y-14446831D01*
X16085582Y-14446831D02*
X16095105Y-14465879D01*
X16095105Y-14465879D02*
X16104629Y-14503974D01*
X16104629Y-14503974D02*
X16104629Y-14551593D01*
X16104629Y-14551593D02*
X16095105Y-14589688D01*
X16095105Y-14589688D02*
X16085582Y-14608736D01*
X16085582Y-14608736D02*
X16076058Y-14618260D01*
X16076058Y-14618260D02*
X16057010Y-14627784D01*
X16057010Y-14627784D02*
X16037962Y-14627784D01*
X16037962Y-14627784D02*
X16018915Y-14618260D01*
X16018915Y-14618260D02*
X16009391Y-14608736D01*
X16009391Y-14608736D02*
X15999867Y-14589688D01*
X15999867Y-14589688D02*
X15990343Y-14551593D01*
X15990343Y-14551593D02*
X15990343Y-14503974D01*
X15990343Y-14503974D02*
X15999867Y-14465879D01*
X15999867Y-14465879D02*
X16009391Y-14446831D01*
X16009391Y-14446831D02*
X16018915Y-14437308D01*
X16018915Y-14437308D02*
X16037962Y-14427784D01*
X16228439Y-14427784D02*
X16247486Y-14427784D01*
X16247486Y-14427784D02*
X16266534Y-14437308D01*
X16266534Y-14437308D02*
X16276058Y-14446831D01*
X16276058Y-14446831D02*
X16285582Y-14465879D01*
X16285582Y-14465879D02*
X16295105Y-14503974D01*
X16295105Y-14503974D02*
X16295105Y-14551593D01*
X16295105Y-14551593D02*
X16285582Y-14589688D01*
X16285582Y-14589688D02*
X16276058Y-14608736D01*
X16276058Y-14608736D02*
X16266534Y-14618260D01*
X16266534Y-14618260D02*
X16247486Y-14627784D01*
X16247486Y-14627784D02*
X16228439Y-14627784D01*
X16228439Y-14627784D02*
X16209391Y-14618260D01*
X16209391Y-14618260D02*
X16199867Y-14608736D01*
X16199867Y-14608736D02*
X16190343Y-14589688D01*
X16190343Y-14589688D02*
X16180820Y-14551593D01*
X16180820Y-14551593D02*
X16180820Y-14503974D01*
X16180820Y-14503974D02*
X16190343Y-14465879D01*
X16190343Y-14465879D02*
X16199867Y-14446831D01*
X16199867Y-14446831D02*
X16209391Y-14437308D01*
X16209391Y-14437308D02*
X16228439Y-14427784D01*
X16380820Y-14627784D02*
X16380820Y-14494450D01*
X16380820Y-14513498D02*
X16390343Y-14503974D01*
X16390343Y-14503974D02*
X16409391Y-14494450D01*
X16409391Y-14494450D02*
X16437963Y-14494450D01*
X16437963Y-14494450D02*
X16457010Y-14503974D01*
X16457010Y-14503974D02*
X16466534Y-14523022D01*
X16466534Y-14523022D02*
X16466534Y-14627784D01*
X16466534Y-14523022D02*
X16476058Y-14503974D01*
X16476058Y-14503974D02*
X16495105Y-14494450D01*
X16495105Y-14494450D02*
X16523677Y-14494450D01*
X16523677Y-14494450D02*
X16542724Y-14503974D01*
X16542724Y-14503974D02*
X16552248Y-14523022D01*
X16552248Y-14523022D02*
X16552248Y-14627784D01*
X16647486Y-14627784D02*
X16647486Y-14494450D01*
X16647486Y-14513498D02*
X16657010Y-14503974D01*
X16657010Y-14503974D02*
X16676058Y-14494450D01*
X16676058Y-14494450D02*
X16704629Y-14494450D01*
X16704629Y-14494450D02*
X16723677Y-14503974D01*
X16723677Y-14503974D02*
X16733201Y-14523022D01*
X16733201Y-14523022D02*
X16733201Y-14627784D01*
X16733201Y-14523022D02*
X16742724Y-14503974D01*
X16742724Y-14503974D02*
X16761772Y-14494450D01*
X16761772Y-14494450D02*
X16790344Y-14494450D01*
X16790344Y-14494450D02*
X16809391Y-14503974D01*
X16809391Y-14503974D02*
X16818915Y-14523022D01*
X16818915Y-14523022D02*
X16818915Y-14627784D01*
X17209391Y-14418260D02*
X17037963Y-14675403D01*
X17466534Y-14427784D02*
X17485582Y-14427784D01*
X17485582Y-14427784D02*
X17504629Y-14437308D01*
X17504629Y-14437308D02*
X17514153Y-14446831D01*
X17514153Y-14446831D02*
X17523677Y-14465879D01*
X17523677Y-14465879D02*
X17533201Y-14503974D01*
X17533201Y-14503974D02*
X17533201Y-14551593D01*
X17533201Y-14551593D02*
X17523677Y-14589688D01*
X17523677Y-14589688D02*
X17514153Y-14608736D01*
X17514153Y-14608736D02*
X17504629Y-14618260D01*
X17504629Y-14618260D02*
X17485582Y-14627784D01*
X17485582Y-14627784D02*
X17466534Y-14627784D01*
X17466534Y-14627784D02*
X17447487Y-14618260D01*
X17447487Y-14618260D02*
X17437963Y-14608736D01*
X17437963Y-14608736D02*
X17428439Y-14589688D01*
X17428439Y-14589688D02*
X17418915Y-14551593D01*
X17418915Y-14551593D02*
X17418915Y-14503974D01*
X17418915Y-14503974D02*
X17428439Y-14465879D01*
X17428439Y-14465879D02*
X17437963Y-14446831D01*
X17437963Y-14446831D02*
X17447487Y-14437308D01*
X17447487Y-14437308D02*
X17466534Y-14427784D01*
X17618915Y-14608736D02*
X17628439Y-14618260D01*
X17628439Y-14618260D02*
X17618915Y-14627784D01*
X17618915Y-14627784D02*
X17609391Y-14618260D01*
X17609391Y-14618260D02*
X17618915Y-14608736D01*
X17618915Y-14608736D02*
X17618915Y-14627784D01*
X17818915Y-14627784D02*
X17704629Y-14627784D01*
X17761772Y-14627784D02*
X17761772Y-14427784D01*
X17761772Y-14427784D02*
X17742725Y-14456355D01*
X17742725Y-14456355D02*
X17723677Y-14475403D01*
X17723677Y-14475403D02*
X17704629Y-14484927D01*
X17895106Y-14446831D02*
X17904629Y-14437308D01*
X17904629Y-14437308D02*
X17923677Y-14427784D01*
X17923677Y-14427784D02*
X17971296Y-14427784D01*
X17971296Y-14427784D02*
X17990344Y-14437308D01*
X17990344Y-14437308D02*
X17999868Y-14446831D01*
X17999868Y-14446831D02*
X18009391Y-14465879D01*
X18009391Y-14465879D02*
X18009391Y-14484927D01*
X18009391Y-14484927D02*
X17999868Y-14513498D01*
X17999868Y-14513498D02*
X17885582Y-14627784D01*
X17885582Y-14627784D02*
X18009391Y-14627784D01*
X18180820Y-14427784D02*
X18142725Y-14427784D01*
X18142725Y-14427784D02*
X18123677Y-14437308D01*
X18123677Y-14437308D02*
X18114153Y-14446831D01*
X18114153Y-14446831D02*
X18095106Y-14475403D01*
X18095106Y-14475403D02*
X18085582Y-14513498D01*
X18085582Y-14513498D02*
X18085582Y-14589688D01*
X18085582Y-14589688D02*
X18095106Y-14608736D01*
X18095106Y-14608736D02*
X18104629Y-14618260D01*
X18104629Y-14618260D02*
X18123677Y-14627784D01*
X18123677Y-14627784D02*
X18161772Y-14627784D01*
X18161772Y-14627784D02*
X18180820Y-14618260D01*
X18180820Y-14618260D02*
X18190344Y-14608736D01*
X18190344Y-14608736D02*
X18199868Y-14589688D01*
X18199868Y-14589688D02*
X18199868Y-14542069D01*
X18199868Y-14542069D02*
X18190344Y-14523022D01*
X18190344Y-14523022D02*
X18180820Y-14513498D01*
X18180820Y-14513498D02*
X18161772Y-14503974D01*
X18161772Y-14503974D02*
X18123677Y-14503974D01*
X18123677Y-14503974D02*
X18104629Y-14513498D01*
X18104629Y-14513498D02*
X18095106Y-14523022D01*
X18095106Y-14523022D02*
X18085582Y-14542069D01*
X18323677Y-14427784D02*
X18342725Y-14427784D01*
X18342725Y-14427784D02*
X18361772Y-14437308D01*
X18361772Y-14437308D02*
X18371296Y-14446831D01*
X18371296Y-14446831D02*
X18380820Y-14465879D01*
X18380820Y-14465879D02*
X18390344Y-14503974D01*
X18390344Y-14503974D02*
X18390344Y-14551593D01*
X18390344Y-14551593D02*
X18380820Y-14589688D01*
X18380820Y-14589688D02*
X18371296Y-14608736D01*
X18371296Y-14608736D02*
X18361772Y-14618260D01*
X18361772Y-14618260D02*
X18342725Y-14627784D01*
X18342725Y-14627784D02*
X18323677Y-14627784D01*
X18323677Y-14627784D02*
X18304629Y-14618260D01*
X18304629Y-14618260D02*
X18295106Y-14608736D01*
X18295106Y-14608736D02*
X18285582Y-14589688D01*
X18285582Y-14589688D02*
X18276058Y-14551593D01*
X18276058Y-14551593D02*
X18276058Y-14503974D01*
X18276058Y-14503974D02*
X18285582Y-14465879D01*
X18285582Y-14465879D02*
X18295106Y-14446831D01*
X18295106Y-14446831D02*
X18304629Y-14437308D01*
X18304629Y-14437308D02*
X18323677Y-14427784D01*
X18466534Y-14427784D02*
X18466534Y-14465879D01*
X18542725Y-14427784D02*
X18542725Y-14465879D01*
X18837963Y-14703974D02*
X18828439Y-14694450D01*
X18828439Y-14694450D02*
X18809391Y-14665879D01*
X18809391Y-14665879D02*
X18799868Y-14646831D01*
X18799868Y-14646831D02*
X18790344Y-14618260D01*
X18790344Y-14618260D02*
X18780820Y-14570641D01*
X18780820Y-14570641D02*
X18780820Y-14532546D01*
X18780820Y-14532546D02*
X18790344Y-14484927D01*
X18790344Y-14484927D02*
X18799868Y-14456355D01*
X18799868Y-14456355D02*
X18809391Y-14437308D01*
X18809391Y-14437308D02*
X18828439Y-14408736D01*
X18828439Y-14408736D02*
X18837963Y-14399212D01*
X18904630Y-14446831D02*
X18914153Y-14437308D01*
X18914153Y-14437308D02*
X18933201Y-14427784D01*
X18933201Y-14427784D02*
X18980820Y-14427784D01*
X18980820Y-14427784D02*
X18999868Y-14437308D01*
X18999868Y-14437308D02*
X19009391Y-14446831D01*
X19009391Y-14446831D02*
X19018915Y-14465879D01*
X19018915Y-14465879D02*
X19018915Y-14484927D01*
X19018915Y-14484927D02*
X19009391Y-14513498D01*
X19009391Y-14513498D02*
X18895106Y-14627784D01*
X18895106Y-14627784D02*
X19018915Y-14627784D01*
X19257011Y-14627784D02*
X19257011Y-14427784D01*
X19342725Y-14627784D02*
X19342725Y-14523022D01*
X19342725Y-14523022D02*
X19333201Y-14503974D01*
X19333201Y-14503974D02*
X19314153Y-14494450D01*
X19314153Y-14494450D02*
X19285582Y-14494450D01*
X19285582Y-14494450D02*
X19266534Y-14503974D01*
X19266534Y-14503974D02*
X19257011Y-14513498D01*
X19466534Y-14627784D02*
X19447487Y-14618260D01*
X19447487Y-14618260D02*
X19437963Y-14608736D01*
X19437963Y-14608736D02*
X19428439Y-14589688D01*
X19428439Y-14589688D02*
X19428439Y-14532546D01*
X19428439Y-14532546D02*
X19437963Y-14513498D01*
X19437963Y-14513498D02*
X19447487Y-14503974D01*
X19447487Y-14503974D02*
X19466534Y-14494450D01*
X19466534Y-14494450D02*
X19495106Y-14494450D01*
X19495106Y-14494450D02*
X19514153Y-14503974D01*
X19514153Y-14503974D02*
X19523677Y-14513498D01*
X19523677Y-14513498D02*
X19533201Y-14532546D01*
X19533201Y-14532546D02*
X19533201Y-14589688D01*
X19533201Y-14589688D02*
X19523677Y-14608736D01*
X19523677Y-14608736D02*
X19514153Y-14618260D01*
X19514153Y-14618260D02*
X19495106Y-14627784D01*
X19495106Y-14627784D02*
X19466534Y-14627784D01*
X19647487Y-14627784D02*
X19628439Y-14618260D01*
X19628439Y-14618260D02*
X19618915Y-14599212D01*
X19618915Y-14599212D02*
X19618915Y-14427784D01*
X19799868Y-14618260D02*
X19780820Y-14627784D01*
X19780820Y-14627784D02*
X19742725Y-14627784D01*
X19742725Y-14627784D02*
X19723677Y-14618260D01*
X19723677Y-14618260D02*
X19714153Y-14599212D01*
X19714153Y-14599212D02*
X19714153Y-14523022D01*
X19714153Y-14523022D02*
X19723677Y-14503974D01*
X19723677Y-14503974D02*
X19742725Y-14494450D01*
X19742725Y-14494450D02*
X19780820Y-14494450D01*
X19780820Y-14494450D02*
X19799868Y-14503974D01*
X19799868Y-14503974D02*
X19809392Y-14523022D01*
X19809392Y-14523022D02*
X19809392Y-14542069D01*
X19809392Y-14542069D02*
X19714153Y-14561117D01*
X19885582Y-14618260D02*
X19904630Y-14627784D01*
X19904630Y-14627784D02*
X19942725Y-14627784D01*
X19942725Y-14627784D02*
X19961773Y-14618260D01*
X19961773Y-14618260D02*
X19971296Y-14599212D01*
X19971296Y-14599212D02*
X19971296Y-14589688D01*
X19971296Y-14589688D02*
X19961773Y-14570641D01*
X19961773Y-14570641D02*
X19942725Y-14561117D01*
X19942725Y-14561117D02*
X19914153Y-14561117D01*
X19914153Y-14561117D02*
X19895106Y-14551593D01*
X19895106Y-14551593D02*
X19885582Y-14532546D01*
X19885582Y-14532546D02*
X19885582Y-14523022D01*
X19885582Y-14523022D02*
X19895106Y-14503974D01*
X19895106Y-14503974D02*
X19914153Y-14494450D01*
X19914153Y-14494450D02*
X19942725Y-14494450D01*
X19942725Y-14494450D02*
X19961773Y-14503974D01*
X20037963Y-14703974D02*
X20047487Y-14694450D01*
X20047487Y-14694450D02*
X20066534Y-14665879D01*
X20066534Y-14665879D02*
X20076058Y-14646831D01*
X20076058Y-14646831D02*
X20085582Y-14618260D01*
X20085582Y-14618260D02*
X20095106Y-14570641D01*
X20095106Y-14570641D02*
X20095106Y-14532546D01*
X20095106Y-14532546D02*
X20085582Y-14484927D01*
X20085582Y-14484927D02*
X20076058Y-14456355D01*
X20076058Y-14456355D02*
X20066534Y-14437308D01*
X20066534Y-14437308D02*
X20047487Y-14408736D01*
X20047487Y-14408736D02*
X20037963Y-14399212D01*
X20399868Y-14703974D02*
X20390344Y-14694450D01*
X20390344Y-14694450D02*
X20371296Y-14665879D01*
X20371296Y-14665879D02*
X20361773Y-14646831D01*
X20361773Y-14646831D02*
X20352249Y-14618260D01*
X20352249Y-14618260D02*
X20342725Y-14570641D01*
X20342725Y-14570641D02*
X20342725Y-14532546D01*
X20342725Y-14532546D02*
X20352249Y-14484927D01*
X20352249Y-14484927D02*
X20361773Y-14456355D01*
X20361773Y-14456355D02*
X20371296Y-14437308D01*
X20371296Y-14437308D02*
X20390344Y-14408736D01*
X20390344Y-14408736D02*
X20399868Y-14399212D01*
X20476058Y-14494450D02*
X20476058Y-14627784D01*
X20476058Y-14513498D02*
X20485582Y-14503974D01*
X20485582Y-14503974D02*
X20504630Y-14494450D01*
X20504630Y-14494450D02*
X20533201Y-14494450D01*
X20533201Y-14494450D02*
X20552249Y-14503974D01*
X20552249Y-14503974D02*
X20561773Y-14523022D01*
X20561773Y-14523022D02*
X20561773Y-14627784D01*
X20685582Y-14627784D02*
X20666534Y-14618260D01*
X20666534Y-14618260D02*
X20657011Y-14608736D01*
X20657011Y-14608736D02*
X20647487Y-14589688D01*
X20647487Y-14589688D02*
X20647487Y-14532546D01*
X20647487Y-14532546D02*
X20657011Y-14513498D01*
X20657011Y-14513498D02*
X20666534Y-14503974D01*
X20666534Y-14503974D02*
X20685582Y-14494450D01*
X20685582Y-14494450D02*
X20714154Y-14494450D01*
X20714154Y-14494450D02*
X20733201Y-14503974D01*
X20733201Y-14503974D02*
X20742725Y-14513498D01*
X20742725Y-14513498D02*
X20752249Y-14532546D01*
X20752249Y-14532546D02*
X20752249Y-14589688D01*
X20752249Y-14589688D02*
X20742725Y-14608736D01*
X20742725Y-14608736D02*
X20733201Y-14618260D01*
X20733201Y-14618260D02*
X20714154Y-14627784D01*
X20714154Y-14627784D02*
X20685582Y-14627784D01*
X20809392Y-14494450D02*
X20885582Y-14494450D01*
X20837963Y-14427784D02*
X20837963Y-14599212D01*
X20837963Y-14599212D02*
X20847487Y-14618260D01*
X20847487Y-14618260D02*
X20866534Y-14627784D01*
X20866534Y-14627784D02*
X20885582Y-14627784D01*
X21104630Y-14494450D02*
X21104630Y-14694450D01*
X21104630Y-14503974D02*
X21123677Y-14494450D01*
X21123677Y-14494450D02*
X21161773Y-14494450D01*
X21161773Y-14494450D02*
X21180820Y-14503974D01*
X21180820Y-14503974D02*
X21190344Y-14513498D01*
X21190344Y-14513498D02*
X21199868Y-14532546D01*
X21199868Y-14532546D02*
X21199868Y-14589688D01*
X21199868Y-14589688D02*
X21190344Y-14608736D01*
X21190344Y-14608736D02*
X21180820Y-14618260D01*
X21180820Y-14618260D02*
X21161773Y-14627784D01*
X21161773Y-14627784D02*
X21123677Y-14627784D01*
X21123677Y-14627784D02*
X21104630Y-14618260D01*
X21314154Y-14627784D02*
X21295106Y-14618260D01*
X21295106Y-14618260D02*
X21285582Y-14599212D01*
X21285582Y-14599212D02*
X21285582Y-14427784D01*
X21476058Y-14627784D02*
X21476058Y-14523022D01*
X21476058Y-14523022D02*
X21466535Y-14503974D01*
X21466535Y-14503974D02*
X21447487Y-14494450D01*
X21447487Y-14494450D02*
X21409392Y-14494450D01*
X21409392Y-14494450D02*
X21390344Y-14503974D01*
X21476058Y-14618260D02*
X21457011Y-14627784D01*
X21457011Y-14627784D02*
X21409392Y-14627784D01*
X21409392Y-14627784D02*
X21390344Y-14618260D01*
X21390344Y-14618260D02*
X21380820Y-14599212D01*
X21380820Y-14599212D02*
X21380820Y-14580165D01*
X21380820Y-14580165D02*
X21390344Y-14561117D01*
X21390344Y-14561117D02*
X21409392Y-14551593D01*
X21409392Y-14551593D02*
X21457011Y-14551593D01*
X21457011Y-14551593D02*
X21476058Y-14542069D01*
X21542725Y-14494450D02*
X21618915Y-14494450D01*
X21571296Y-14427784D02*
X21571296Y-14599212D01*
X21571296Y-14599212D02*
X21580820Y-14618260D01*
X21580820Y-14618260D02*
X21599868Y-14627784D01*
X21599868Y-14627784D02*
X21618915Y-14627784D01*
X21761773Y-14618260D02*
X21742725Y-14627784D01*
X21742725Y-14627784D02*
X21704630Y-14627784D01*
X21704630Y-14627784D02*
X21685582Y-14618260D01*
X21685582Y-14618260D02*
X21676058Y-14599212D01*
X21676058Y-14599212D02*
X21676058Y-14523022D01*
X21676058Y-14523022D02*
X21685582Y-14503974D01*
X21685582Y-14503974D02*
X21704630Y-14494450D01*
X21704630Y-14494450D02*
X21742725Y-14494450D01*
X21742725Y-14494450D02*
X21761773Y-14503974D01*
X21761773Y-14503974D02*
X21771296Y-14523022D01*
X21771296Y-14523022D02*
X21771296Y-14542069D01*
X21771296Y-14542069D02*
X21676058Y-14561117D01*
X21942725Y-14627784D02*
X21942725Y-14427784D01*
X21942725Y-14618260D02*
X21923677Y-14627784D01*
X21923677Y-14627784D02*
X21885582Y-14627784D01*
X21885582Y-14627784D02*
X21866535Y-14618260D01*
X21866535Y-14618260D02*
X21857011Y-14608736D01*
X21857011Y-14608736D02*
X21847487Y-14589688D01*
X21847487Y-14589688D02*
X21847487Y-14532546D01*
X21847487Y-14532546D02*
X21857011Y-14513498D01*
X21857011Y-14513498D02*
X21866535Y-14503974D01*
X21866535Y-14503974D02*
X21885582Y-14494450D01*
X21885582Y-14494450D02*
X21923677Y-14494450D01*
X21923677Y-14494450D02*
X21942725Y-14503974D01*
X22018916Y-14703974D02*
X22028439Y-14694450D01*
X22028439Y-14694450D02*
X22047487Y-14665879D01*
X22047487Y-14665879D02*
X22057011Y-14646831D01*
X22057011Y-14646831D02*
X22066535Y-14618260D01*
X22066535Y-14618260D02*
X22076058Y-14570641D01*
X22076058Y-14570641D02*
X22076058Y-14532546D01*
X22076058Y-14532546D02*
X22066535Y-14484927D01*
X22066535Y-14484927D02*
X22057011Y-14456355D01*
X22057011Y-14456355D02*
X22047487Y-14437308D01*
X22047487Y-14437308D02*
X22028439Y-14408736D01*
X22028439Y-14408736D02*
X22018916Y-14399212D01*
M02*
