%TF.GenerationSoftware,KiCad,Pcbnew,9.0.7*%
%TF.CreationDate,2026-02-21T16:48:54+00:00*%
%TF.ProjectId,z-axis-addon,7a2d6178-6973-42d6-9164-646f6e2e6b69,A*%
%TF.SameCoordinates,Original*%
%TF.FileFunction,Legend,Top*%
%TF.FilePolarity,Positive*%
%FSLAX46Y46*%
G04 Gerber Fmt 4.6, Leading zero omitted, Abs format (unit mm)*
G04 Created by KiCad (PCBNEW 9.0.7) date 2026-02-21 16:48:54*
%MOMM*%
%LPD*%
G01*
G04 APERTURE LIST*
%ADD10C,0.100000*%
%ADD11C,0.150000*%
%ADD12C,0.120000*%
G04 APERTURE END LIST*
D10*
X155072940Y-129607906D02*
X154272940Y-129607906D01*
X155072940Y-129265049D02*
X154653892Y-129265049D01*
X154653892Y-129265049D02*
X154577702Y-129303144D01*
X154577702Y-129303144D02*
X154539606Y-129379335D01*
X154539606Y-129379335D02*
X154539606Y-129493621D01*
X154539606Y-129493621D02*
X154577702Y-129569811D01*
X154577702Y-129569811D02*
X154615797Y-129607906D01*
X154539606Y-128998382D02*
X154539606Y-128693620D01*
X154272940Y-128884096D02*
X154958654Y-128884096D01*
X154958654Y-128884096D02*
X155034845Y-128846001D01*
X155034845Y-128846001D02*
X155072940Y-128769811D01*
X155072940Y-128769811D02*
X155072940Y-128693620D01*
X154539606Y-128541239D02*
X154539606Y-128236477D01*
X154272940Y-128426953D02*
X154958654Y-128426953D01*
X154958654Y-128426953D02*
X155034845Y-128388858D01*
X155034845Y-128388858D02*
X155072940Y-128312668D01*
X155072940Y-128312668D02*
X155072940Y-128236477D01*
X154539606Y-127969810D02*
X155339606Y-127969810D01*
X154577702Y-127969810D02*
X154539606Y-127893620D01*
X154539606Y-127893620D02*
X154539606Y-127741239D01*
X154539606Y-127741239D02*
X154577702Y-127665048D01*
X154577702Y-127665048D02*
X154615797Y-127626953D01*
X154615797Y-127626953D02*
X154691987Y-127588858D01*
X154691987Y-127588858D02*
X154920559Y-127588858D01*
X154920559Y-127588858D02*
X154996749Y-127626953D01*
X154996749Y-127626953D02*
X155034845Y-127665048D01*
X155034845Y-127665048D02*
X155072940Y-127741239D01*
X155072940Y-127741239D02*
X155072940Y-127893620D01*
X155072940Y-127893620D02*
X155034845Y-127969810D01*
X154996749Y-127246000D02*
X155034845Y-127207905D01*
X155034845Y-127207905D02*
X155072940Y-127246000D01*
X155072940Y-127246000D02*
X155034845Y-127284096D01*
X155034845Y-127284096D02*
X154996749Y-127246000D01*
X154996749Y-127246000D02*
X155072940Y-127246000D01*
X154577702Y-127246000D02*
X154615797Y-127207905D01*
X154615797Y-127207905D02*
X154653892Y-127246000D01*
X154653892Y-127246000D02*
X154615797Y-127284096D01*
X154615797Y-127284096D02*
X154577702Y-127246000D01*
X154577702Y-127246000D02*
X154653892Y-127246000D01*
X154234845Y-126293620D02*
X155263416Y-126979334D01*
X154234845Y-125455525D02*
X155263416Y-126141239D01*
X154539606Y-124846001D02*
X155187225Y-124846001D01*
X155187225Y-124846001D02*
X155263416Y-124884096D01*
X155263416Y-124884096D02*
X155301511Y-124922192D01*
X155301511Y-124922192D02*
X155339606Y-124998382D01*
X155339606Y-124998382D02*
X155339606Y-125112668D01*
X155339606Y-125112668D02*
X155301511Y-125188858D01*
X155034845Y-124846001D02*
X155072940Y-124922192D01*
X155072940Y-124922192D02*
X155072940Y-125074573D01*
X155072940Y-125074573D02*
X155034845Y-125150763D01*
X155034845Y-125150763D02*
X154996749Y-125188858D01*
X154996749Y-125188858D02*
X154920559Y-125226954D01*
X154920559Y-125226954D02*
X154691987Y-125226954D01*
X154691987Y-125226954D02*
X154615797Y-125188858D01*
X154615797Y-125188858D02*
X154577702Y-125150763D01*
X154577702Y-125150763D02*
X154539606Y-125074573D01*
X154539606Y-125074573D02*
X154539606Y-124922192D01*
X154539606Y-124922192D02*
X154577702Y-124846001D01*
X155072940Y-124465048D02*
X154539606Y-124465048D01*
X154272940Y-124465048D02*
X154311035Y-124503144D01*
X154311035Y-124503144D02*
X154349130Y-124465048D01*
X154349130Y-124465048D02*
X154311035Y-124426953D01*
X154311035Y-124426953D02*
X154272940Y-124465048D01*
X154272940Y-124465048D02*
X154349130Y-124465048D01*
X154539606Y-124198382D02*
X154539606Y-123893620D01*
X154272940Y-124084096D02*
X154958654Y-124084096D01*
X154958654Y-124084096D02*
X155034845Y-124046001D01*
X155034845Y-124046001D02*
X155072940Y-123969811D01*
X155072940Y-123969811D02*
X155072940Y-123893620D01*
X155072940Y-123626953D02*
X154272940Y-123626953D01*
X155072940Y-123284096D02*
X154653892Y-123284096D01*
X154653892Y-123284096D02*
X154577702Y-123322191D01*
X154577702Y-123322191D02*
X154539606Y-123398382D01*
X154539606Y-123398382D02*
X154539606Y-123512668D01*
X154539606Y-123512668D02*
X154577702Y-123588858D01*
X154577702Y-123588858D02*
X154615797Y-123626953D01*
X154539606Y-122560286D02*
X155072940Y-122560286D01*
X154539606Y-122903143D02*
X154958654Y-122903143D01*
X154958654Y-122903143D02*
X155034845Y-122865048D01*
X155034845Y-122865048D02*
X155072940Y-122788858D01*
X155072940Y-122788858D02*
X155072940Y-122674572D01*
X155072940Y-122674572D02*
X155034845Y-122598381D01*
X155034845Y-122598381D02*
X154996749Y-122560286D01*
X155072940Y-122179333D02*
X154272940Y-122179333D01*
X154577702Y-122179333D02*
X154539606Y-122103143D01*
X154539606Y-122103143D02*
X154539606Y-121950762D01*
X154539606Y-121950762D02*
X154577702Y-121874571D01*
X154577702Y-121874571D02*
X154615797Y-121836476D01*
X154615797Y-121836476D02*
X154691987Y-121798381D01*
X154691987Y-121798381D02*
X154920559Y-121798381D01*
X154920559Y-121798381D02*
X154996749Y-121836476D01*
X154996749Y-121836476D02*
X155034845Y-121874571D01*
X155034845Y-121874571D02*
X155072940Y-121950762D01*
X155072940Y-121950762D02*
X155072940Y-122103143D01*
X155072940Y-122103143D02*
X155034845Y-122179333D01*
X154996749Y-121455523D02*
X155034845Y-121417428D01*
X155034845Y-121417428D02*
X155072940Y-121455523D01*
X155072940Y-121455523D02*
X155034845Y-121493619D01*
X155034845Y-121493619D02*
X154996749Y-121455523D01*
X154996749Y-121455523D02*
X155072940Y-121455523D01*
X155034845Y-120731714D02*
X155072940Y-120807905D01*
X155072940Y-120807905D02*
X155072940Y-120960286D01*
X155072940Y-120960286D02*
X155034845Y-121036476D01*
X155034845Y-121036476D02*
X154996749Y-121074571D01*
X154996749Y-121074571D02*
X154920559Y-121112667D01*
X154920559Y-121112667D02*
X154691987Y-121112667D01*
X154691987Y-121112667D02*
X154615797Y-121074571D01*
X154615797Y-121074571D02*
X154577702Y-121036476D01*
X154577702Y-121036476D02*
X154539606Y-120960286D01*
X154539606Y-120960286D02*
X154539606Y-120807905D01*
X154539606Y-120807905D02*
X154577702Y-120731714D01*
X155072940Y-120274572D02*
X155034845Y-120350762D01*
X155034845Y-120350762D02*
X154996749Y-120388857D01*
X154996749Y-120388857D02*
X154920559Y-120426953D01*
X154920559Y-120426953D02*
X154691987Y-120426953D01*
X154691987Y-120426953D02*
X154615797Y-120388857D01*
X154615797Y-120388857D02*
X154577702Y-120350762D01*
X154577702Y-120350762D02*
X154539606Y-120274572D01*
X154539606Y-120274572D02*
X154539606Y-120160286D01*
X154539606Y-120160286D02*
X154577702Y-120084095D01*
X154577702Y-120084095D02*
X154615797Y-120046000D01*
X154615797Y-120046000D02*
X154691987Y-120007905D01*
X154691987Y-120007905D02*
X154920559Y-120007905D01*
X154920559Y-120007905D02*
X154996749Y-120046000D01*
X154996749Y-120046000D02*
X155034845Y-120084095D01*
X155034845Y-120084095D02*
X155072940Y-120160286D01*
X155072940Y-120160286D02*
X155072940Y-120274572D01*
X155072940Y-119665047D02*
X154539606Y-119665047D01*
X154615797Y-119665047D02*
X154577702Y-119626952D01*
X154577702Y-119626952D02*
X154539606Y-119550762D01*
X154539606Y-119550762D02*
X154539606Y-119436476D01*
X154539606Y-119436476D02*
X154577702Y-119360285D01*
X154577702Y-119360285D02*
X154653892Y-119322190D01*
X154653892Y-119322190D02*
X155072940Y-119322190D01*
X154653892Y-119322190D02*
X154577702Y-119284095D01*
X154577702Y-119284095D02*
X154539606Y-119207904D01*
X154539606Y-119207904D02*
X154539606Y-119093619D01*
X154539606Y-119093619D02*
X154577702Y-119017428D01*
X154577702Y-119017428D02*
X154653892Y-118979333D01*
X154653892Y-118979333D02*
X155072940Y-118979333D01*
X154234845Y-118026952D02*
X155263416Y-118712666D01*
X154539606Y-117874571D02*
X154539606Y-117569809D01*
X154272940Y-117760285D02*
X154958654Y-117760285D01*
X154958654Y-117760285D02*
X155034845Y-117722190D01*
X155034845Y-117722190D02*
X155072940Y-117646000D01*
X155072940Y-117646000D02*
X155072940Y-117569809D01*
X155072940Y-117303142D02*
X154272940Y-117303142D01*
X155072940Y-116960285D02*
X154653892Y-116960285D01*
X154653892Y-116960285D02*
X154577702Y-116998380D01*
X154577702Y-116998380D02*
X154539606Y-117074571D01*
X154539606Y-117074571D02*
X154539606Y-117188857D01*
X154539606Y-117188857D02*
X154577702Y-117265047D01*
X154577702Y-117265047D02*
X154615797Y-117303142D01*
X155034845Y-116274570D02*
X155072940Y-116350761D01*
X155072940Y-116350761D02*
X155072940Y-116503142D01*
X155072940Y-116503142D02*
X155034845Y-116579332D01*
X155034845Y-116579332D02*
X154958654Y-116617428D01*
X154958654Y-116617428D02*
X154653892Y-116617428D01*
X154653892Y-116617428D02*
X154577702Y-116579332D01*
X154577702Y-116579332D02*
X154539606Y-116503142D01*
X154539606Y-116503142D02*
X154539606Y-116350761D01*
X154539606Y-116350761D02*
X154577702Y-116274570D01*
X154577702Y-116274570D02*
X154653892Y-116236475D01*
X154653892Y-116236475D02*
X154730083Y-116236475D01*
X154730083Y-116236475D02*
X154806273Y-116617428D01*
X154539606Y-115969809D02*
X155072940Y-115817428D01*
X155072940Y-115817428D02*
X154691987Y-115665047D01*
X154691987Y-115665047D02*
X155072940Y-115512666D01*
X155072940Y-115512666D02*
X154539606Y-115360285D01*
X155072940Y-114941238D02*
X155034845Y-115017428D01*
X155034845Y-115017428D02*
X154996749Y-115055523D01*
X154996749Y-115055523D02*
X154920559Y-115093619D01*
X154920559Y-115093619D02*
X154691987Y-115093619D01*
X154691987Y-115093619D02*
X154615797Y-115055523D01*
X154615797Y-115055523D02*
X154577702Y-115017428D01*
X154577702Y-115017428D02*
X154539606Y-114941238D01*
X154539606Y-114941238D02*
X154539606Y-114826952D01*
X154539606Y-114826952D02*
X154577702Y-114750761D01*
X154577702Y-114750761D02*
X154615797Y-114712666D01*
X154615797Y-114712666D02*
X154691987Y-114674571D01*
X154691987Y-114674571D02*
X154920559Y-114674571D01*
X154920559Y-114674571D02*
X154996749Y-114712666D01*
X154996749Y-114712666D02*
X155034845Y-114750761D01*
X155034845Y-114750761D02*
X155072940Y-114826952D01*
X155072940Y-114826952D02*
X155072940Y-114941238D01*
X155072940Y-114331713D02*
X154539606Y-114331713D01*
X154691987Y-114331713D02*
X154615797Y-114293618D01*
X154615797Y-114293618D02*
X154577702Y-114255523D01*
X154577702Y-114255523D02*
X154539606Y-114179332D01*
X154539606Y-114179332D02*
X154539606Y-114103142D01*
X155072940Y-113836475D02*
X154272940Y-113836475D01*
X154768178Y-113760285D02*
X155072940Y-113531713D01*
X154539606Y-113531713D02*
X154844368Y-113836475D01*
X155072940Y-113188856D02*
X154539606Y-113188856D01*
X154272940Y-113188856D02*
X154311035Y-113226952D01*
X154311035Y-113226952D02*
X154349130Y-113188856D01*
X154349130Y-113188856D02*
X154311035Y-113150761D01*
X154311035Y-113150761D02*
X154272940Y-113188856D01*
X154272940Y-113188856D02*
X154349130Y-113188856D01*
X155034845Y-112846000D02*
X155072940Y-112769809D01*
X155072940Y-112769809D02*
X155072940Y-112617428D01*
X155072940Y-112617428D02*
X155034845Y-112541238D01*
X155034845Y-112541238D02*
X154958654Y-112503142D01*
X154958654Y-112503142D02*
X154920559Y-112503142D01*
X154920559Y-112503142D02*
X154844368Y-112541238D01*
X154844368Y-112541238D02*
X154806273Y-112617428D01*
X154806273Y-112617428D02*
X154806273Y-112731714D01*
X154806273Y-112731714D02*
X154768178Y-112807904D01*
X154768178Y-112807904D02*
X154691987Y-112846000D01*
X154691987Y-112846000D02*
X154653892Y-112846000D01*
X154653892Y-112846000D02*
X154577702Y-112807904D01*
X154577702Y-112807904D02*
X154539606Y-112731714D01*
X154539606Y-112731714D02*
X154539606Y-112617428D01*
X154539606Y-112617428D02*
X154577702Y-112541238D01*
X154539606Y-112274571D02*
X154539606Y-111969809D01*
X154272940Y-112160285D02*
X154958654Y-112160285D01*
X154958654Y-112160285D02*
X155034845Y-112122190D01*
X155034845Y-112122190D02*
X155072940Y-112046000D01*
X155072940Y-112046000D02*
X155072940Y-111969809D01*
X155072940Y-111703142D02*
X154272940Y-111703142D01*
X155072940Y-111360285D02*
X154653892Y-111360285D01*
X154653892Y-111360285D02*
X154577702Y-111398380D01*
X154577702Y-111398380D02*
X154539606Y-111474571D01*
X154539606Y-111474571D02*
X154539606Y-111588857D01*
X154539606Y-111588857D02*
X154577702Y-111665047D01*
X154577702Y-111665047D02*
X154615797Y-111703142D01*
X155034845Y-110674570D02*
X155072940Y-110750761D01*
X155072940Y-110750761D02*
X155072940Y-110903142D01*
X155072940Y-110903142D02*
X155034845Y-110979332D01*
X155034845Y-110979332D02*
X154958654Y-111017428D01*
X154958654Y-111017428D02*
X154653892Y-111017428D01*
X154653892Y-111017428D02*
X154577702Y-110979332D01*
X154577702Y-110979332D02*
X154539606Y-110903142D01*
X154539606Y-110903142D02*
X154539606Y-110750761D01*
X154539606Y-110750761D02*
X154577702Y-110674570D01*
X154577702Y-110674570D02*
X154653892Y-110636475D01*
X154653892Y-110636475D02*
X154730083Y-110636475D01*
X154730083Y-110636475D02*
X154806273Y-111017428D01*
X154539606Y-110369809D02*
X155072940Y-110217428D01*
X155072940Y-110217428D02*
X154691987Y-110065047D01*
X154691987Y-110065047D02*
X155072940Y-109912666D01*
X155072940Y-109912666D02*
X154539606Y-109760285D01*
X155072940Y-109341238D02*
X155034845Y-109417428D01*
X155034845Y-109417428D02*
X154996749Y-109455523D01*
X154996749Y-109455523D02*
X154920559Y-109493619D01*
X154920559Y-109493619D02*
X154691987Y-109493619D01*
X154691987Y-109493619D02*
X154615797Y-109455523D01*
X154615797Y-109455523D02*
X154577702Y-109417428D01*
X154577702Y-109417428D02*
X154539606Y-109341238D01*
X154539606Y-109341238D02*
X154539606Y-109226952D01*
X154539606Y-109226952D02*
X154577702Y-109150761D01*
X154577702Y-109150761D02*
X154615797Y-109112666D01*
X154615797Y-109112666D02*
X154691987Y-109074571D01*
X154691987Y-109074571D02*
X154920559Y-109074571D01*
X154920559Y-109074571D02*
X154996749Y-109112666D01*
X154996749Y-109112666D02*
X155034845Y-109150761D01*
X155034845Y-109150761D02*
X155072940Y-109226952D01*
X155072940Y-109226952D02*
X155072940Y-109341238D01*
X155072940Y-108731713D02*
X154539606Y-108731713D01*
X154691987Y-108731713D02*
X154615797Y-108693618D01*
X154615797Y-108693618D02*
X154577702Y-108655523D01*
X154577702Y-108655523D02*
X154539606Y-108579332D01*
X154539606Y-108579332D02*
X154539606Y-108503142D01*
X155072940Y-108236475D02*
X154272940Y-108236475D01*
X154768178Y-108160285D02*
X155072940Y-107931713D01*
X154539606Y-107931713D02*
X154844368Y-108236475D01*
X154234845Y-107017428D02*
X155263416Y-107703142D01*
X154539606Y-106826952D02*
X154539606Y-106407904D01*
X154539606Y-106407904D02*
X155072940Y-106826952D01*
X155072940Y-106826952D02*
X155072940Y-106407904D01*
X154768178Y-106103142D02*
X154768178Y-105493619D01*
X155072940Y-104769809D02*
X154653892Y-104769809D01*
X154653892Y-104769809D02*
X154577702Y-104807904D01*
X154577702Y-104807904D02*
X154539606Y-104884095D01*
X154539606Y-104884095D02*
X154539606Y-105036476D01*
X154539606Y-105036476D02*
X154577702Y-105112666D01*
X155034845Y-104769809D02*
X155072940Y-104846000D01*
X155072940Y-104846000D02*
X155072940Y-105036476D01*
X155072940Y-105036476D02*
X155034845Y-105112666D01*
X155034845Y-105112666D02*
X154958654Y-105150762D01*
X154958654Y-105150762D02*
X154882464Y-105150762D01*
X154882464Y-105150762D02*
X154806273Y-105112666D01*
X154806273Y-105112666D02*
X154768178Y-105036476D01*
X154768178Y-105036476D02*
X154768178Y-104846000D01*
X154768178Y-104846000D02*
X154730083Y-104769809D01*
X155072940Y-104465047D02*
X154539606Y-104045999D01*
X154539606Y-104465047D02*
X155072940Y-104045999D01*
X155072940Y-103741237D02*
X154539606Y-103741237D01*
X154272940Y-103741237D02*
X154311035Y-103779333D01*
X154311035Y-103779333D02*
X154349130Y-103741237D01*
X154349130Y-103741237D02*
X154311035Y-103703142D01*
X154311035Y-103703142D02*
X154272940Y-103741237D01*
X154272940Y-103741237D02*
X154349130Y-103741237D01*
X155034845Y-103398381D02*
X155072940Y-103322190D01*
X155072940Y-103322190D02*
X155072940Y-103169809D01*
X155072940Y-103169809D02*
X155034845Y-103093619D01*
X155034845Y-103093619D02*
X154958654Y-103055523D01*
X154958654Y-103055523D02*
X154920559Y-103055523D01*
X154920559Y-103055523D02*
X154844368Y-103093619D01*
X154844368Y-103093619D02*
X154806273Y-103169809D01*
X154806273Y-103169809D02*
X154806273Y-103284095D01*
X154806273Y-103284095D02*
X154768178Y-103360285D01*
X154768178Y-103360285D02*
X154691987Y-103398381D01*
X154691987Y-103398381D02*
X154653892Y-103398381D01*
X154653892Y-103398381D02*
X154577702Y-103360285D01*
X154577702Y-103360285D02*
X154539606Y-103284095D01*
X154539606Y-103284095D02*
X154539606Y-103169809D01*
X154539606Y-103169809D02*
X154577702Y-103093619D01*
X154768178Y-102712666D02*
X154768178Y-102103143D01*
X155072940Y-101379333D02*
X154653892Y-101379333D01*
X154653892Y-101379333D02*
X154577702Y-101417428D01*
X154577702Y-101417428D02*
X154539606Y-101493619D01*
X154539606Y-101493619D02*
X154539606Y-101646000D01*
X154539606Y-101646000D02*
X154577702Y-101722190D01*
X155034845Y-101379333D02*
X155072940Y-101455524D01*
X155072940Y-101455524D02*
X155072940Y-101646000D01*
X155072940Y-101646000D02*
X155034845Y-101722190D01*
X155034845Y-101722190D02*
X154958654Y-101760286D01*
X154958654Y-101760286D02*
X154882464Y-101760286D01*
X154882464Y-101760286D02*
X154806273Y-101722190D01*
X154806273Y-101722190D02*
X154768178Y-101646000D01*
X154768178Y-101646000D02*
X154768178Y-101455524D01*
X154768178Y-101455524D02*
X154730083Y-101379333D01*
X155072940Y-100655523D02*
X154272940Y-100655523D01*
X155034845Y-100655523D02*
X155072940Y-100731714D01*
X155072940Y-100731714D02*
X155072940Y-100884095D01*
X155072940Y-100884095D02*
X155034845Y-100960285D01*
X155034845Y-100960285D02*
X154996749Y-100998380D01*
X154996749Y-100998380D02*
X154920559Y-101036476D01*
X154920559Y-101036476D02*
X154691987Y-101036476D01*
X154691987Y-101036476D02*
X154615797Y-100998380D01*
X154615797Y-100998380D02*
X154577702Y-100960285D01*
X154577702Y-100960285D02*
X154539606Y-100884095D01*
X154539606Y-100884095D02*
X154539606Y-100731714D01*
X154539606Y-100731714D02*
X154577702Y-100655523D01*
X155072940Y-99931713D02*
X154272940Y-99931713D01*
X155034845Y-99931713D02*
X155072940Y-100007904D01*
X155072940Y-100007904D02*
X155072940Y-100160285D01*
X155072940Y-100160285D02*
X155034845Y-100236475D01*
X155034845Y-100236475D02*
X154996749Y-100274570D01*
X154996749Y-100274570D02*
X154920559Y-100312666D01*
X154920559Y-100312666D02*
X154691987Y-100312666D01*
X154691987Y-100312666D02*
X154615797Y-100274570D01*
X154615797Y-100274570D02*
X154577702Y-100236475D01*
X154577702Y-100236475D02*
X154539606Y-100160285D01*
X154539606Y-100160285D02*
X154539606Y-100007904D01*
X154539606Y-100007904D02*
X154577702Y-99931713D01*
X155072940Y-99436475D02*
X155034845Y-99512665D01*
X155034845Y-99512665D02*
X154996749Y-99550760D01*
X154996749Y-99550760D02*
X154920559Y-99588856D01*
X154920559Y-99588856D02*
X154691987Y-99588856D01*
X154691987Y-99588856D02*
X154615797Y-99550760D01*
X154615797Y-99550760D02*
X154577702Y-99512665D01*
X154577702Y-99512665D02*
X154539606Y-99436475D01*
X154539606Y-99436475D02*
X154539606Y-99322189D01*
X154539606Y-99322189D02*
X154577702Y-99245998D01*
X154577702Y-99245998D02*
X154615797Y-99207903D01*
X154615797Y-99207903D02*
X154691987Y-99169808D01*
X154691987Y-99169808D02*
X154920559Y-99169808D01*
X154920559Y-99169808D02*
X154996749Y-99207903D01*
X154996749Y-99207903D02*
X155034845Y-99245998D01*
X155034845Y-99245998D02*
X155072940Y-99322189D01*
X155072940Y-99322189D02*
X155072940Y-99436475D01*
X154539606Y-98826950D02*
X155072940Y-98826950D01*
X154615797Y-98826950D02*
X154577702Y-98788855D01*
X154577702Y-98788855D02*
X154539606Y-98712665D01*
X154539606Y-98712665D02*
X154539606Y-98598379D01*
X154539606Y-98598379D02*
X154577702Y-98522188D01*
X154577702Y-98522188D02*
X154653892Y-98484093D01*
X154653892Y-98484093D02*
X155072940Y-98484093D01*
X156360895Y-119188856D02*
X155560895Y-119188856D01*
X155560895Y-119188856D02*
X156132323Y-118922190D01*
X156132323Y-118922190D02*
X155560895Y-118655523D01*
X155560895Y-118655523D02*
X156360895Y-118655523D01*
X156360895Y-118274570D02*
X155560895Y-118274570D01*
X155560895Y-118007904D02*
X155560895Y-117550761D01*
X156360895Y-117779333D02*
X155560895Y-117779333D01*
X156360895Y-116293618D02*
X156360895Y-116674570D01*
X156360895Y-116674570D02*
X155560895Y-116674570D01*
X156360895Y-116026951D02*
X155827561Y-116026951D01*
X155560895Y-116026951D02*
X155598990Y-116065047D01*
X155598990Y-116065047D02*
X155637085Y-116026951D01*
X155637085Y-116026951D02*
X155598990Y-115988856D01*
X155598990Y-115988856D02*
X155560895Y-116026951D01*
X155560895Y-116026951D02*
X155637085Y-116026951D01*
X156322800Y-115303142D02*
X156360895Y-115379333D01*
X156360895Y-115379333D02*
X156360895Y-115531714D01*
X156360895Y-115531714D02*
X156322800Y-115607904D01*
X156322800Y-115607904D02*
X156284704Y-115645999D01*
X156284704Y-115645999D02*
X156208514Y-115684095D01*
X156208514Y-115684095D02*
X155979942Y-115684095D01*
X155979942Y-115684095D02*
X155903752Y-115645999D01*
X155903752Y-115645999D02*
X155865657Y-115607904D01*
X155865657Y-115607904D02*
X155827561Y-115531714D01*
X155827561Y-115531714D02*
X155827561Y-115379333D01*
X155827561Y-115379333D02*
X155865657Y-115303142D01*
X156322800Y-114655523D02*
X156360895Y-114731714D01*
X156360895Y-114731714D02*
X156360895Y-114884095D01*
X156360895Y-114884095D02*
X156322800Y-114960285D01*
X156322800Y-114960285D02*
X156246609Y-114998381D01*
X156246609Y-114998381D02*
X155941847Y-114998381D01*
X155941847Y-114998381D02*
X155865657Y-114960285D01*
X155865657Y-114960285D02*
X155827561Y-114884095D01*
X155827561Y-114884095D02*
X155827561Y-114731714D01*
X155827561Y-114731714D02*
X155865657Y-114655523D01*
X155865657Y-114655523D02*
X155941847Y-114617428D01*
X155941847Y-114617428D02*
X156018038Y-114617428D01*
X156018038Y-114617428D02*
X156094228Y-114998381D01*
X155827561Y-114274571D02*
X156360895Y-114274571D01*
X155903752Y-114274571D02*
X155865657Y-114236476D01*
X155865657Y-114236476D02*
X155827561Y-114160286D01*
X155827561Y-114160286D02*
X155827561Y-114046000D01*
X155827561Y-114046000D02*
X155865657Y-113969809D01*
X155865657Y-113969809D02*
X155941847Y-113931714D01*
X155941847Y-113931714D02*
X156360895Y-113931714D01*
X156322800Y-113207904D02*
X156360895Y-113284095D01*
X156360895Y-113284095D02*
X156360895Y-113436476D01*
X156360895Y-113436476D02*
X156322800Y-113512666D01*
X156322800Y-113512666D02*
X156284704Y-113550761D01*
X156284704Y-113550761D02*
X156208514Y-113588857D01*
X156208514Y-113588857D02*
X155979942Y-113588857D01*
X155979942Y-113588857D02*
X155903752Y-113550761D01*
X155903752Y-113550761D02*
X155865657Y-113512666D01*
X155865657Y-113512666D02*
X155827561Y-113436476D01*
X155827561Y-113436476D02*
X155827561Y-113284095D01*
X155827561Y-113284095D02*
X155865657Y-113207904D01*
X156322800Y-112560285D02*
X156360895Y-112636476D01*
X156360895Y-112636476D02*
X156360895Y-112788857D01*
X156360895Y-112788857D02*
X156322800Y-112865047D01*
X156322800Y-112865047D02*
X156246609Y-112903143D01*
X156246609Y-112903143D02*
X155941847Y-112903143D01*
X155941847Y-112903143D02*
X155865657Y-112865047D01*
X155865657Y-112865047D02*
X155827561Y-112788857D01*
X155827561Y-112788857D02*
X155827561Y-112636476D01*
X155827561Y-112636476D02*
X155865657Y-112560285D01*
X155865657Y-112560285D02*
X155941847Y-112522190D01*
X155941847Y-112522190D02*
X156018038Y-112522190D01*
X156018038Y-112522190D02*
X156094228Y-112903143D01*
X155637085Y-111607905D02*
X155598990Y-111569809D01*
X155598990Y-111569809D02*
X155560895Y-111493619D01*
X155560895Y-111493619D02*
X155560895Y-111303143D01*
X155560895Y-111303143D02*
X155598990Y-111226952D01*
X155598990Y-111226952D02*
X155637085Y-111188857D01*
X155637085Y-111188857D02*
X155713276Y-111150762D01*
X155713276Y-111150762D02*
X155789466Y-111150762D01*
X155789466Y-111150762D02*
X155903752Y-111188857D01*
X155903752Y-111188857D02*
X156360895Y-111646000D01*
X156360895Y-111646000D02*
X156360895Y-111150762D01*
X155560895Y-110655523D02*
X155560895Y-110579333D01*
X155560895Y-110579333D02*
X155598990Y-110503142D01*
X155598990Y-110503142D02*
X155637085Y-110465047D01*
X155637085Y-110465047D02*
X155713276Y-110426952D01*
X155713276Y-110426952D02*
X155865657Y-110388857D01*
X155865657Y-110388857D02*
X156056133Y-110388857D01*
X156056133Y-110388857D02*
X156208514Y-110426952D01*
X156208514Y-110426952D02*
X156284704Y-110465047D01*
X156284704Y-110465047D02*
X156322800Y-110503142D01*
X156322800Y-110503142D02*
X156360895Y-110579333D01*
X156360895Y-110579333D02*
X156360895Y-110655523D01*
X156360895Y-110655523D02*
X156322800Y-110731714D01*
X156322800Y-110731714D02*
X156284704Y-110769809D01*
X156284704Y-110769809D02*
X156208514Y-110807904D01*
X156208514Y-110807904D02*
X156056133Y-110846000D01*
X156056133Y-110846000D02*
X155865657Y-110846000D01*
X155865657Y-110846000D02*
X155713276Y-110807904D01*
X155713276Y-110807904D02*
X155637085Y-110769809D01*
X155637085Y-110769809D02*
X155598990Y-110731714D01*
X155598990Y-110731714D02*
X155560895Y-110655523D01*
X155637085Y-110084095D02*
X155598990Y-110045999D01*
X155598990Y-110045999D02*
X155560895Y-109969809D01*
X155560895Y-109969809D02*
X155560895Y-109779333D01*
X155560895Y-109779333D02*
X155598990Y-109703142D01*
X155598990Y-109703142D02*
X155637085Y-109665047D01*
X155637085Y-109665047D02*
X155713276Y-109626952D01*
X155713276Y-109626952D02*
X155789466Y-109626952D01*
X155789466Y-109626952D02*
X155903752Y-109665047D01*
X155903752Y-109665047D02*
X156360895Y-110122190D01*
X156360895Y-110122190D02*
X156360895Y-109626952D01*
X155560895Y-108941237D02*
X155560895Y-109093618D01*
X155560895Y-109093618D02*
X155598990Y-109169809D01*
X155598990Y-109169809D02*
X155637085Y-109207904D01*
X155637085Y-109207904D02*
X155751371Y-109284094D01*
X155751371Y-109284094D02*
X155903752Y-109322190D01*
X155903752Y-109322190D02*
X156208514Y-109322190D01*
X156208514Y-109322190D02*
X156284704Y-109284094D01*
X156284704Y-109284094D02*
X156322800Y-109245999D01*
X156322800Y-109245999D02*
X156360895Y-109169809D01*
X156360895Y-109169809D02*
X156360895Y-109017428D01*
X156360895Y-109017428D02*
X156322800Y-108941237D01*
X156322800Y-108941237D02*
X156284704Y-108903142D01*
X156284704Y-108903142D02*
X156208514Y-108865047D01*
X156208514Y-108865047D02*
X156018038Y-108865047D01*
X156018038Y-108865047D02*
X155941847Y-108903142D01*
X155941847Y-108903142D02*
X155903752Y-108941237D01*
X155903752Y-108941237D02*
X155865657Y-109017428D01*
X155865657Y-109017428D02*
X155865657Y-109169809D01*
X155865657Y-109169809D02*
X155903752Y-109245999D01*
X155903752Y-109245999D02*
X155941847Y-109284094D01*
X155941847Y-109284094D02*
X156018038Y-109322190D01*
X216845475Y-133903353D02*
X216845475Y-133236687D01*
X216845475Y-133236687D02*
X217845475Y-133903353D01*
X217845475Y-133903353D02*
X217845475Y-133236687D01*
X217464522Y-132855734D02*
X217464522Y-132093830D01*
X217559760Y-131665258D02*
X217559760Y-131189068D01*
X217845475Y-131760496D02*
X216845475Y-131427163D01*
X216845475Y-131427163D02*
X217845475Y-131093830D01*
X217845475Y-130855734D02*
X217178808Y-130331925D01*
X217178808Y-130855734D02*
X217845475Y-130331925D01*
X217845475Y-129950972D02*
X217178808Y-129950972D01*
X216845475Y-129950972D02*
X216893094Y-129998591D01*
X216893094Y-129998591D02*
X216940713Y-129950972D01*
X216940713Y-129950972D02*
X216893094Y-129903353D01*
X216893094Y-129903353D02*
X216845475Y-129950972D01*
X216845475Y-129950972D02*
X216940713Y-129950972D01*
X217797856Y-129522401D02*
X217845475Y-129427163D01*
X217845475Y-129427163D02*
X217845475Y-129236687D01*
X217845475Y-129236687D02*
X217797856Y-129141449D01*
X217797856Y-129141449D02*
X217702617Y-129093830D01*
X217702617Y-129093830D02*
X217654998Y-129093830D01*
X217654998Y-129093830D02*
X217559760Y-129141449D01*
X217559760Y-129141449D02*
X217512141Y-129236687D01*
X217512141Y-129236687D02*
X217512141Y-129379544D01*
X217512141Y-129379544D02*
X217464522Y-129474782D01*
X217464522Y-129474782D02*
X217369284Y-129522401D01*
X217369284Y-129522401D02*
X217321665Y-129522401D01*
X217321665Y-129522401D02*
X217226427Y-129474782D01*
X217226427Y-129474782D02*
X217178808Y-129379544D01*
X217178808Y-129379544D02*
X217178808Y-129236687D01*
X217178808Y-129236687D02*
X217226427Y-129141449D01*
X217797856Y-127950972D02*
X217845475Y-127808115D01*
X217845475Y-127808115D02*
X217845475Y-127570020D01*
X217845475Y-127570020D02*
X217797856Y-127474782D01*
X217797856Y-127474782D02*
X217750236Y-127427163D01*
X217750236Y-127427163D02*
X217654998Y-127379544D01*
X217654998Y-127379544D02*
X217559760Y-127379544D01*
X217559760Y-127379544D02*
X217464522Y-127427163D01*
X217464522Y-127427163D02*
X217416903Y-127474782D01*
X217416903Y-127474782D02*
X217369284Y-127570020D01*
X217369284Y-127570020D02*
X217321665Y-127760496D01*
X217321665Y-127760496D02*
X217274046Y-127855734D01*
X217274046Y-127855734D02*
X217226427Y-127903353D01*
X217226427Y-127903353D02*
X217131189Y-127950972D01*
X217131189Y-127950972D02*
X217035951Y-127950972D01*
X217035951Y-127950972D02*
X216940713Y-127903353D01*
X216940713Y-127903353D02*
X216893094Y-127855734D01*
X216893094Y-127855734D02*
X216845475Y-127760496D01*
X216845475Y-127760496D02*
X216845475Y-127522401D01*
X216845475Y-127522401D02*
X216893094Y-127379544D01*
X217178808Y-127093829D02*
X217178808Y-126712877D01*
X216845475Y-126950972D02*
X217702617Y-126950972D01*
X217702617Y-126950972D02*
X217797856Y-126903353D01*
X217797856Y-126903353D02*
X217845475Y-126808115D01*
X217845475Y-126808115D02*
X217845475Y-126712877D01*
X217797856Y-125998591D02*
X217845475Y-126093829D01*
X217845475Y-126093829D02*
X217845475Y-126284305D01*
X217845475Y-126284305D02*
X217797856Y-126379543D01*
X217797856Y-126379543D02*
X217702617Y-126427162D01*
X217702617Y-126427162D02*
X217321665Y-126427162D01*
X217321665Y-126427162D02*
X217226427Y-126379543D01*
X217226427Y-126379543D02*
X217178808Y-126284305D01*
X217178808Y-126284305D02*
X217178808Y-126093829D01*
X217178808Y-126093829D02*
X217226427Y-125998591D01*
X217226427Y-125998591D02*
X217321665Y-125950972D01*
X217321665Y-125950972D02*
X217416903Y-125950972D01*
X217416903Y-125950972D02*
X217512141Y-126427162D01*
X217178808Y-125522400D02*
X218178808Y-125522400D01*
X217226427Y-125522400D02*
X217178808Y-125427162D01*
X217178808Y-125427162D02*
X217178808Y-125236686D01*
X217178808Y-125236686D02*
X217226427Y-125141448D01*
X217226427Y-125141448D02*
X217274046Y-125093829D01*
X217274046Y-125093829D02*
X217369284Y-125046210D01*
X217369284Y-125046210D02*
X217654998Y-125046210D01*
X217654998Y-125046210D02*
X217750236Y-125093829D01*
X217750236Y-125093829D02*
X217797856Y-125141448D01*
X217797856Y-125141448D02*
X217845475Y-125236686D01*
X217845475Y-125236686D02*
X217845475Y-125427162D01*
X217845475Y-125427162D02*
X217797856Y-125522400D01*
X217178808Y-124617638D02*
X218178808Y-124617638D01*
X217226427Y-124617638D02*
X217178808Y-124522400D01*
X217178808Y-124522400D02*
X217178808Y-124331924D01*
X217178808Y-124331924D02*
X217226427Y-124236686D01*
X217226427Y-124236686D02*
X217274046Y-124189067D01*
X217274046Y-124189067D02*
X217369284Y-124141448D01*
X217369284Y-124141448D02*
X217654998Y-124141448D01*
X217654998Y-124141448D02*
X217750236Y-124189067D01*
X217750236Y-124189067D02*
X217797856Y-124236686D01*
X217797856Y-124236686D02*
X217845475Y-124331924D01*
X217845475Y-124331924D02*
X217845475Y-124522400D01*
X217845475Y-124522400D02*
X217797856Y-124617638D01*
X217797856Y-123331924D02*
X217845475Y-123427162D01*
X217845475Y-123427162D02*
X217845475Y-123617638D01*
X217845475Y-123617638D02*
X217797856Y-123712876D01*
X217797856Y-123712876D02*
X217702617Y-123760495D01*
X217702617Y-123760495D02*
X217321665Y-123760495D01*
X217321665Y-123760495D02*
X217226427Y-123712876D01*
X217226427Y-123712876D02*
X217178808Y-123617638D01*
X217178808Y-123617638D02*
X217178808Y-123427162D01*
X217178808Y-123427162D02*
X217226427Y-123331924D01*
X217226427Y-123331924D02*
X217321665Y-123284305D01*
X217321665Y-123284305D02*
X217416903Y-123284305D01*
X217416903Y-123284305D02*
X217512141Y-123760495D01*
X217845475Y-122855733D02*
X217178808Y-122855733D01*
X217369284Y-122855733D02*
X217274046Y-122808114D01*
X217274046Y-122808114D02*
X217226427Y-122760495D01*
X217226427Y-122760495D02*
X217178808Y-122665257D01*
X217178808Y-122665257D02*
X217178808Y-122570019D01*
X217559760Y-121522399D02*
X217559760Y-121046209D01*
X217845475Y-121617637D02*
X216845475Y-121284304D01*
X216845475Y-121284304D02*
X217845475Y-120950971D01*
X217845475Y-120189066D02*
X216845475Y-120189066D01*
X217797856Y-120189066D02*
X217845475Y-120284304D01*
X217845475Y-120284304D02*
X217845475Y-120474780D01*
X217845475Y-120474780D02*
X217797856Y-120570018D01*
X217797856Y-120570018D02*
X217750236Y-120617637D01*
X217750236Y-120617637D02*
X217654998Y-120665256D01*
X217654998Y-120665256D02*
X217369284Y-120665256D01*
X217369284Y-120665256D02*
X217274046Y-120617637D01*
X217274046Y-120617637D02*
X217226427Y-120570018D01*
X217226427Y-120570018D02*
X217178808Y-120474780D01*
X217178808Y-120474780D02*
X217178808Y-120284304D01*
X217178808Y-120284304D02*
X217226427Y-120189066D01*
X217845475Y-119284304D02*
X216845475Y-119284304D01*
X217797856Y-119284304D02*
X217845475Y-119379542D01*
X217845475Y-119379542D02*
X217845475Y-119570018D01*
X217845475Y-119570018D02*
X217797856Y-119665256D01*
X217797856Y-119665256D02*
X217750236Y-119712875D01*
X217750236Y-119712875D02*
X217654998Y-119760494D01*
X217654998Y-119760494D02*
X217369284Y-119760494D01*
X217369284Y-119760494D02*
X217274046Y-119712875D01*
X217274046Y-119712875D02*
X217226427Y-119665256D01*
X217226427Y-119665256D02*
X217178808Y-119570018D01*
X217178808Y-119570018D02*
X217178808Y-119379542D01*
X217178808Y-119379542D02*
X217226427Y-119284304D01*
X217464522Y-118808113D02*
X217464522Y-118046209D01*
X217845475Y-117427161D02*
X217797856Y-117522399D01*
X217797856Y-117522399D02*
X217750236Y-117570018D01*
X217750236Y-117570018D02*
X217654998Y-117617637D01*
X217654998Y-117617637D02*
X217369284Y-117617637D01*
X217369284Y-117617637D02*
X217274046Y-117570018D01*
X217274046Y-117570018D02*
X217226427Y-117522399D01*
X217226427Y-117522399D02*
X217178808Y-117427161D01*
X217178808Y-117427161D02*
X217178808Y-117284304D01*
X217178808Y-117284304D02*
X217226427Y-117189066D01*
X217226427Y-117189066D02*
X217274046Y-117141447D01*
X217274046Y-117141447D02*
X217369284Y-117093828D01*
X217369284Y-117093828D02*
X217654998Y-117093828D01*
X217654998Y-117093828D02*
X217750236Y-117141447D01*
X217750236Y-117141447D02*
X217797856Y-117189066D01*
X217797856Y-117189066D02*
X217845475Y-117284304D01*
X217845475Y-117284304D02*
X217845475Y-117427161D01*
X217178808Y-116665256D02*
X217845475Y-116665256D01*
X217274046Y-116665256D02*
X217226427Y-116617637D01*
X217226427Y-116617637D02*
X217178808Y-116522399D01*
X217178808Y-116522399D02*
X217178808Y-116379542D01*
X217178808Y-116379542D02*
X217226427Y-116284304D01*
X217226427Y-116284304D02*
X217321665Y-116236685D01*
X217321665Y-116236685D02*
X217845475Y-116236685D01*
X217845475Y-114998589D02*
X217178808Y-114998589D01*
X217274046Y-114998589D02*
X217226427Y-114950970D01*
X217226427Y-114950970D02*
X217178808Y-114855732D01*
X217178808Y-114855732D02*
X217178808Y-114712875D01*
X217178808Y-114712875D02*
X217226427Y-114617637D01*
X217226427Y-114617637D02*
X217321665Y-114570018D01*
X217321665Y-114570018D02*
X217845475Y-114570018D01*
X217321665Y-114570018D02*
X217226427Y-114522399D01*
X217226427Y-114522399D02*
X217178808Y-114427161D01*
X217178808Y-114427161D02*
X217178808Y-114284304D01*
X217178808Y-114284304D02*
X217226427Y-114189065D01*
X217226427Y-114189065D02*
X217321665Y-114141446D01*
X217321665Y-114141446D02*
X217845475Y-114141446D01*
X217845475Y-113522399D02*
X217797856Y-113617637D01*
X217797856Y-113617637D02*
X217750236Y-113665256D01*
X217750236Y-113665256D02*
X217654998Y-113712875D01*
X217654998Y-113712875D02*
X217369284Y-113712875D01*
X217369284Y-113712875D02*
X217274046Y-113665256D01*
X217274046Y-113665256D02*
X217226427Y-113617637D01*
X217226427Y-113617637D02*
X217178808Y-113522399D01*
X217178808Y-113522399D02*
X217178808Y-113379542D01*
X217178808Y-113379542D02*
X217226427Y-113284304D01*
X217226427Y-113284304D02*
X217274046Y-113236685D01*
X217274046Y-113236685D02*
X217369284Y-113189066D01*
X217369284Y-113189066D02*
X217654998Y-113189066D01*
X217654998Y-113189066D02*
X217750236Y-113236685D01*
X217750236Y-113236685D02*
X217797856Y-113284304D01*
X217797856Y-113284304D02*
X217845475Y-113379542D01*
X217845475Y-113379542D02*
X217845475Y-113522399D01*
X217845475Y-112331923D02*
X216845475Y-112331923D01*
X217797856Y-112331923D02*
X217845475Y-112427161D01*
X217845475Y-112427161D02*
X217845475Y-112617637D01*
X217845475Y-112617637D02*
X217797856Y-112712875D01*
X217797856Y-112712875D02*
X217750236Y-112760494D01*
X217750236Y-112760494D02*
X217654998Y-112808113D01*
X217654998Y-112808113D02*
X217369284Y-112808113D01*
X217369284Y-112808113D02*
X217274046Y-112760494D01*
X217274046Y-112760494D02*
X217226427Y-112712875D01*
X217226427Y-112712875D02*
X217178808Y-112617637D01*
X217178808Y-112617637D02*
X217178808Y-112427161D01*
X217178808Y-112427161D02*
X217226427Y-112331923D01*
X217178808Y-111427161D02*
X217845475Y-111427161D01*
X217178808Y-111855732D02*
X217702617Y-111855732D01*
X217702617Y-111855732D02*
X217797856Y-111808113D01*
X217797856Y-111808113D02*
X217845475Y-111712875D01*
X217845475Y-111712875D02*
X217845475Y-111570018D01*
X217845475Y-111570018D02*
X217797856Y-111474780D01*
X217797856Y-111474780D02*
X217750236Y-111427161D01*
X217845475Y-110808113D02*
X217797856Y-110903351D01*
X217797856Y-110903351D02*
X217702617Y-110950970D01*
X217702617Y-110950970D02*
X216845475Y-110950970D01*
X217797856Y-110046208D02*
X217845475Y-110141446D01*
X217845475Y-110141446D02*
X217845475Y-110331922D01*
X217845475Y-110331922D02*
X217797856Y-110427160D01*
X217797856Y-110427160D02*
X217702617Y-110474779D01*
X217702617Y-110474779D02*
X217321665Y-110474779D01*
X217321665Y-110474779D02*
X217226427Y-110427160D01*
X217226427Y-110427160D02*
X217178808Y-110331922D01*
X217178808Y-110331922D02*
X217178808Y-110141446D01*
X217178808Y-110141446D02*
X217226427Y-110046208D01*
X217226427Y-110046208D02*
X217321665Y-109998589D01*
X217321665Y-109998589D02*
X217416903Y-109998589D01*
X217416903Y-109998589D02*
X217512141Y-110474779D01*
X217178808Y-108950969D02*
X217178808Y-108570017D01*
X217845475Y-108808112D02*
X216988332Y-108808112D01*
X216988332Y-108808112D02*
X216893094Y-108760493D01*
X216893094Y-108760493D02*
X216845475Y-108665255D01*
X216845475Y-108665255D02*
X216845475Y-108570017D01*
X217845475Y-108093826D02*
X217797856Y-108189064D01*
X217797856Y-108189064D02*
X217750236Y-108236683D01*
X217750236Y-108236683D02*
X217654998Y-108284302D01*
X217654998Y-108284302D02*
X217369284Y-108284302D01*
X217369284Y-108284302D02*
X217274046Y-108236683D01*
X217274046Y-108236683D02*
X217226427Y-108189064D01*
X217226427Y-108189064D02*
X217178808Y-108093826D01*
X217178808Y-108093826D02*
X217178808Y-107950969D01*
X217178808Y-107950969D02*
X217226427Y-107855731D01*
X217226427Y-107855731D02*
X217274046Y-107808112D01*
X217274046Y-107808112D02*
X217369284Y-107760493D01*
X217369284Y-107760493D02*
X217654998Y-107760493D01*
X217654998Y-107760493D02*
X217750236Y-107808112D01*
X217750236Y-107808112D02*
X217797856Y-107855731D01*
X217797856Y-107855731D02*
X217845475Y-107950969D01*
X217845475Y-107950969D02*
X217845475Y-108093826D01*
X217845475Y-107331921D02*
X217178808Y-107331921D01*
X217369284Y-107331921D02*
X217274046Y-107284302D01*
X217274046Y-107284302D02*
X217226427Y-107236683D01*
X217226427Y-107236683D02*
X217178808Y-107141445D01*
X217178808Y-107141445D02*
X217178808Y-107046207D01*
X217321665Y-105950968D02*
X217321665Y-105617635D01*
X217845475Y-105474778D02*
X217845475Y-105950968D01*
X217845475Y-105950968D02*
X216845475Y-105950968D01*
X216845475Y-105950968D02*
X216845475Y-105474778D01*
X217797856Y-105093825D02*
X217845475Y-104950968D01*
X217845475Y-104950968D02*
X217845475Y-104712873D01*
X217845475Y-104712873D02*
X217797856Y-104617635D01*
X217797856Y-104617635D02*
X217750236Y-104570016D01*
X217750236Y-104570016D02*
X217654998Y-104522397D01*
X217654998Y-104522397D02*
X217559760Y-104522397D01*
X217559760Y-104522397D02*
X217464522Y-104570016D01*
X217464522Y-104570016D02*
X217416903Y-104617635D01*
X217416903Y-104617635D02*
X217369284Y-104712873D01*
X217369284Y-104712873D02*
X217321665Y-104903349D01*
X217321665Y-104903349D02*
X217274046Y-104998587D01*
X217274046Y-104998587D02*
X217226427Y-105046206D01*
X217226427Y-105046206D02*
X217131189Y-105093825D01*
X217131189Y-105093825D02*
X217035951Y-105093825D01*
X217035951Y-105093825D02*
X216940713Y-105046206D01*
X216940713Y-105046206D02*
X216893094Y-104998587D01*
X216893094Y-104998587D02*
X216845475Y-104903349D01*
X216845475Y-104903349D02*
X216845475Y-104665254D01*
X216845475Y-104665254D02*
X216893094Y-104522397D01*
X217845475Y-104093825D02*
X216845475Y-104093825D01*
X216845475Y-104093825D02*
X216845475Y-103712873D01*
X216845475Y-103712873D02*
X216893094Y-103617635D01*
X216893094Y-103617635D02*
X216940713Y-103570016D01*
X216940713Y-103570016D02*
X217035951Y-103522397D01*
X217035951Y-103522397D02*
X217178808Y-103522397D01*
X217178808Y-103522397D02*
X217274046Y-103570016D01*
X217274046Y-103570016D02*
X217321665Y-103617635D01*
X217321665Y-103617635D02*
X217369284Y-103712873D01*
X217369284Y-103712873D02*
X217369284Y-104093825D01*
X216845475Y-103189063D02*
X216845475Y-102570016D01*
X216845475Y-102570016D02*
X217226427Y-102903349D01*
X217226427Y-102903349D02*
X217226427Y-102760492D01*
X217226427Y-102760492D02*
X217274046Y-102665254D01*
X217274046Y-102665254D02*
X217321665Y-102617635D01*
X217321665Y-102617635D02*
X217416903Y-102570016D01*
X217416903Y-102570016D02*
X217654998Y-102570016D01*
X217654998Y-102570016D02*
X217750236Y-102617635D01*
X217750236Y-102617635D02*
X217797856Y-102665254D01*
X217797856Y-102665254D02*
X217845475Y-102760492D01*
X217845475Y-102760492D02*
X217845475Y-103046206D01*
X217845475Y-103046206D02*
X217797856Y-103141444D01*
X217797856Y-103141444D02*
X217750236Y-103189063D01*
X216940713Y-102189063D02*
X216893094Y-102141444D01*
X216893094Y-102141444D02*
X216845475Y-102046206D01*
X216845475Y-102046206D02*
X216845475Y-101808111D01*
X216845475Y-101808111D02*
X216893094Y-101712873D01*
X216893094Y-101712873D02*
X216940713Y-101665254D01*
X216940713Y-101665254D02*
X217035951Y-101617635D01*
X217035951Y-101617635D02*
X217131189Y-101617635D01*
X217131189Y-101617635D02*
X217274046Y-101665254D01*
X217274046Y-101665254D02*
X217845475Y-102236682D01*
X217845475Y-102236682D02*
X217845475Y-101617635D01*
X219455419Y-133808115D02*
X218455419Y-133808115D01*
X218455419Y-133808115D02*
X218455419Y-133427163D01*
X218455419Y-133427163D02*
X218503038Y-133331925D01*
X218503038Y-133331925D02*
X218550657Y-133284306D01*
X218550657Y-133284306D02*
X218645895Y-133236687D01*
X218645895Y-133236687D02*
X218788752Y-133236687D01*
X218788752Y-133236687D02*
X218883990Y-133284306D01*
X218883990Y-133284306D02*
X218931609Y-133331925D01*
X218931609Y-133331925D02*
X218979228Y-133427163D01*
X218979228Y-133427163D02*
X218979228Y-133808115D01*
X219455419Y-132665258D02*
X219407800Y-132760496D01*
X219407800Y-132760496D02*
X219312561Y-132808115D01*
X219312561Y-132808115D02*
X218455419Y-132808115D01*
X219455419Y-132141448D02*
X219407800Y-132236686D01*
X219407800Y-132236686D02*
X219360180Y-132284305D01*
X219360180Y-132284305D02*
X219264942Y-132331924D01*
X219264942Y-132331924D02*
X218979228Y-132331924D01*
X218979228Y-132331924D02*
X218883990Y-132284305D01*
X218883990Y-132284305D02*
X218836371Y-132236686D01*
X218836371Y-132236686D02*
X218788752Y-132141448D01*
X218788752Y-132141448D02*
X218788752Y-131998591D01*
X218788752Y-131998591D02*
X218836371Y-131903353D01*
X218836371Y-131903353D02*
X218883990Y-131855734D01*
X218883990Y-131855734D02*
X218979228Y-131808115D01*
X218979228Y-131808115D02*
X219264942Y-131808115D01*
X219264942Y-131808115D02*
X219360180Y-131855734D01*
X219360180Y-131855734D02*
X219407800Y-131903353D01*
X219407800Y-131903353D02*
X219455419Y-131998591D01*
X219455419Y-131998591D02*
X219455419Y-132141448D01*
X218788752Y-131522400D02*
X218788752Y-131141448D01*
X218455419Y-131379543D02*
X219312561Y-131379543D01*
X219312561Y-131379543D02*
X219407800Y-131331924D01*
X219407800Y-131331924D02*
X219455419Y-131236686D01*
X219455419Y-131236686D02*
X219455419Y-131141448D01*
X218788752Y-130950971D02*
X218788752Y-130570019D01*
X218455419Y-130808114D02*
X219312561Y-130808114D01*
X219312561Y-130808114D02*
X219407800Y-130760495D01*
X219407800Y-130760495D02*
X219455419Y-130665257D01*
X219455419Y-130665257D02*
X219455419Y-130570019D01*
X219407800Y-129855733D02*
X219455419Y-129950971D01*
X219455419Y-129950971D02*
X219455419Y-130141447D01*
X219455419Y-130141447D02*
X219407800Y-130236685D01*
X219407800Y-130236685D02*
X219312561Y-130284304D01*
X219312561Y-130284304D02*
X218931609Y-130284304D01*
X218931609Y-130284304D02*
X218836371Y-130236685D01*
X218836371Y-130236685D02*
X218788752Y-130141447D01*
X218788752Y-130141447D02*
X218788752Y-129950971D01*
X218788752Y-129950971D02*
X218836371Y-129855733D01*
X218836371Y-129855733D02*
X218931609Y-129808114D01*
X218931609Y-129808114D02*
X219026847Y-129808114D01*
X219026847Y-129808114D02*
X219122085Y-130284304D01*
X219455419Y-129379542D02*
X218788752Y-129379542D01*
X218979228Y-129379542D02*
X218883990Y-129331923D01*
X218883990Y-129331923D02*
X218836371Y-129284304D01*
X218836371Y-129284304D02*
X218788752Y-129189066D01*
X218788752Y-129189066D02*
X218788752Y-129093828D01*
X219360180Y-127427161D02*
X219407800Y-127474780D01*
X219407800Y-127474780D02*
X219455419Y-127617637D01*
X219455419Y-127617637D02*
X219455419Y-127712875D01*
X219455419Y-127712875D02*
X219407800Y-127855732D01*
X219407800Y-127855732D02*
X219312561Y-127950970D01*
X219312561Y-127950970D02*
X219217323Y-127998589D01*
X219217323Y-127998589D02*
X219026847Y-128046208D01*
X219026847Y-128046208D02*
X218883990Y-128046208D01*
X218883990Y-128046208D02*
X218693514Y-127998589D01*
X218693514Y-127998589D02*
X218598276Y-127950970D01*
X218598276Y-127950970D02*
X218503038Y-127855732D01*
X218503038Y-127855732D02*
X218455419Y-127712875D01*
X218455419Y-127712875D02*
X218455419Y-127617637D01*
X218455419Y-127617637D02*
X218503038Y-127474780D01*
X218503038Y-127474780D02*
X218550657Y-127427161D01*
X219455419Y-126855732D02*
X219407800Y-126950970D01*
X219407800Y-126950970D02*
X219360180Y-126998589D01*
X219360180Y-126998589D02*
X219264942Y-127046208D01*
X219264942Y-127046208D02*
X218979228Y-127046208D01*
X218979228Y-127046208D02*
X218883990Y-126998589D01*
X218883990Y-126998589D02*
X218836371Y-126950970D01*
X218836371Y-126950970D02*
X218788752Y-126855732D01*
X218788752Y-126855732D02*
X218788752Y-126712875D01*
X218788752Y-126712875D02*
X218836371Y-126617637D01*
X218836371Y-126617637D02*
X218883990Y-126570018D01*
X218883990Y-126570018D02*
X218979228Y-126522399D01*
X218979228Y-126522399D02*
X219264942Y-126522399D01*
X219264942Y-126522399D02*
X219360180Y-126570018D01*
X219360180Y-126570018D02*
X219407800Y-126617637D01*
X219407800Y-126617637D02*
X219455419Y-126712875D01*
X219455419Y-126712875D02*
X219455419Y-126855732D01*
X218788752Y-126093827D02*
X219455419Y-126093827D01*
X218883990Y-126093827D02*
X218836371Y-126046208D01*
X218836371Y-126046208D02*
X218788752Y-125950970D01*
X218788752Y-125950970D02*
X218788752Y-125808113D01*
X218788752Y-125808113D02*
X218836371Y-125712875D01*
X218836371Y-125712875D02*
X218931609Y-125665256D01*
X218931609Y-125665256D02*
X219455419Y-125665256D01*
X218788752Y-125331922D02*
X218788752Y-124950970D01*
X218455419Y-125189065D02*
X219312561Y-125189065D01*
X219312561Y-125189065D02*
X219407800Y-125141446D01*
X219407800Y-125141446D02*
X219455419Y-125046208D01*
X219455419Y-125046208D02*
X219455419Y-124950970D01*
X219455419Y-124617636D02*
X218788752Y-124617636D01*
X218979228Y-124617636D02*
X218883990Y-124570017D01*
X218883990Y-124570017D02*
X218836371Y-124522398D01*
X218836371Y-124522398D02*
X218788752Y-124427160D01*
X218788752Y-124427160D02*
X218788752Y-124331922D01*
X219455419Y-123855731D02*
X219407800Y-123950969D01*
X219407800Y-123950969D02*
X219360180Y-123998588D01*
X219360180Y-123998588D02*
X219264942Y-124046207D01*
X219264942Y-124046207D02*
X218979228Y-124046207D01*
X218979228Y-124046207D02*
X218883990Y-123998588D01*
X218883990Y-123998588D02*
X218836371Y-123950969D01*
X218836371Y-123950969D02*
X218788752Y-123855731D01*
X218788752Y-123855731D02*
X218788752Y-123712874D01*
X218788752Y-123712874D02*
X218836371Y-123617636D01*
X218836371Y-123617636D02*
X218883990Y-123570017D01*
X218883990Y-123570017D02*
X218979228Y-123522398D01*
X218979228Y-123522398D02*
X219264942Y-123522398D01*
X219264942Y-123522398D02*
X219360180Y-123570017D01*
X219360180Y-123570017D02*
X219407800Y-123617636D01*
X219407800Y-123617636D02*
X219455419Y-123712874D01*
X219455419Y-123712874D02*
X219455419Y-123855731D01*
X219455419Y-122950969D02*
X219407800Y-123046207D01*
X219407800Y-123046207D02*
X219312561Y-123093826D01*
X219312561Y-123093826D02*
X218455419Y-123093826D01*
X219455419Y-122427159D02*
X219407800Y-122522397D01*
X219407800Y-122522397D02*
X219312561Y-122570016D01*
X219312561Y-122570016D02*
X218455419Y-122570016D01*
X219407800Y-121665254D02*
X219455419Y-121760492D01*
X219455419Y-121760492D02*
X219455419Y-121950968D01*
X219455419Y-121950968D02*
X219407800Y-122046206D01*
X219407800Y-122046206D02*
X219312561Y-122093825D01*
X219312561Y-122093825D02*
X218931609Y-122093825D01*
X218931609Y-122093825D02*
X218836371Y-122046206D01*
X218836371Y-122046206D02*
X218788752Y-121950968D01*
X218788752Y-121950968D02*
X218788752Y-121760492D01*
X218788752Y-121760492D02*
X218836371Y-121665254D01*
X218836371Y-121665254D02*
X218931609Y-121617635D01*
X218931609Y-121617635D02*
X219026847Y-121617635D01*
X219026847Y-121617635D02*
X219122085Y-122093825D01*
X219455419Y-121189063D02*
X218788752Y-121189063D01*
X218979228Y-121189063D02*
X218883990Y-121141444D01*
X218883990Y-121141444D02*
X218836371Y-121093825D01*
X218836371Y-121093825D02*
X218788752Y-120998587D01*
X218788752Y-120998587D02*
X218788752Y-120903349D01*
X219455419Y-119236682D02*
X218979228Y-119570015D01*
X219455419Y-119808110D02*
X218455419Y-119808110D01*
X218455419Y-119808110D02*
X218455419Y-119427158D01*
X218455419Y-119427158D02*
X218503038Y-119331920D01*
X218503038Y-119331920D02*
X218550657Y-119284301D01*
X218550657Y-119284301D02*
X218645895Y-119236682D01*
X218645895Y-119236682D02*
X218788752Y-119236682D01*
X218788752Y-119236682D02*
X218883990Y-119284301D01*
X218883990Y-119284301D02*
X218931609Y-119331920D01*
X218931609Y-119331920D02*
X218979228Y-119427158D01*
X218979228Y-119427158D02*
X218979228Y-119808110D01*
X219407800Y-118427158D02*
X219455419Y-118522396D01*
X219455419Y-118522396D02*
X219455419Y-118712872D01*
X219455419Y-118712872D02*
X219407800Y-118808110D01*
X219407800Y-118808110D02*
X219312561Y-118855729D01*
X219312561Y-118855729D02*
X218931609Y-118855729D01*
X218931609Y-118855729D02*
X218836371Y-118808110D01*
X218836371Y-118808110D02*
X218788752Y-118712872D01*
X218788752Y-118712872D02*
X218788752Y-118522396D01*
X218788752Y-118522396D02*
X218836371Y-118427158D01*
X218836371Y-118427158D02*
X218931609Y-118379539D01*
X218931609Y-118379539D02*
X219026847Y-118379539D01*
X219026847Y-118379539D02*
X219122085Y-118855729D01*
X218788752Y-118046205D02*
X219455419Y-117808110D01*
X219455419Y-117808110D02*
X218788752Y-117570015D01*
X218931609Y-116855729D02*
X218979228Y-116712872D01*
X218979228Y-116712872D02*
X219026847Y-116665253D01*
X219026847Y-116665253D02*
X219122085Y-116617634D01*
X219122085Y-116617634D02*
X219264942Y-116617634D01*
X219264942Y-116617634D02*
X219360180Y-116665253D01*
X219360180Y-116665253D02*
X219407800Y-116712872D01*
X219407800Y-116712872D02*
X219455419Y-116808110D01*
X219455419Y-116808110D02*
X219455419Y-117189062D01*
X219455419Y-117189062D02*
X218455419Y-117189062D01*
X218455419Y-117189062D02*
X218455419Y-116855729D01*
X218455419Y-116855729D02*
X218503038Y-116760491D01*
X218503038Y-116760491D02*
X218550657Y-116712872D01*
X218550657Y-116712872D02*
X218645895Y-116665253D01*
X218645895Y-116665253D02*
X218741133Y-116665253D01*
X218741133Y-116665253D02*
X218836371Y-116712872D01*
X218836371Y-116712872D02*
X218883990Y-116760491D01*
X218883990Y-116760491D02*
X218931609Y-116855729D01*
X218931609Y-116855729D02*
X218931609Y-117189062D01*
X219836371Y-115141443D02*
X219788752Y-115189062D01*
X219788752Y-115189062D02*
X219645895Y-115284300D01*
X219645895Y-115284300D02*
X219550657Y-115331919D01*
X219550657Y-115331919D02*
X219407800Y-115379538D01*
X219407800Y-115379538D02*
X219169704Y-115427157D01*
X219169704Y-115427157D02*
X218979228Y-115427157D01*
X218979228Y-115427157D02*
X218741133Y-115379538D01*
X218741133Y-115379538D02*
X218598276Y-115331919D01*
X218598276Y-115331919D02*
X218503038Y-115284300D01*
X218503038Y-115284300D02*
X218360180Y-115189062D01*
X218360180Y-115189062D02*
X218312561Y-115141443D01*
X218931609Y-114760490D02*
X218931609Y-114427157D01*
X219455419Y-114284300D02*
X219455419Y-114760490D01*
X219455419Y-114760490D02*
X218455419Y-114760490D01*
X218455419Y-114760490D02*
X218455419Y-114284300D01*
X219455419Y-113855728D02*
X218788752Y-113855728D01*
X218883990Y-113855728D02*
X218836371Y-113808109D01*
X218836371Y-113808109D02*
X218788752Y-113712871D01*
X218788752Y-113712871D02*
X218788752Y-113570014D01*
X218788752Y-113570014D02*
X218836371Y-113474776D01*
X218836371Y-113474776D02*
X218931609Y-113427157D01*
X218931609Y-113427157D02*
X219455419Y-113427157D01*
X218931609Y-113427157D02*
X218836371Y-113379538D01*
X218836371Y-113379538D02*
X218788752Y-113284300D01*
X218788752Y-113284300D02*
X218788752Y-113141443D01*
X218788752Y-113141443D02*
X218836371Y-113046204D01*
X218836371Y-113046204D02*
X218931609Y-112998585D01*
X218931609Y-112998585D02*
X219455419Y-112998585D01*
X219407800Y-112141443D02*
X219455419Y-112236681D01*
X219455419Y-112236681D02*
X219455419Y-112427157D01*
X219455419Y-112427157D02*
X219407800Y-112522395D01*
X219407800Y-112522395D02*
X219312561Y-112570014D01*
X219312561Y-112570014D02*
X218931609Y-112570014D01*
X218931609Y-112570014D02*
X218836371Y-112522395D01*
X218836371Y-112522395D02*
X218788752Y-112427157D01*
X218788752Y-112427157D02*
X218788752Y-112236681D01*
X218788752Y-112236681D02*
X218836371Y-112141443D01*
X218836371Y-112141443D02*
X218931609Y-112093824D01*
X218931609Y-112093824D02*
X219026847Y-112093824D01*
X219026847Y-112093824D02*
X219122085Y-112570014D01*
X219455419Y-111665252D02*
X218788752Y-111665252D01*
X218979228Y-111665252D02*
X218883990Y-111617633D01*
X218883990Y-111617633D02*
X218836371Y-111570014D01*
X218836371Y-111570014D02*
X218788752Y-111474776D01*
X218788752Y-111474776D02*
X218788752Y-111379538D01*
X219455419Y-110617633D02*
X218931609Y-110617633D01*
X218931609Y-110617633D02*
X218836371Y-110665252D01*
X218836371Y-110665252D02*
X218788752Y-110760490D01*
X218788752Y-110760490D02*
X218788752Y-110950966D01*
X218788752Y-110950966D02*
X218836371Y-111046204D01*
X219407800Y-110617633D02*
X219455419Y-110712871D01*
X219455419Y-110712871D02*
X219455419Y-110950966D01*
X219455419Y-110950966D02*
X219407800Y-111046204D01*
X219407800Y-111046204D02*
X219312561Y-111093823D01*
X219312561Y-111093823D02*
X219217323Y-111093823D01*
X219217323Y-111093823D02*
X219122085Y-111046204D01*
X219122085Y-111046204D02*
X219074466Y-110950966D01*
X219074466Y-110950966D02*
X219074466Y-110712871D01*
X219074466Y-110712871D02*
X219026847Y-110617633D01*
X219455419Y-109998585D02*
X219407800Y-110093823D01*
X219407800Y-110093823D02*
X219312561Y-110141442D01*
X219312561Y-110141442D02*
X218455419Y-110141442D01*
X219455419Y-109189061D02*
X218455419Y-109189061D01*
X219407800Y-109189061D02*
X219455419Y-109284299D01*
X219455419Y-109284299D02*
X219455419Y-109474775D01*
X219455419Y-109474775D02*
X219407800Y-109570013D01*
X219407800Y-109570013D02*
X219360180Y-109617632D01*
X219360180Y-109617632D02*
X219264942Y-109665251D01*
X219264942Y-109665251D02*
X218979228Y-109665251D01*
X218979228Y-109665251D02*
X218883990Y-109617632D01*
X218883990Y-109617632D02*
X218836371Y-109570013D01*
X218836371Y-109570013D02*
X218788752Y-109474775D01*
X218788752Y-109474775D02*
X218788752Y-109284299D01*
X218788752Y-109284299D02*
X218836371Y-109189061D01*
X219455419Y-107950965D02*
X218455419Y-107950965D01*
X218455419Y-107950965D02*
X218455419Y-107712870D01*
X218455419Y-107712870D02*
X218503038Y-107570013D01*
X218503038Y-107570013D02*
X218598276Y-107474775D01*
X218598276Y-107474775D02*
X218693514Y-107427156D01*
X218693514Y-107427156D02*
X218883990Y-107379537D01*
X218883990Y-107379537D02*
X219026847Y-107379537D01*
X219026847Y-107379537D02*
X219217323Y-107427156D01*
X219217323Y-107427156D02*
X219312561Y-107474775D01*
X219312561Y-107474775D02*
X219407800Y-107570013D01*
X219407800Y-107570013D02*
X219455419Y-107712870D01*
X219455419Y-107712870D02*
X219455419Y-107950965D01*
X219455419Y-106950965D02*
X218788752Y-106950965D01*
X218455419Y-106950965D02*
X218503038Y-106998584D01*
X218503038Y-106998584D02*
X218550657Y-106950965D01*
X218550657Y-106950965D02*
X218503038Y-106903346D01*
X218503038Y-106903346D02*
X218455419Y-106950965D01*
X218455419Y-106950965D02*
X218550657Y-106950965D01*
X218788752Y-106474775D02*
X219455419Y-106474775D01*
X218883990Y-106474775D02*
X218836371Y-106427156D01*
X218836371Y-106427156D02*
X218788752Y-106331918D01*
X218788752Y-106331918D02*
X218788752Y-106189061D01*
X218788752Y-106189061D02*
X218836371Y-106093823D01*
X218836371Y-106093823D02*
X218931609Y-106046204D01*
X218931609Y-106046204D02*
X219455419Y-106046204D01*
X218788752Y-105141442D02*
X219598276Y-105141442D01*
X219598276Y-105141442D02*
X219693514Y-105189061D01*
X219693514Y-105189061D02*
X219741133Y-105236680D01*
X219741133Y-105236680D02*
X219788752Y-105331918D01*
X219788752Y-105331918D02*
X219788752Y-105474775D01*
X219788752Y-105474775D02*
X219741133Y-105570013D01*
X219407800Y-105141442D02*
X219455419Y-105236680D01*
X219455419Y-105236680D02*
X219455419Y-105427156D01*
X219455419Y-105427156D02*
X219407800Y-105522394D01*
X219407800Y-105522394D02*
X219360180Y-105570013D01*
X219360180Y-105570013D02*
X219264942Y-105617632D01*
X219264942Y-105617632D02*
X218979228Y-105617632D01*
X218979228Y-105617632D02*
X218883990Y-105570013D01*
X218883990Y-105570013D02*
X218836371Y-105522394D01*
X218836371Y-105522394D02*
X218788752Y-105427156D01*
X218788752Y-105427156D02*
X218788752Y-105236680D01*
X218788752Y-105236680D02*
X218836371Y-105141442D01*
X219455419Y-104522394D02*
X219407800Y-104617632D01*
X219407800Y-104617632D02*
X219360180Y-104665251D01*
X219360180Y-104665251D02*
X219264942Y-104712870D01*
X219264942Y-104712870D02*
X218979228Y-104712870D01*
X218979228Y-104712870D02*
X218883990Y-104665251D01*
X218883990Y-104665251D02*
X218836371Y-104617632D01*
X218836371Y-104617632D02*
X218788752Y-104522394D01*
X218788752Y-104522394D02*
X218788752Y-104379537D01*
X218788752Y-104379537D02*
X218836371Y-104284299D01*
X218836371Y-104284299D02*
X218883990Y-104236680D01*
X218883990Y-104236680D02*
X218979228Y-104189061D01*
X218979228Y-104189061D02*
X219264942Y-104189061D01*
X219264942Y-104189061D02*
X219360180Y-104236680D01*
X219360180Y-104236680D02*
X219407800Y-104284299D01*
X219407800Y-104284299D02*
X219455419Y-104379537D01*
X219455419Y-104379537D02*
X219455419Y-104522394D01*
X219836371Y-103855727D02*
X219788752Y-103808108D01*
X219788752Y-103808108D02*
X219645895Y-103712870D01*
X219645895Y-103712870D02*
X219550657Y-103665251D01*
X219550657Y-103665251D02*
X219407800Y-103617632D01*
X219407800Y-103617632D02*
X219169704Y-103570013D01*
X219169704Y-103570013D02*
X218979228Y-103570013D01*
X218979228Y-103570013D02*
X218741133Y-103617632D01*
X218741133Y-103617632D02*
X218598276Y-103665251D01*
X218598276Y-103665251D02*
X218503038Y-103712870D01*
X218503038Y-103712870D02*
X218360180Y-103808108D01*
X218360180Y-103808108D02*
X218312561Y-103855727D01*
X202057000Y-122174000D02*
X202057000Y-121285000D01*
X203454000Y-122682000D02*
X202057000Y-122174000D01*
D11*
X198755000Y-121920000D02*
X187198000Y-121920000D01*
X201676000Y-123698000D02*
X198755000Y-121920000D01*
X200441160Y-124425104D02*
X200917350Y-124425104D01*
X200345922Y-124710819D02*
X200679255Y-123710819D01*
X200679255Y-123710819D02*
X201012588Y-124710819D01*
X201774493Y-124044152D02*
X201774493Y-124710819D01*
X201345922Y-124044152D02*
X201345922Y-124567961D01*
X201345922Y-124567961D02*
X201393541Y-124663200D01*
X201393541Y-124663200D02*
X201488779Y-124710819D01*
X201488779Y-124710819D02*
X201631636Y-124710819D01*
X201631636Y-124710819D02*
X201726874Y-124663200D01*
X201726874Y-124663200D02*
X201774493Y-124615580D01*
X202155446Y-124710819D02*
X202679255Y-124044152D01*
X202155446Y-124044152D02*
X202679255Y-124710819D01*
X203822113Y-124710819D02*
X203822113Y-123710819D01*
X203822113Y-123710819D02*
X204203065Y-123710819D01*
X204203065Y-123710819D02*
X204298303Y-123758438D01*
X204298303Y-123758438D02*
X204345922Y-123806057D01*
X204345922Y-123806057D02*
X204393541Y-123901295D01*
X204393541Y-123901295D02*
X204393541Y-124044152D01*
X204393541Y-124044152D02*
X204345922Y-124139390D01*
X204345922Y-124139390D02*
X204298303Y-124187009D01*
X204298303Y-124187009D02*
X204203065Y-124234628D01*
X204203065Y-124234628D02*
X203822113Y-124234628D01*
X204964970Y-124710819D02*
X204869732Y-124663200D01*
X204869732Y-124663200D02*
X204822113Y-124615580D01*
X204822113Y-124615580D02*
X204774494Y-124520342D01*
X204774494Y-124520342D02*
X204774494Y-124234628D01*
X204774494Y-124234628D02*
X204822113Y-124139390D01*
X204822113Y-124139390D02*
X204869732Y-124091771D01*
X204869732Y-124091771D02*
X204964970Y-124044152D01*
X204964970Y-124044152D02*
X205107827Y-124044152D01*
X205107827Y-124044152D02*
X205203065Y-124091771D01*
X205203065Y-124091771D02*
X205250684Y-124139390D01*
X205250684Y-124139390D02*
X205298303Y-124234628D01*
X205298303Y-124234628D02*
X205298303Y-124520342D01*
X205298303Y-124520342D02*
X205250684Y-124615580D01*
X205250684Y-124615580D02*
X205203065Y-124663200D01*
X205203065Y-124663200D02*
X205107827Y-124710819D01*
X205107827Y-124710819D02*
X204964970Y-124710819D01*
X205726875Y-124710819D02*
X205726875Y-124044152D01*
X205726875Y-124234628D02*
X205774494Y-124139390D01*
X205774494Y-124139390D02*
X205822113Y-124091771D01*
X205822113Y-124091771D02*
X205917351Y-124044152D01*
X205917351Y-124044152D02*
X206012589Y-124044152D01*
X206203066Y-124044152D02*
X206584018Y-124044152D01*
X206345923Y-123710819D02*
X206345923Y-124567961D01*
X206345923Y-124567961D02*
X206393542Y-124663200D01*
X206393542Y-124663200D02*
X206488780Y-124710819D01*
X206488780Y-124710819D02*
X206584018Y-124710819D01*
X207964971Y-125091771D02*
X207917352Y-125044152D01*
X207917352Y-125044152D02*
X207822114Y-124901295D01*
X207822114Y-124901295D02*
X207774495Y-124806057D01*
X207774495Y-124806057D02*
X207726876Y-124663200D01*
X207726876Y-124663200D02*
X207679257Y-124425104D01*
X207679257Y-124425104D02*
X207679257Y-124234628D01*
X207679257Y-124234628D02*
X207726876Y-123996533D01*
X207726876Y-123996533D02*
X207774495Y-123853676D01*
X207774495Y-123853676D02*
X207822114Y-123758438D01*
X207822114Y-123758438D02*
X207917352Y-123615580D01*
X207917352Y-123615580D02*
X207964971Y-123567961D01*
X208345924Y-124710819D02*
X208345924Y-123710819D01*
X208774495Y-123806057D02*
X208822114Y-123758438D01*
X208822114Y-123758438D02*
X208917352Y-123710819D01*
X208917352Y-123710819D02*
X209155447Y-123710819D01*
X209155447Y-123710819D02*
X209250685Y-123758438D01*
X209250685Y-123758438D02*
X209298304Y-123806057D01*
X209298304Y-123806057D02*
X209345923Y-123901295D01*
X209345923Y-123901295D02*
X209345923Y-123996533D01*
X209345923Y-123996533D02*
X209298304Y-124139390D01*
X209298304Y-124139390D02*
X208726876Y-124710819D01*
X208726876Y-124710819D02*
X209345923Y-124710819D01*
X210345923Y-124615580D02*
X210298304Y-124663200D01*
X210298304Y-124663200D02*
X210155447Y-124710819D01*
X210155447Y-124710819D02*
X210060209Y-124710819D01*
X210060209Y-124710819D02*
X209917352Y-124663200D01*
X209917352Y-124663200D02*
X209822114Y-124567961D01*
X209822114Y-124567961D02*
X209774495Y-124472723D01*
X209774495Y-124472723D02*
X209726876Y-124282247D01*
X209726876Y-124282247D02*
X209726876Y-124139390D01*
X209726876Y-124139390D02*
X209774495Y-123948914D01*
X209774495Y-123948914D02*
X209822114Y-123853676D01*
X209822114Y-123853676D02*
X209917352Y-123758438D01*
X209917352Y-123758438D02*
X210060209Y-123710819D01*
X210060209Y-123710819D02*
X210155447Y-123710819D01*
X210155447Y-123710819D02*
X210298304Y-123758438D01*
X210298304Y-123758438D02*
X210345923Y-123806057D01*
X210679257Y-125091771D02*
X210726876Y-125044152D01*
X210726876Y-125044152D02*
X210822114Y-124901295D01*
X210822114Y-124901295D02*
X210869733Y-124806057D01*
X210869733Y-124806057D02*
X210917352Y-124663200D01*
X210917352Y-124663200D02*
X210964971Y-124425104D01*
X210964971Y-124425104D02*
X210964971Y-124234628D01*
X210964971Y-124234628D02*
X210917352Y-123996533D01*
X210917352Y-123996533D02*
X210869733Y-123853676D01*
X210869733Y-123853676D02*
X210822114Y-123758438D01*
X210822114Y-123758438D02*
X210726876Y-123615580D01*
X210726876Y-123615580D02*
X210679257Y-123567961D01*
X203870160Y-122774104D02*
X204346350Y-122774104D01*
X203774922Y-123059819D02*
X204108255Y-122059819D01*
X204108255Y-122059819D02*
X204441588Y-123059819D01*
X205203493Y-122393152D02*
X205203493Y-123059819D01*
X204774922Y-122393152D02*
X204774922Y-122916961D01*
X204774922Y-122916961D02*
X204822541Y-123012200D01*
X204822541Y-123012200D02*
X204917779Y-123059819D01*
X204917779Y-123059819D02*
X205060636Y-123059819D01*
X205060636Y-123059819D02*
X205155874Y-123012200D01*
X205155874Y-123012200D02*
X205203493Y-122964580D01*
X205584446Y-123059819D02*
X206108255Y-122393152D01*
X205584446Y-122393152D02*
X206108255Y-123059819D01*
X207251113Y-123059819D02*
X207251113Y-122059819D01*
X207251113Y-122059819D02*
X207632065Y-122059819D01*
X207632065Y-122059819D02*
X207727303Y-122107438D01*
X207727303Y-122107438D02*
X207774922Y-122155057D01*
X207774922Y-122155057D02*
X207822541Y-122250295D01*
X207822541Y-122250295D02*
X207822541Y-122393152D01*
X207822541Y-122393152D02*
X207774922Y-122488390D01*
X207774922Y-122488390D02*
X207727303Y-122536009D01*
X207727303Y-122536009D02*
X207632065Y-122583628D01*
X207632065Y-122583628D02*
X207251113Y-122583628D01*
X208393970Y-123059819D02*
X208298732Y-123012200D01*
X208298732Y-123012200D02*
X208251113Y-122964580D01*
X208251113Y-122964580D02*
X208203494Y-122869342D01*
X208203494Y-122869342D02*
X208203494Y-122583628D01*
X208203494Y-122583628D02*
X208251113Y-122488390D01*
X208251113Y-122488390D02*
X208298732Y-122440771D01*
X208298732Y-122440771D02*
X208393970Y-122393152D01*
X208393970Y-122393152D02*
X208536827Y-122393152D01*
X208536827Y-122393152D02*
X208632065Y-122440771D01*
X208632065Y-122440771D02*
X208679684Y-122488390D01*
X208679684Y-122488390D02*
X208727303Y-122583628D01*
X208727303Y-122583628D02*
X208727303Y-122869342D01*
X208727303Y-122869342D02*
X208679684Y-122964580D01*
X208679684Y-122964580D02*
X208632065Y-123012200D01*
X208632065Y-123012200D02*
X208536827Y-123059819D01*
X208536827Y-123059819D02*
X208393970Y-123059819D01*
X209155875Y-123059819D02*
X209155875Y-122393152D01*
X209155875Y-122583628D02*
X209203494Y-122488390D01*
X209203494Y-122488390D02*
X209251113Y-122440771D01*
X209251113Y-122440771D02*
X209346351Y-122393152D01*
X209346351Y-122393152D02*
X209441589Y-122393152D01*
X209632066Y-122393152D02*
X210013018Y-122393152D01*
X209774923Y-122059819D02*
X209774923Y-122916961D01*
X209774923Y-122916961D02*
X209822542Y-123012200D01*
X209822542Y-123012200D02*
X209917780Y-123059819D01*
X209917780Y-123059819D02*
X210013018Y-123059819D01*
X211393971Y-123440771D02*
X211346352Y-123393152D01*
X211346352Y-123393152D02*
X211251114Y-123250295D01*
X211251114Y-123250295D02*
X211203495Y-123155057D01*
X211203495Y-123155057D02*
X211155876Y-123012200D01*
X211155876Y-123012200D02*
X211108257Y-122774104D01*
X211108257Y-122774104D02*
X211108257Y-122583628D01*
X211108257Y-122583628D02*
X211155876Y-122345533D01*
X211155876Y-122345533D02*
X211203495Y-122202676D01*
X211203495Y-122202676D02*
X211251114Y-122107438D01*
X211251114Y-122107438D02*
X211346352Y-121964580D01*
X211346352Y-121964580D02*
X211393971Y-121916961D01*
X211727305Y-123012200D02*
X211870162Y-123059819D01*
X211870162Y-123059819D02*
X212108257Y-123059819D01*
X212108257Y-123059819D02*
X212203495Y-123012200D01*
X212203495Y-123012200D02*
X212251114Y-122964580D01*
X212251114Y-122964580D02*
X212298733Y-122869342D01*
X212298733Y-122869342D02*
X212298733Y-122774104D01*
X212298733Y-122774104D02*
X212251114Y-122678866D01*
X212251114Y-122678866D02*
X212203495Y-122631247D01*
X212203495Y-122631247D02*
X212108257Y-122583628D01*
X212108257Y-122583628D02*
X211917781Y-122536009D01*
X211917781Y-122536009D02*
X211822543Y-122488390D01*
X211822543Y-122488390D02*
X211774924Y-122440771D01*
X211774924Y-122440771D02*
X211727305Y-122345533D01*
X211727305Y-122345533D02*
X211727305Y-122250295D01*
X211727305Y-122250295D02*
X211774924Y-122155057D01*
X211774924Y-122155057D02*
X211822543Y-122107438D01*
X211822543Y-122107438D02*
X211917781Y-122059819D01*
X211917781Y-122059819D02*
X212155876Y-122059819D01*
X212155876Y-122059819D02*
X212298733Y-122107438D01*
X212727305Y-123059819D02*
X212727305Y-122059819D01*
X212727305Y-122059819D02*
X213108257Y-122059819D01*
X213108257Y-122059819D02*
X213203495Y-122107438D01*
X213203495Y-122107438D02*
X213251114Y-122155057D01*
X213251114Y-122155057D02*
X213298733Y-122250295D01*
X213298733Y-122250295D02*
X213298733Y-122393152D01*
X213298733Y-122393152D02*
X213251114Y-122488390D01*
X213251114Y-122488390D02*
X213203495Y-122536009D01*
X213203495Y-122536009D02*
X213108257Y-122583628D01*
X213108257Y-122583628D02*
X212727305Y-122583628D01*
X213727305Y-123059819D02*
X213727305Y-122059819D01*
X214108257Y-123440771D02*
X214155876Y-123393152D01*
X214155876Y-123393152D02*
X214251114Y-123250295D01*
X214251114Y-123250295D02*
X214298733Y-123155057D01*
X214298733Y-123155057D02*
X214346352Y-123012200D01*
X214346352Y-123012200D02*
X214393971Y-122774104D01*
X214393971Y-122774104D02*
X214393971Y-122583628D01*
X214393971Y-122583628D02*
X214346352Y-122345533D01*
X214346352Y-122345533D02*
X214298733Y-122202676D01*
X214298733Y-122202676D02*
X214251114Y-122107438D01*
X214251114Y-122107438D02*
X214155876Y-121964580D01*
X214155876Y-121964580D02*
X214108257Y-121916961D01*
X172577476Y-121846875D02*
X173244142Y-121846875D01*
X173244142Y-121846875D02*
X172577476Y-122846875D01*
X172577476Y-122846875D02*
X173244142Y-122846875D01*
X174339381Y-122799256D02*
X174482238Y-122846875D01*
X174482238Y-122846875D02*
X174720333Y-122846875D01*
X174720333Y-122846875D02*
X174815571Y-122799256D01*
X174815571Y-122799256D02*
X174863190Y-122751636D01*
X174863190Y-122751636D02*
X174910809Y-122656398D01*
X174910809Y-122656398D02*
X174910809Y-122561160D01*
X174910809Y-122561160D02*
X174863190Y-122465922D01*
X174863190Y-122465922D02*
X174815571Y-122418303D01*
X174815571Y-122418303D02*
X174720333Y-122370684D01*
X174720333Y-122370684D02*
X174529857Y-122323065D01*
X174529857Y-122323065D02*
X174434619Y-122275446D01*
X174434619Y-122275446D02*
X174387000Y-122227827D01*
X174387000Y-122227827D02*
X174339381Y-122132589D01*
X174339381Y-122132589D02*
X174339381Y-122037351D01*
X174339381Y-122037351D02*
X174387000Y-121942113D01*
X174387000Y-121942113D02*
X174434619Y-121894494D01*
X174434619Y-121894494D02*
X174529857Y-121846875D01*
X174529857Y-121846875D02*
X174767952Y-121846875D01*
X174767952Y-121846875D02*
X174910809Y-121894494D01*
X175196524Y-121846875D02*
X175767952Y-121846875D01*
X175482238Y-122846875D02*
X175482238Y-121846875D01*
X176053667Y-122561160D02*
X176529857Y-122561160D01*
X175958429Y-122846875D02*
X176291762Y-121846875D01*
X176291762Y-121846875D02*
X176625095Y-122846875D01*
X177434619Y-122846875D02*
X176958429Y-122846875D01*
X176958429Y-122846875D02*
X176958429Y-121846875D01*
X178244143Y-122846875D02*
X177767953Y-122846875D01*
X177767953Y-122846875D02*
X177767953Y-121846875D01*
X173696523Y-123504438D02*
X173601285Y-123456819D01*
X173601285Y-123456819D02*
X173458428Y-123456819D01*
X173458428Y-123456819D02*
X173315571Y-123504438D01*
X173315571Y-123504438D02*
X173220333Y-123599676D01*
X173220333Y-123599676D02*
X173172714Y-123694914D01*
X173172714Y-123694914D02*
X173125095Y-123885390D01*
X173125095Y-123885390D02*
X173125095Y-124028247D01*
X173125095Y-124028247D02*
X173172714Y-124218723D01*
X173172714Y-124218723D02*
X173220333Y-124313961D01*
X173220333Y-124313961D02*
X173315571Y-124409200D01*
X173315571Y-124409200D02*
X173458428Y-124456819D01*
X173458428Y-124456819D02*
X173553666Y-124456819D01*
X173553666Y-124456819D02*
X173696523Y-124409200D01*
X173696523Y-124409200D02*
X173744142Y-124361580D01*
X173744142Y-124361580D02*
X173744142Y-124028247D01*
X173744142Y-124028247D02*
X173553666Y-124028247D01*
X174172714Y-123456819D02*
X174172714Y-124266342D01*
X174172714Y-124266342D02*
X174220333Y-124361580D01*
X174220333Y-124361580D02*
X174267952Y-124409200D01*
X174267952Y-124409200D02*
X174363190Y-124456819D01*
X174363190Y-124456819D02*
X174553666Y-124456819D01*
X174553666Y-124456819D02*
X174648904Y-124409200D01*
X174648904Y-124409200D02*
X174696523Y-124361580D01*
X174696523Y-124361580D02*
X174744142Y-124266342D01*
X174744142Y-124266342D02*
X174744142Y-123456819D01*
X175172714Y-124171104D02*
X175648904Y-124171104D01*
X175077476Y-124456819D02*
X175410809Y-123456819D01*
X175410809Y-123456819D02*
X175744142Y-124456819D01*
X176648904Y-124456819D02*
X176315571Y-123980628D01*
X176077476Y-124456819D02*
X176077476Y-123456819D01*
X176077476Y-123456819D02*
X176458428Y-123456819D01*
X176458428Y-123456819D02*
X176553666Y-123504438D01*
X176553666Y-123504438D02*
X176601285Y-123552057D01*
X176601285Y-123552057D02*
X176648904Y-123647295D01*
X176648904Y-123647295D02*
X176648904Y-123790152D01*
X176648904Y-123790152D02*
X176601285Y-123885390D01*
X176601285Y-123885390D02*
X176553666Y-123933009D01*
X176553666Y-123933009D02*
X176458428Y-123980628D01*
X176458428Y-123980628D02*
X176077476Y-123980628D01*
X177077476Y-124456819D02*
X177077476Y-123456819D01*
X177077476Y-123456819D02*
X177315571Y-123456819D01*
X177315571Y-123456819D02*
X177458428Y-123504438D01*
X177458428Y-123504438D02*
X177553666Y-123599676D01*
X177553666Y-123599676D02*
X177601285Y-123694914D01*
X177601285Y-123694914D02*
X177648904Y-123885390D01*
X177648904Y-123885390D02*
X177648904Y-124028247D01*
X177648904Y-124028247D02*
X177601285Y-124218723D01*
X177601285Y-124218723D02*
X177553666Y-124313961D01*
X177553666Y-124313961D02*
X177458428Y-124409200D01*
X177458428Y-124409200D02*
X177315571Y-124456819D01*
X177315571Y-124456819D02*
X177077476Y-124456819D01*
X161658541Y-122059819D02*
X162325207Y-122059819D01*
X162325207Y-122059819D02*
X161658541Y-123059819D01*
X161658541Y-123059819D02*
X162325207Y-123059819D01*
X163468065Y-123059819D02*
X163468065Y-122059819D01*
X163468065Y-122059819D02*
X163801398Y-122774104D01*
X163801398Y-122774104D02*
X164134731Y-122059819D01*
X164134731Y-122059819D02*
X164134731Y-123059819D01*
X164801398Y-122059819D02*
X164991874Y-122059819D01*
X164991874Y-122059819D02*
X165087112Y-122107438D01*
X165087112Y-122107438D02*
X165182350Y-122202676D01*
X165182350Y-122202676D02*
X165229969Y-122393152D01*
X165229969Y-122393152D02*
X165229969Y-122726485D01*
X165229969Y-122726485D02*
X165182350Y-122916961D01*
X165182350Y-122916961D02*
X165087112Y-123012200D01*
X165087112Y-123012200D02*
X164991874Y-123059819D01*
X164991874Y-123059819D02*
X164801398Y-123059819D01*
X164801398Y-123059819D02*
X164706160Y-123012200D01*
X164706160Y-123012200D02*
X164610922Y-122916961D01*
X164610922Y-122916961D02*
X164563303Y-122726485D01*
X164563303Y-122726485D02*
X164563303Y-122393152D01*
X164563303Y-122393152D02*
X164610922Y-122202676D01*
X164610922Y-122202676D02*
X164706160Y-122107438D01*
X164706160Y-122107438D02*
X164801398Y-122059819D01*
X165515684Y-122059819D02*
X166087112Y-122059819D01*
X165801398Y-123059819D02*
X165801398Y-122059819D01*
X166610922Y-122059819D02*
X166801398Y-122059819D01*
X166801398Y-122059819D02*
X166896636Y-122107438D01*
X166896636Y-122107438D02*
X166991874Y-122202676D01*
X166991874Y-122202676D02*
X167039493Y-122393152D01*
X167039493Y-122393152D02*
X167039493Y-122726485D01*
X167039493Y-122726485D02*
X166991874Y-122916961D01*
X166991874Y-122916961D02*
X166896636Y-123012200D01*
X166896636Y-123012200D02*
X166801398Y-123059819D01*
X166801398Y-123059819D02*
X166610922Y-123059819D01*
X166610922Y-123059819D02*
X166515684Y-123012200D01*
X166515684Y-123012200D02*
X166420446Y-122916961D01*
X166420446Y-122916961D02*
X166372827Y-122726485D01*
X166372827Y-122726485D02*
X166372827Y-122393152D01*
X166372827Y-122393152D02*
X166420446Y-122202676D01*
X166420446Y-122202676D02*
X166515684Y-122107438D01*
X166515684Y-122107438D02*
X166610922Y-122059819D01*
X168039493Y-123059819D02*
X167706160Y-122583628D01*
X167468065Y-123059819D02*
X167468065Y-122059819D01*
X167468065Y-122059819D02*
X167849017Y-122059819D01*
X167849017Y-122059819D02*
X167944255Y-122107438D01*
X167944255Y-122107438D02*
X167991874Y-122155057D01*
X167991874Y-122155057D02*
X168039493Y-122250295D01*
X168039493Y-122250295D02*
X168039493Y-122393152D01*
X168039493Y-122393152D02*
X167991874Y-122488390D01*
X167991874Y-122488390D02*
X167944255Y-122536009D01*
X167944255Y-122536009D02*
X167849017Y-122583628D01*
X167849017Y-122583628D02*
X167468065Y-122583628D01*
X156419779Y-131441819D02*
X156419779Y-130441819D01*
X156419779Y-130441819D02*
X156800731Y-130441819D01*
X156800731Y-130441819D02*
X156895969Y-130489438D01*
X156895969Y-130489438D02*
X156943588Y-130537057D01*
X156943588Y-130537057D02*
X156991207Y-130632295D01*
X156991207Y-130632295D02*
X156991207Y-130775152D01*
X156991207Y-130775152D02*
X156943588Y-130870390D01*
X156943588Y-130870390D02*
X156895969Y-130918009D01*
X156895969Y-130918009D02*
X156800731Y-130965628D01*
X156800731Y-130965628D02*
X156419779Y-130965628D01*
X157610255Y-130441819D02*
X157800731Y-130441819D01*
X157800731Y-130441819D02*
X157895969Y-130489438D01*
X157895969Y-130489438D02*
X157991207Y-130584676D01*
X157991207Y-130584676D02*
X158038826Y-130775152D01*
X158038826Y-130775152D02*
X158038826Y-131108485D01*
X158038826Y-131108485D02*
X157991207Y-131298961D01*
X157991207Y-131298961D02*
X157895969Y-131394200D01*
X157895969Y-131394200D02*
X157800731Y-131441819D01*
X157800731Y-131441819D02*
X157610255Y-131441819D01*
X157610255Y-131441819D02*
X157515017Y-131394200D01*
X157515017Y-131394200D02*
X157419779Y-131298961D01*
X157419779Y-131298961D02*
X157372160Y-131108485D01*
X157372160Y-131108485D02*
X157372160Y-130775152D01*
X157372160Y-130775152D02*
X157419779Y-130584676D01*
X157419779Y-130584676D02*
X157515017Y-130489438D01*
X157515017Y-130489438D02*
X157610255Y-130441819D01*
X158372160Y-130441819D02*
X158610255Y-131441819D01*
X158610255Y-131441819D02*
X158800731Y-130727533D01*
X158800731Y-130727533D02*
X158991207Y-131441819D01*
X158991207Y-131441819D02*
X159229303Y-130441819D01*
X159610255Y-130918009D02*
X159943588Y-130918009D01*
X160086445Y-131441819D02*
X159610255Y-131441819D01*
X159610255Y-131441819D02*
X159610255Y-130441819D01*
X159610255Y-130441819D02*
X160086445Y-130441819D01*
X161086445Y-131441819D02*
X160753112Y-130965628D01*
X160515017Y-131441819D02*
X160515017Y-130441819D01*
X160515017Y-130441819D02*
X160895969Y-130441819D01*
X160895969Y-130441819D02*
X160991207Y-130489438D01*
X160991207Y-130489438D02*
X161038826Y-130537057D01*
X161038826Y-130537057D02*
X161086445Y-130632295D01*
X161086445Y-130632295D02*
X161086445Y-130775152D01*
X161086445Y-130775152D02*
X161038826Y-130870390D01*
X161038826Y-130870390D02*
X160991207Y-130918009D01*
X160991207Y-130918009D02*
X160895969Y-130965628D01*
X160895969Y-130965628D02*
X160515017Y-130965628D01*
X166584333Y-134439819D02*
X166251000Y-133963628D01*
X166012905Y-134439819D02*
X166012905Y-133439819D01*
X166012905Y-133439819D02*
X166393857Y-133439819D01*
X166393857Y-133439819D02*
X166489095Y-133487438D01*
X166489095Y-133487438D02*
X166536714Y-133535057D01*
X166536714Y-133535057D02*
X166584333Y-133630295D01*
X166584333Y-133630295D02*
X166584333Y-133773152D01*
X166584333Y-133773152D02*
X166536714Y-133868390D01*
X166536714Y-133868390D02*
X166489095Y-133916009D01*
X166489095Y-133916009D02*
X166393857Y-133963628D01*
X166393857Y-133963628D02*
X166012905Y-133963628D01*
X166965286Y-133535057D02*
X167012905Y-133487438D01*
X167012905Y-133487438D02*
X167108143Y-133439819D01*
X167108143Y-133439819D02*
X167346238Y-133439819D01*
X167346238Y-133439819D02*
X167441476Y-133487438D01*
X167441476Y-133487438D02*
X167489095Y-133535057D01*
X167489095Y-133535057D02*
X167536714Y-133630295D01*
X167536714Y-133630295D02*
X167536714Y-133725533D01*
X167536714Y-133725533D02*
X167489095Y-133868390D01*
X167489095Y-133868390D02*
X166917667Y-134439819D01*
X166917667Y-134439819D02*
X167536714Y-134439819D01*
X165885905Y-131518819D02*
X165885905Y-130518819D01*
X165885905Y-130518819D02*
X166124000Y-130518819D01*
X166124000Y-130518819D02*
X166266857Y-130566438D01*
X166266857Y-130566438D02*
X166362095Y-130661676D01*
X166362095Y-130661676D02*
X166409714Y-130756914D01*
X166409714Y-130756914D02*
X166457333Y-130947390D01*
X166457333Y-130947390D02*
X166457333Y-131090247D01*
X166457333Y-131090247D02*
X166409714Y-131280723D01*
X166409714Y-131280723D02*
X166362095Y-131375961D01*
X166362095Y-131375961D02*
X166266857Y-131471200D01*
X166266857Y-131471200D02*
X166124000Y-131518819D01*
X166124000Y-131518819D02*
X165885905Y-131518819D01*
X167409714Y-131518819D02*
X166838286Y-131518819D01*
X167124000Y-131518819D02*
X167124000Y-130518819D01*
X167124000Y-130518819D02*
X167028762Y-130661676D01*
X167028762Y-130661676D02*
X166933524Y-130756914D01*
X166933524Y-130756914D02*
X166838286Y-130804533D01*
X214677666Y-120358819D02*
X214677666Y-121073104D01*
X214677666Y-121073104D02*
X214630047Y-121215961D01*
X214630047Y-121215961D02*
X214534809Y-121311200D01*
X214534809Y-121311200D02*
X214391952Y-121358819D01*
X214391952Y-121358819D02*
X214296714Y-121358819D01*
X215106238Y-120454057D02*
X215153857Y-120406438D01*
X215153857Y-120406438D02*
X215249095Y-120358819D01*
X215249095Y-120358819D02*
X215487190Y-120358819D01*
X215487190Y-120358819D02*
X215582428Y-120406438D01*
X215582428Y-120406438D02*
X215630047Y-120454057D01*
X215630047Y-120454057D02*
X215677666Y-120549295D01*
X215677666Y-120549295D02*
X215677666Y-120644533D01*
X215677666Y-120644533D02*
X215630047Y-120787390D01*
X215630047Y-120787390D02*
X215058619Y-121358819D01*
X215058619Y-121358819D02*
X215677666Y-121358819D01*
X210671580Y-135040666D02*
X210719200Y-135088285D01*
X210719200Y-135088285D02*
X210766819Y-135231142D01*
X210766819Y-135231142D02*
X210766819Y-135326380D01*
X210766819Y-135326380D02*
X210719200Y-135469237D01*
X210719200Y-135469237D02*
X210623961Y-135564475D01*
X210623961Y-135564475D02*
X210528723Y-135612094D01*
X210528723Y-135612094D02*
X210338247Y-135659713D01*
X210338247Y-135659713D02*
X210195390Y-135659713D01*
X210195390Y-135659713D02*
X210004914Y-135612094D01*
X210004914Y-135612094D02*
X209909676Y-135564475D01*
X209909676Y-135564475D02*
X209814438Y-135469237D01*
X209814438Y-135469237D02*
X209766819Y-135326380D01*
X209766819Y-135326380D02*
X209766819Y-135231142D01*
X209766819Y-135231142D02*
X209814438Y-135088285D01*
X209814438Y-135088285D02*
X209862057Y-135040666D01*
X210766819Y-134088285D02*
X210766819Y-134659713D01*
X210766819Y-134373999D02*
X209766819Y-134373999D01*
X209766819Y-134373999D02*
X209909676Y-134469237D01*
X209909676Y-134469237D02*
X210004914Y-134564475D01*
X210004914Y-134564475D02*
X210052533Y-134659713D01*
X185186219Y-130604504D02*
X185995742Y-130604504D01*
X185995742Y-130604504D02*
X186090980Y-130556885D01*
X186090980Y-130556885D02*
X186138600Y-130509266D01*
X186138600Y-130509266D02*
X186186219Y-130414028D01*
X186186219Y-130414028D02*
X186186219Y-130223552D01*
X186186219Y-130223552D02*
X186138600Y-130128314D01*
X186138600Y-130128314D02*
X186090980Y-130080695D01*
X186090980Y-130080695D02*
X185995742Y-130033076D01*
X185995742Y-130033076D02*
X185186219Y-130033076D01*
X186186219Y-129033076D02*
X186186219Y-129604504D01*
X186186219Y-129318790D02*
X185186219Y-129318790D01*
X185186219Y-129318790D02*
X185329076Y-129414028D01*
X185329076Y-129414028D02*
X185424314Y-129509266D01*
X185424314Y-129509266D02*
X185471933Y-129604504D01*
X190336009Y-135047961D02*
X190383628Y-134905104D01*
X190383628Y-134905104D02*
X190431247Y-134857485D01*
X190431247Y-134857485D02*
X190526485Y-134809866D01*
X190526485Y-134809866D02*
X190669342Y-134809866D01*
X190669342Y-134809866D02*
X190764580Y-134857485D01*
X190764580Y-134857485D02*
X190812200Y-134905104D01*
X190812200Y-134905104D02*
X190859819Y-135000342D01*
X190859819Y-135000342D02*
X190859819Y-135381294D01*
X190859819Y-135381294D02*
X189859819Y-135381294D01*
X189859819Y-135381294D02*
X189859819Y-135047961D01*
X189859819Y-135047961D02*
X189907438Y-134952723D01*
X189907438Y-134952723D02*
X189955057Y-134905104D01*
X189955057Y-134905104D02*
X190050295Y-134857485D01*
X190050295Y-134857485D02*
X190145533Y-134857485D01*
X190145533Y-134857485D02*
X190240771Y-134905104D01*
X190240771Y-134905104D02*
X190288390Y-134952723D01*
X190288390Y-134952723D02*
X190336009Y-135047961D01*
X190336009Y-135047961D02*
X190336009Y-135381294D01*
X190859819Y-133857485D02*
X190859819Y-134428913D01*
X190859819Y-134143199D02*
X189859819Y-134143199D01*
X189859819Y-134143199D02*
X190002676Y-134238437D01*
X190002676Y-134238437D02*
X190097914Y-134333675D01*
X190097914Y-134333675D02*
X190145533Y-134428913D01*
D10*
X195611100Y-128139789D02*
X195634909Y-128068361D01*
X195634909Y-128068361D02*
X195634909Y-127949313D01*
X195634909Y-127949313D02*
X195611100Y-127901694D01*
X195611100Y-127901694D02*
X195587290Y-127877885D01*
X195587290Y-127877885D02*
X195539671Y-127854075D01*
X195539671Y-127854075D02*
X195492052Y-127854075D01*
X195492052Y-127854075D02*
X195444433Y-127877885D01*
X195444433Y-127877885D02*
X195420623Y-127901694D01*
X195420623Y-127901694D02*
X195396814Y-127949313D01*
X195396814Y-127949313D02*
X195373004Y-128044551D01*
X195373004Y-128044551D02*
X195349195Y-128092170D01*
X195349195Y-128092170D02*
X195325385Y-128115980D01*
X195325385Y-128115980D02*
X195277766Y-128139789D01*
X195277766Y-128139789D02*
X195230147Y-128139789D01*
X195230147Y-128139789D02*
X195182528Y-128115980D01*
X195182528Y-128115980D02*
X195158719Y-128092170D01*
X195158719Y-128092170D02*
X195134909Y-128044551D01*
X195134909Y-128044551D02*
X195134909Y-127925504D01*
X195134909Y-127925504D02*
X195158719Y-127854075D01*
X195634909Y-127639790D02*
X195134909Y-127639790D01*
X195134909Y-127639790D02*
X195134909Y-127520742D01*
X195134909Y-127520742D02*
X195158719Y-127449314D01*
X195158719Y-127449314D02*
X195206338Y-127401695D01*
X195206338Y-127401695D02*
X195253957Y-127377885D01*
X195253957Y-127377885D02*
X195349195Y-127354076D01*
X195349195Y-127354076D02*
X195420623Y-127354076D01*
X195420623Y-127354076D02*
X195515861Y-127377885D01*
X195515861Y-127377885D02*
X195563480Y-127401695D01*
X195563480Y-127401695D02*
X195611100Y-127449314D01*
X195611100Y-127449314D02*
X195634909Y-127520742D01*
X195634909Y-127520742D02*
X195634909Y-127639790D01*
X195634909Y-127139790D02*
X195134909Y-127139790D01*
X195111100Y-126544552D02*
X195753957Y-126973123D01*
X195587290Y-126092171D02*
X195611100Y-126115980D01*
X195611100Y-126115980D02*
X195634909Y-126187409D01*
X195634909Y-126187409D02*
X195634909Y-126235028D01*
X195634909Y-126235028D02*
X195611100Y-126306456D01*
X195611100Y-126306456D02*
X195563480Y-126354075D01*
X195563480Y-126354075D02*
X195515861Y-126377885D01*
X195515861Y-126377885D02*
X195420623Y-126401694D01*
X195420623Y-126401694D02*
X195349195Y-126401694D01*
X195349195Y-126401694D02*
X195253957Y-126377885D01*
X195253957Y-126377885D02*
X195206338Y-126354075D01*
X195206338Y-126354075D02*
X195158719Y-126306456D01*
X195158719Y-126306456D02*
X195134909Y-126235028D01*
X195134909Y-126235028D02*
X195134909Y-126187409D01*
X195134909Y-126187409D02*
X195158719Y-126115980D01*
X195158719Y-126115980D02*
X195182528Y-126092171D01*
X195373004Y-125711218D02*
X195373004Y-125877885D01*
X195634909Y-125877885D02*
X195134909Y-125877885D01*
X195134909Y-125877885D02*
X195134909Y-125639790D01*
X195158719Y-125187409D02*
X195134909Y-125235028D01*
X195134909Y-125235028D02*
X195134909Y-125306457D01*
X195134909Y-125306457D02*
X195158719Y-125377885D01*
X195158719Y-125377885D02*
X195206338Y-125425504D01*
X195206338Y-125425504D02*
X195253957Y-125449314D01*
X195253957Y-125449314D02*
X195349195Y-125473123D01*
X195349195Y-125473123D02*
X195420623Y-125473123D01*
X195420623Y-125473123D02*
X195515861Y-125449314D01*
X195515861Y-125449314D02*
X195563480Y-125425504D01*
X195563480Y-125425504D02*
X195611100Y-125377885D01*
X195611100Y-125377885D02*
X195634909Y-125306457D01*
X195634909Y-125306457D02*
X195634909Y-125258838D01*
X195634909Y-125258838D02*
X195611100Y-125187409D01*
X195611100Y-125187409D02*
X195587290Y-125163600D01*
X195587290Y-125163600D02*
X195420623Y-125163600D01*
X195420623Y-125163600D02*
X195420623Y-125258838D01*
X195634909Y-124687409D02*
X195634909Y-124973123D01*
X195634909Y-124830266D02*
X195134909Y-124830266D01*
X195134909Y-124830266D02*
X195206338Y-124877885D01*
X195206338Y-124877885D02*
X195253957Y-124925504D01*
X195253957Y-124925504D02*
X195277766Y-124973123D01*
X193198100Y-128423141D02*
X193221909Y-128351713D01*
X193221909Y-128351713D02*
X193221909Y-128232665D01*
X193221909Y-128232665D02*
X193198100Y-128185046D01*
X193198100Y-128185046D02*
X193174290Y-128161237D01*
X193174290Y-128161237D02*
X193126671Y-128137427D01*
X193126671Y-128137427D02*
X193079052Y-128137427D01*
X193079052Y-128137427D02*
X193031433Y-128161237D01*
X193031433Y-128161237D02*
X193007623Y-128185046D01*
X193007623Y-128185046D02*
X192983814Y-128232665D01*
X192983814Y-128232665D02*
X192960004Y-128327903D01*
X192960004Y-128327903D02*
X192936195Y-128375522D01*
X192936195Y-128375522D02*
X192912385Y-128399332D01*
X192912385Y-128399332D02*
X192864766Y-128423141D01*
X192864766Y-128423141D02*
X192817147Y-128423141D01*
X192817147Y-128423141D02*
X192769528Y-128399332D01*
X192769528Y-128399332D02*
X192745719Y-128375522D01*
X192745719Y-128375522D02*
X192721909Y-128327903D01*
X192721909Y-128327903D02*
X192721909Y-128208856D01*
X192721909Y-128208856D02*
X192745719Y-128137427D01*
X193174290Y-127637428D02*
X193198100Y-127661237D01*
X193198100Y-127661237D02*
X193221909Y-127732666D01*
X193221909Y-127732666D02*
X193221909Y-127780285D01*
X193221909Y-127780285D02*
X193198100Y-127851713D01*
X193198100Y-127851713D02*
X193150480Y-127899332D01*
X193150480Y-127899332D02*
X193102861Y-127923142D01*
X193102861Y-127923142D02*
X193007623Y-127946951D01*
X193007623Y-127946951D02*
X192936195Y-127946951D01*
X192936195Y-127946951D02*
X192840957Y-127923142D01*
X192840957Y-127923142D02*
X192793338Y-127899332D01*
X192793338Y-127899332D02*
X192745719Y-127851713D01*
X192745719Y-127851713D02*
X192721909Y-127780285D01*
X192721909Y-127780285D02*
X192721909Y-127732666D01*
X192721909Y-127732666D02*
X192745719Y-127661237D01*
X192745719Y-127661237D02*
X192769528Y-127637428D01*
X193221909Y-127423142D02*
X192721909Y-127423142D01*
X193221909Y-127137428D02*
X192936195Y-127351713D01*
X192721909Y-127137428D02*
X193007623Y-127423142D01*
X192698100Y-126565999D02*
X193340957Y-126994570D01*
X193174290Y-126113618D02*
X193198100Y-126137427D01*
X193198100Y-126137427D02*
X193221909Y-126208856D01*
X193221909Y-126208856D02*
X193221909Y-126256475D01*
X193221909Y-126256475D02*
X193198100Y-126327903D01*
X193198100Y-126327903D02*
X193150480Y-126375522D01*
X193150480Y-126375522D02*
X193102861Y-126399332D01*
X193102861Y-126399332D02*
X193007623Y-126423141D01*
X193007623Y-126423141D02*
X192936195Y-126423141D01*
X192936195Y-126423141D02*
X192840957Y-126399332D01*
X192840957Y-126399332D02*
X192793338Y-126375522D01*
X192793338Y-126375522D02*
X192745719Y-126327903D01*
X192745719Y-126327903D02*
X192721909Y-126256475D01*
X192721909Y-126256475D02*
X192721909Y-126208856D01*
X192721909Y-126208856D02*
X192745719Y-126137427D01*
X192745719Y-126137427D02*
X192769528Y-126113618D01*
X192960004Y-125732665D02*
X192960004Y-125899332D01*
X193221909Y-125899332D02*
X192721909Y-125899332D01*
X192721909Y-125899332D02*
X192721909Y-125661237D01*
X192745719Y-125208856D02*
X192721909Y-125256475D01*
X192721909Y-125256475D02*
X192721909Y-125327904D01*
X192721909Y-125327904D02*
X192745719Y-125399332D01*
X192745719Y-125399332D02*
X192793338Y-125446951D01*
X192793338Y-125446951D02*
X192840957Y-125470761D01*
X192840957Y-125470761D02*
X192936195Y-125494570D01*
X192936195Y-125494570D02*
X193007623Y-125494570D01*
X193007623Y-125494570D02*
X193102861Y-125470761D01*
X193102861Y-125470761D02*
X193150480Y-125446951D01*
X193150480Y-125446951D02*
X193198100Y-125399332D01*
X193198100Y-125399332D02*
X193221909Y-125327904D01*
X193221909Y-125327904D02*
X193221909Y-125280285D01*
X193221909Y-125280285D02*
X193198100Y-125208856D01*
X193198100Y-125208856D02*
X193174290Y-125185047D01*
X193174290Y-125185047D02*
X193007623Y-125185047D01*
X193007623Y-125185047D02*
X193007623Y-125280285D01*
X192769528Y-124994570D02*
X192745719Y-124970761D01*
X192745719Y-124970761D02*
X192721909Y-124923142D01*
X192721909Y-124923142D02*
X192721909Y-124804094D01*
X192721909Y-124804094D02*
X192745719Y-124756475D01*
X192745719Y-124756475D02*
X192769528Y-124732666D01*
X192769528Y-124732666D02*
X192817147Y-124708856D01*
X192817147Y-124708856D02*
X192864766Y-124708856D01*
X192864766Y-124708856D02*
X192936195Y-124732666D01*
X192936195Y-124732666D02*
X193221909Y-125018380D01*
X193221909Y-125018380D02*
X193221909Y-124708856D01*
X195871509Y-129809970D02*
X196371509Y-129643304D01*
X196371509Y-129643304D02*
X195871509Y-129476637D01*
X196371509Y-129309971D02*
X196038176Y-129309971D01*
X196133414Y-129309971D02*
X196085795Y-129286161D01*
X196085795Y-129286161D02*
X196061985Y-129262352D01*
X196061985Y-129262352D02*
X196038176Y-129214733D01*
X196038176Y-129214733D02*
X196038176Y-129167114D01*
X196347700Y-128809971D02*
X196371509Y-128857590D01*
X196371509Y-128857590D02*
X196371509Y-128952828D01*
X196371509Y-128952828D02*
X196347700Y-129000447D01*
X196347700Y-129000447D02*
X196300080Y-129024256D01*
X196300080Y-129024256D02*
X196109604Y-129024256D01*
X196109604Y-129024256D02*
X196061985Y-129000447D01*
X196061985Y-129000447D02*
X196038176Y-128952828D01*
X196038176Y-128952828D02*
X196038176Y-128857590D01*
X196038176Y-128857590D02*
X196061985Y-128809971D01*
X196061985Y-128809971D02*
X196109604Y-128786161D01*
X196109604Y-128786161D02*
X196157223Y-128786161D01*
X196157223Y-128786161D02*
X196204842Y-129024256D01*
X196038176Y-128643304D02*
X196038176Y-128452828D01*
X196371509Y-128571876D02*
X195942938Y-128571876D01*
X195942938Y-128571876D02*
X195895319Y-128548066D01*
X195895319Y-128548066D02*
X195871509Y-128500447D01*
X195871509Y-128500447D02*
X195871509Y-128452828D01*
D11*
X180674419Y-126829399D02*
X179674419Y-126829399D01*
X179674419Y-126829399D02*
X179674419Y-126591304D01*
X179674419Y-126591304D02*
X179722038Y-126448447D01*
X179722038Y-126448447D02*
X179817276Y-126353209D01*
X179817276Y-126353209D02*
X179912514Y-126305590D01*
X179912514Y-126305590D02*
X180102990Y-126257971D01*
X180102990Y-126257971D02*
X180245847Y-126257971D01*
X180245847Y-126257971D02*
X180436323Y-126305590D01*
X180436323Y-126305590D02*
X180531561Y-126353209D01*
X180531561Y-126353209D02*
X180626800Y-126448447D01*
X180626800Y-126448447D02*
X180674419Y-126591304D01*
X180674419Y-126591304D02*
X180674419Y-126829399D01*
X180674419Y-125829399D02*
X179674419Y-125829399D01*
X180674419Y-124781781D02*
X180198228Y-125115114D01*
X180674419Y-125353209D02*
X179674419Y-125353209D01*
X179674419Y-125353209D02*
X179674419Y-124972257D01*
X179674419Y-124972257D02*
X179722038Y-124877019D01*
X179722038Y-124877019D02*
X179769657Y-124829400D01*
X179769657Y-124829400D02*
X179864895Y-124781781D01*
X179864895Y-124781781D02*
X180007752Y-124781781D01*
X180007752Y-124781781D02*
X180102990Y-124829400D01*
X180102990Y-124829400D02*
X180150609Y-124877019D01*
X180150609Y-124877019D02*
X180198228Y-124972257D01*
X180198228Y-124972257D02*
X180198228Y-125353209D01*
X183217600Y-128007247D02*
X183265219Y-127864390D01*
X183265219Y-127864390D02*
X183265219Y-127626295D01*
X183265219Y-127626295D02*
X183217600Y-127531057D01*
X183217600Y-127531057D02*
X183169980Y-127483438D01*
X183169980Y-127483438D02*
X183074742Y-127435819D01*
X183074742Y-127435819D02*
X182979504Y-127435819D01*
X182979504Y-127435819D02*
X182884266Y-127483438D01*
X182884266Y-127483438D02*
X182836647Y-127531057D01*
X182836647Y-127531057D02*
X182789028Y-127626295D01*
X182789028Y-127626295D02*
X182741409Y-127816771D01*
X182741409Y-127816771D02*
X182693790Y-127912009D01*
X182693790Y-127912009D02*
X182646171Y-127959628D01*
X182646171Y-127959628D02*
X182550933Y-128007247D01*
X182550933Y-128007247D02*
X182455695Y-128007247D01*
X182455695Y-128007247D02*
X182360457Y-127959628D01*
X182360457Y-127959628D02*
X182312838Y-127912009D01*
X182312838Y-127912009D02*
X182265219Y-127816771D01*
X182265219Y-127816771D02*
X182265219Y-127578676D01*
X182265219Y-127578676D02*
X182312838Y-127435819D01*
X182265219Y-127150104D02*
X182265219Y-126578676D01*
X183265219Y-126864390D02*
X182265219Y-126864390D01*
X182741409Y-126245342D02*
X182741409Y-125912009D01*
X183265219Y-125769152D02*
X183265219Y-126245342D01*
X183265219Y-126245342D02*
X182265219Y-126245342D01*
X182265219Y-126245342D02*
X182265219Y-125769152D01*
X183265219Y-125340580D02*
X182265219Y-125340580D01*
X182265219Y-125340580D02*
X182265219Y-124959628D01*
X182265219Y-124959628D02*
X182312838Y-124864390D01*
X182312838Y-124864390D02*
X182360457Y-124816771D01*
X182360457Y-124816771D02*
X182455695Y-124769152D01*
X182455695Y-124769152D02*
X182598552Y-124769152D01*
X182598552Y-124769152D02*
X182693790Y-124816771D01*
X182693790Y-124816771D02*
X182741409Y-124864390D01*
X182741409Y-124864390D02*
X182789028Y-124959628D01*
X182789028Y-124959628D02*
X182789028Y-125340580D01*
X179722038Y-134795504D02*
X179674419Y-134890742D01*
X179674419Y-134890742D02*
X179674419Y-135033599D01*
X179674419Y-135033599D02*
X179722038Y-135176456D01*
X179722038Y-135176456D02*
X179817276Y-135271694D01*
X179817276Y-135271694D02*
X179912514Y-135319313D01*
X179912514Y-135319313D02*
X180102990Y-135366932D01*
X180102990Y-135366932D02*
X180245847Y-135366932D01*
X180245847Y-135366932D02*
X180436323Y-135319313D01*
X180436323Y-135319313D02*
X180531561Y-135271694D01*
X180531561Y-135271694D02*
X180626800Y-135176456D01*
X180626800Y-135176456D02*
X180674419Y-135033599D01*
X180674419Y-135033599D02*
X180674419Y-134938361D01*
X180674419Y-134938361D02*
X180626800Y-134795504D01*
X180626800Y-134795504D02*
X180579180Y-134747885D01*
X180579180Y-134747885D02*
X180245847Y-134747885D01*
X180245847Y-134747885D02*
X180245847Y-134938361D01*
X180674419Y-134319313D02*
X179674419Y-134319313D01*
X179674419Y-134319313D02*
X180674419Y-133747885D01*
X180674419Y-133747885D02*
X179674419Y-133747885D01*
X180674419Y-133271694D02*
X179674419Y-133271694D01*
X179674419Y-133271694D02*
X179674419Y-133033599D01*
X179674419Y-133033599D02*
X179722038Y-132890742D01*
X179722038Y-132890742D02*
X179817276Y-132795504D01*
X179817276Y-132795504D02*
X179912514Y-132747885D01*
X179912514Y-132747885D02*
X180102990Y-132700266D01*
X180102990Y-132700266D02*
X180245847Y-132700266D01*
X180245847Y-132700266D02*
X180436323Y-132747885D01*
X180436323Y-132747885D02*
X180531561Y-132795504D01*
X180531561Y-132795504D02*
X180626800Y-132890742D01*
X180626800Y-132890742D02*
X180674419Y-133033599D01*
X180674419Y-133033599D02*
X180674419Y-133271694D01*
D10*
X198649604Y-125334847D02*
X198649604Y-125168180D01*
X198911509Y-125096752D02*
X198911509Y-125334847D01*
X198911509Y-125334847D02*
X198411509Y-125334847D01*
X198411509Y-125334847D02*
X198411509Y-125096752D01*
X198911509Y-124882466D02*
X198411509Y-124882466D01*
X198411509Y-124882466D02*
X198911509Y-124596752D01*
X198911509Y-124596752D02*
X198411509Y-124596752D01*
X198272700Y-125403895D02*
X198272700Y-124527704D01*
D11*
X185678219Y-134857485D02*
X185678219Y-135428913D01*
X185678219Y-135143199D02*
X184678219Y-135143199D01*
X184678219Y-135143199D02*
X184821076Y-135238437D01*
X184821076Y-135238437D02*
X184916314Y-135333675D01*
X184916314Y-135333675D02*
X184963933Y-135428913D01*
X185154409Y-134095580D02*
X185202028Y-133952723D01*
X185202028Y-133952723D02*
X185249647Y-133905104D01*
X185249647Y-133905104D02*
X185344885Y-133857485D01*
X185344885Y-133857485D02*
X185487742Y-133857485D01*
X185487742Y-133857485D02*
X185582980Y-133905104D01*
X185582980Y-133905104D02*
X185630600Y-133952723D01*
X185630600Y-133952723D02*
X185678219Y-134047961D01*
X185678219Y-134047961D02*
X185678219Y-134428913D01*
X185678219Y-134428913D02*
X184678219Y-134428913D01*
X184678219Y-134428913D02*
X184678219Y-134095580D01*
X184678219Y-134095580D02*
X184725838Y-134000342D01*
X184725838Y-134000342D02*
X184773457Y-133952723D01*
X184773457Y-133952723D02*
X184868695Y-133905104D01*
X184868695Y-133905104D02*
X184963933Y-133905104D01*
X184963933Y-133905104D02*
X185059171Y-133952723D01*
X185059171Y-133952723D02*
X185106790Y-134000342D01*
X185106790Y-134000342D02*
X185154409Y-134095580D01*
X185154409Y-134095580D02*
X185154409Y-134428913D01*
D10*
X195234919Y-135100352D02*
X195211109Y-135147971D01*
X195211109Y-135147971D02*
X195211109Y-135219400D01*
X195211109Y-135219400D02*
X195234919Y-135290828D01*
X195234919Y-135290828D02*
X195282538Y-135338447D01*
X195282538Y-135338447D02*
X195330157Y-135362257D01*
X195330157Y-135362257D02*
X195425395Y-135386066D01*
X195425395Y-135386066D02*
X195496823Y-135386066D01*
X195496823Y-135386066D02*
X195592061Y-135362257D01*
X195592061Y-135362257D02*
X195639680Y-135338447D01*
X195639680Y-135338447D02*
X195687300Y-135290828D01*
X195687300Y-135290828D02*
X195711109Y-135219400D01*
X195711109Y-135219400D02*
X195711109Y-135171781D01*
X195711109Y-135171781D02*
X195687300Y-135100352D01*
X195687300Y-135100352D02*
X195663490Y-135076543D01*
X195663490Y-135076543D02*
X195496823Y-135076543D01*
X195496823Y-135076543D02*
X195496823Y-135171781D01*
X195711109Y-134862257D02*
X195211109Y-134862257D01*
X195211109Y-134862257D02*
X195711109Y-134576543D01*
X195711109Y-134576543D02*
X195211109Y-134576543D01*
X195711109Y-134338447D02*
X195211109Y-134338447D01*
X195211109Y-134338447D02*
X195211109Y-134219399D01*
X195211109Y-134219399D02*
X195234919Y-134147971D01*
X195234919Y-134147971D02*
X195282538Y-134100352D01*
X195282538Y-134100352D02*
X195330157Y-134076542D01*
X195330157Y-134076542D02*
X195425395Y-134052733D01*
X195425395Y-134052733D02*
X195496823Y-134052733D01*
X195496823Y-134052733D02*
X195592061Y-134076542D01*
X195592061Y-134076542D02*
X195639680Y-134100352D01*
X195639680Y-134100352D02*
X195687300Y-134147971D01*
X195687300Y-134147971D02*
X195711109Y-134219399D01*
X195711109Y-134219399D02*
X195711109Y-134338447D01*
D11*
X182290619Y-135443132D02*
X183290619Y-135109799D01*
X183290619Y-135109799D02*
X182290619Y-134776466D01*
X183290619Y-134443132D02*
X182290619Y-134443132D01*
X182290619Y-134443132D02*
X182290619Y-134205037D01*
X182290619Y-134205037D02*
X182338238Y-134062180D01*
X182338238Y-134062180D02*
X182433476Y-133966942D01*
X182433476Y-133966942D02*
X182528714Y-133919323D01*
X182528714Y-133919323D02*
X182719190Y-133871704D01*
X182719190Y-133871704D02*
X182862047Y-133871704D01*
X182862047Y-133871704D02*
X183052523Y-133919323D01*
X183052523Y-133919323D02*
X183147761Y-133966942D01*
X183147761Y-133966942D02*
X183243000Y-134062180D01*
X183243000Y-134062180D02*
X183290619Y-134205037D01*
X183290619Y-134205037D02*
X183290619Y-134443132D01*
X183290619Y-133443132D02*
X182290619Y-133443132D01*
X182290619Y-133443132D02*
X182290619Y-133205037D01*
X182290619Y-133205037D02*
X182338238Y-133062180D01*
X182338238Y-133062180D02*
X182433476Y-132966942D01*
X182433476Y-132966942D02*
X182528714Y-132919323D01*
X182528714Y-132919323D02*
X182719190Y-132871704D01*
X182719190Y-132871704D02*
X182862047Y-132871704D01*
X182862047Y-132871704D02*
X183052523Y-132919323D01*
X183052523Y-132919323D02*
X183147761Y-132966942D01*
X183147761Y-132966942D02*
X183243000Y-133062180D01*
X183243000Y-133062180D02*
X183290619Y-133205037D01*
X183290619Y-133205037D02*
X183290619Y-133443132D01*
D10*
X188092700Y-128409646D02*
X188116509Y-128338218D01*
X188116509Y-128338218D02*
X188116509Y-128219170D01*
X188116509Y-128219170D02*
X188092700Y-128171551D01*
X188092700Y-128171551D02*
X188068890Y-128147742D01*
X188068890Y-128147742D02*
X188021271Y-128123932D01*
X188021271Y-128123932D02*
X187973652Y-128123932D01*
X187973652Y-128123932D02*
X187926033Y-128147742D01*
X187926033Y-128147742D02*
X187902223Y-128171551D01*
X187902223Y-128171551D02*
X187878414Y-128219170D01*
X187878414Y-128219170D02*
X187854604Y-128314408D01*
X187854604Y-128314408D02*
X187830795Y-128362027D01*
X187830795Y-128362027D02*
X187806985Y-128385837D01*
X187806985Y-128385837D02*
X187759366Y-128409646D01*
X187759366Y-128409646D02*
X187711747Y-128409646D01*
X187711747Y-128409646D02*
X187664128Y-128385837D01*
X187664128Y-128385837D02*
X187640319Y-128362027D01*
X187640319Y-128362027D02*
X187616509Y-128314408D01*
X187616509Y-128314408D02*
X187616509Y-128195361D01*
X187616509Y-128195361D02*
X187640319Y-128123932D01*
X188116509Y-127909647D02*
X187616509Y-127909647D01*
X187616509Y-127909647D02*
X187616509Y-127790599D01*
X187616509Y-127790599D02*
X187640319Y-127719171D01*
X187640319Y-127719171D02*
X187687938Y-127671552D01*
X187687938Y-127671552D02*
X187735557Y-127647742D01*
X187735557Y-127647742D02*
X187830795Y-127623933D01*
X187830795Y-127623933D02*
X187902223Y-127623933D01*
X187902223Y-127623933D02*
X187997461Y-127647742D01*
X187997461Y-127647742D02*
X188045080Y-127671552D01*
X188045080Y-127671552D02*
X188092700Y-127719171D01*
X188092700Y-127719171D02*
X188116509Y-127790599D01*
X188116509Y-127790599D02*
X188116509Y-127909647D01*
X187616509Y-127314409D02*
X187616509Y-127219171D01*
X187616509Y-127219171D02*
X187640319Y-127171552D01*
X187640319Y-127171552D02*
X187687938Y-127123933D01*
X187687938Y-127123933D02*
X187783176Y-127100123D01*
X187783176Y-127100123D02*
X187949842Y-127100123D01*
X187949842Y-127100123D02*
X188045080Y-127123933D01*
X188045080Y-127123933D02*
X188092700Y-127171552D01*
X188092700Y-127171552D02*
X188116509Y-127219171D01*
X188116509Y-127219171D02*
X188116509Y-127314409D01*
X188116509Y-127314409D02*
X188092700Y-127362028D01*
X188092700Y-127362028D02*
X188045080Y-127409647D01*
X188045080Y-127409647D02*
X187949842Y-127433456D01*
X187949842Y-127433456D02*
X187783176Y-127433456D01*
X187783176Y-127433456D02*
X187687938Y-127409647D01*
X187687938Y-127409647D02*
X187640319Y-127362028D01*
X187640319Y-127362028D02*
X187616509Y-127314409D01*
X187592700Y-126528694D02*
X188235557Y-126957265D01*
X188068890Y-126076313D02*
X188092700Y-126100122D01*
X188092700Y-126100122D02*
X188116509Y-126171551D01*
X188116509Y-126171551D02*
X188116509Y-126219170D01*
X188116509Y-126219170D02*
X188092700Y-126290598D01*
X188092700Y-126290598D02*
X188045080Y-126338217D01*
X188045080Y-126338217D02*
X187997461Y-126362027D01*
X187997461Y-126362027D02*
X187902223Y-126385836D01*
X187902223Y-126385836D02*
X187830795Y-126385836D01*
X187830795Y-126385836D02*
X187735557Y-126362027D01*
X187735557Y-126362027D02*
X187687938Y-126338217D01*
X187687938Y-126338217D02*
X187640319Y-126290598D01*
X187640319Y-126290598D02*
X187616509Y-126219170D01*
X187616509Y-126219170D02*
X187616509Y-126171551D01*
X187616509Y-126171551D02*
X187640319Y-126100122D01*
X187640319Y-126100122D02*
X187664128Y-126076313D01*
X187854604Y-125695360D02*
X187854604Y-125862027D01*
X188116509Y-125862027D02*
X187616509Y-125862027D01*
X187616509Y-125862027D02*
X187616509Y-125623932D01*
X187640319Y-125171551D02*
X187616509Y-125219170D01*
X187616509Y-125219170D02*
X187616509Y-125290599D01*
X187616509Y-125290599D02*
X187640319Y-125362027D01*
X187640319Y-125362027D02*
X187687938Y-125409646D01*
X187687938Y-125409646D02*
X187735557Y-125433456D01*
X187735557Y-125433456D02*
X187830795Y-125457265D01*
X187830795Y-125457265D02*
X187902223Y-125457265D01*
X187902223Y-125457265D02*
X187997461Y-125433456D01*
X187997461Y-125433456D02*
X188045080Y-125409646D01*
X188045080Y-125409646D02*
X188092700Y-125362027D01*
X188092700Y-125362027D02*
X188116509Y-125290599D01*
X188116509Y-125290599D02*
X188116509Y-125242980D01*
X188116509Y-125242980D02*
X188092700Y-125171551D01*
X188092700Y-125171551D02*
X188068890Y-125147742D01*
X188068890Y-125147742D02*
X187902223Y-125147742D01*
X187902223Y-125147742D02*
X187902223Y-125242980D01*
X187616509Y-124838218D02*
X187616509Y-124790599D01*
X187616509Y-124790599D02*
X187640319Y-124742980D01*
X187640319Y-124742980D02*
X187664128Y-124719170D01*
X187664128Y-124719170D02*
X187711747Y-124695361D01*
X187711747Y-124695361D02*
X187806985Y-124671551D01*
X187806985Y-124671551D02*
X187926033Y-124671551D01*
X187926033Y-124671551D02*
X188021271Y-124695361D01*
X188021271Y-124695361D02*
X188068890Y-124719170D01*
X188068890Y-124719170D02*
X188092700Y-124742980D01*
X188092700Y-124742980D02*
X188116509Y-124790599D01*
X188116509Y-124790599D02*
X188116509Y-124838218D01*
X188116509Y-124838218D02*
X188092700Y-124885837D01*
X188092700Y-124885837D02*
X188068890Y-124909646D01*
X188068890Y-124909646D02*
X188021271Y-124933456D01*
X188021271Y-124933456D02*
X187926033Y-124957265D01*
X187926033Y-124957265D02*
X187806985Y-124957265D01*
X187806985Y-124957265D02*
X187711747Y-124933456D01*
X187711747Y-124933456D02*
X187664128Y-124909646D01*
X187664128Y-124909646D02*
X187640319Y-124885837D01*
X187640319Y-124885837D02*
X187616509Y-124838218D01*
X190583490Y-127609618D02*
X190607300Y-127633427D01*
X190607300Y-127633427D02*
X190631109Y-127704856D01*
X190631109Y-127704856D02*
X190631109Y-127752475D01*
X190631109Y-127752475D02*
X190607300Y-127823903D01*
X190607300Y-127823903D02*
X190559680Y-127871522D01*
X190559680Y-127871522D02*
X190512061Y-127895332D01*
X190512061Y-127895332D02*
X190416823Y-127919141D01*
X190416823Y-127919141D02*
X190345395Y-127919141D01*
X190345395Y-127919141D02*
X190250157Y-127895332D01*
X190250157Y-127895332D02*
X190202538Y-127871522D01*
X190202538Y-127871522D02*
X190154919Y-127823903D01*
X190154919Y-127823903D02*
X190131109Y-127752475D01*
X190131109Y-127752475D02*
X190131109Y-127704856D01*
X190131109Y-127704856D02*
X190154919Y-127633427D01*
X190154919Y-127633427D02*
X190178728Y-127609618D01*
X190607300Y-127419141D02*
X190631109Y-127347713D01*
X190631109Y-127347713D02*
X190631109Y-127228665D01*
X190631109Y-127228665D02*
X190607300Y-127181046D01*
X190607300Y-127181046D02*
X190583490Y-127157237D01*
X190583490Y-127157237D02*
X190535871Y-127133427D01*
X190535871Y-127133427D02*
X190488252Y-127133427D01*
X190488252Y-127133427D02*
X190440633Y-127157237D01*
X190440633Y-127157237D02*
X190416823Y-127181046D01*
X190416823Y-127181046D02*
X190393014Y-127228665D01*
X190393014Y-127228665D02*
X190369204Y-127323903D01*
X190369204Y-127323903D02*
X190345395Y-127371522D01*
X190345395Y-127371522D02*
X190321585Y-127395332D01*
X190321585Y-127395332D02*
X190273966Y-127419141D01*
X190273966Y-127419141D02*
X190226347Y-127419141D01*
X190226347Y-127419141D02*
X190178728Y-127395332D01*
X190178728Y-127395332D02*
X190154919Y-127371522D01*
X190154919Y-127371522D02*
X190131109Y-127323903D01*
X190131109Y-127323903D02*
X190131109Y-127204856D01*
X190131109Y-127204856D02*
X190154919Y-127133427D01*
X190107300Y-126561999D02*
X190750157Y-126990570D01*
X190583490Y-126109618D02*
X190607300Y-126133427D01*
X190607300Y-126133427D02*
X190631109Y-126204856D01*
X190631109Y-126204856D02*
X190631109Y-126252475D01*
X190631109Y-126252475D02*
X190607300Y-126323903D01*
X190607300Y-126323903D02*
X190559680Y-126371522D01*
X190559680Y-126371522D02*
X190512061Y-126395332D01*
X190512061Y-126395332D02*
X190416823Y-126419141D01*
X190416823Y-126419141D02*
X190345395Y-126419141D01*
X190345395Y-126419141D02*
X190250157Y-126395332D01*
X190250157Y-126395332D02*
X190202538Y-126371522D01*
X190202538Y-126371522D02*
X190154919Y-126323903D01*
X190154919Y-126323903D02*
X190131109Y-126252475D01*
X190131109Y-126252475D02*
X190131109Y-126204856D01*
X190131109Y-126204856D02*
X190154919Y-126133427D01*
X190154919Y-126133427D02*
X190178728Y-126109618D01*
X190369204Y-125728665D02*
X190369204Y-125895332D01*
X190631109Y-125895332D02*
X190131109Y-125895332D01*
X190131109Y-125895332D02*
X190131109Y-125657237D01*
X190154919Y-125204856D02*
X190131109Y-125252475D01*
X190131109Y-125252475D02*
X190131109Y-125323904D01*
X190131109Y-125323904D02*
X190154919Y-125395332D01*
X190154919Y-125395332D02*
X190202538Y-125442951D01*
X190202538Y-125442951D02*
X190250157Y-125466761D01*
X190250157Y-125466761D02*
X190345395Y-125490570D01*
X190345395Y-125490570D02*
X190416823Y-125490570D01*
X190416823Y-125490570D02*
X190512061Y-125466761D01*
X190512061Y-125466761D02*
X190559680Y-125442951D01*
X190559680Y-125442951D02*
X190607300Y-125395332D01*
X190607300Y-125395332D02*
X190631109Y-125323904D01*
X190631109Y-125323904D02*
X190631109Y-125276285D01*
X190631109Y-125276285D02*
X190607300Y-125204856D01*
X190607300Y-125204856D02*
X190583490Y-125181047D01*
X190583490Y-125181047D02*
X190416823Y-125181047D01*
X190416823Y-125181047D02*
X190416823Y-125276285D01*
X190131109Y-125014380D02*
X190131109Y-124704856D01*
X190131109Y-124704856D02*
X190321585Y-124871523D01*
X190321585Y-124871523D02*
X190321585Y-124800094D01*
X190321585Y-124800094D02*
X190345395Y-124752475D01*
X190345395Y-124752475D02*
X190369204Y-124728666D01*
X190369204Y-124728666D02*
X190416823Y-124704856D01*
X190416823Y-124704856D02*
X190535871Y-124704856D01*
X190535871Y-124704856D02*
X190583490Y-124728666D01*
X190583490Y-124728666D02*
X190607300Y-124752475D01*
X190607300Y-124752475D02*
X190631109Y-124800094D01*
X190631109Y-124800094D02*
X190631109Y-124942951D01*
X190631109Y-124942951D02*
X190607300Y-124990570D01*
X190607300Y-124990570D02*
X190583490Y-125014380D01*
X197751109Y-135307503D02*
X198251109Y-135140837D01*
X198251109Y-135140837D02*
X197751109Y-134974170D01*
X198251109Y-134807504D02*
X197917776Y-134807504D01*
X197751109Y-134807504D02*
X197774919Y-134831313D01*
X197774919Y-134831313D02*
X197798728Y-134807504D01*
X197798728Y-134807504D02*
X197774919Y-134783694D01*
X197774919Y-134783694D02*
X197751109Y-134807504D01*
X197751109Y-134807504D02*
X197798728Y-134807504D01*
X197917776Y-134569409D02*
X198251109Y-134569409D01*
X197965395Y-134569409D02*
X197941585Y-134545599D01*
X197941585Y-134545599D02*
X197917776Y-134497980D01*
X197917776Y-134497980D02*
X197917776Y-134426552D01*
X197917776Y-134426552D02*
X197941585Y-134378933D01*
X197941585Y-134378933D02*
X197989204Y-134355123D01*
X197989204Y-134355123D02*
X198251109Y-134355123D01*
X197006509Y-126287275D02*
X196506509Y-126287275D01*
X196506509Y-126287275D02*
X196506509Y-126168227D01*
X196506509Y-126168227D02*
X196530319Y-126096799D01*
X196530319Y-126096799D02*
X196577938Y-126049180D01*
X196577938Y-126049180D02*
X196625557Y-126025370D01*
X196625557Y-126025370D02*
X196720795Y-126001561D01*
X196720795Y-126001561D02*
X196792223Y-126001561D01*
X196792223Y-126001561D02*
X196887461Y-126025370D01*
X196887461Y-126025370D02*
X196935080Y-126049180D01*
X196935080Y-126049180D02*
X196982700Y-126096799D01*
X196982700Y-126096799D02*
X197006509Y-126168227D01*
X197006509Y-126168227D02*
X197006509Y-126287275D01*
X197006509Y-125787275D02*
X196673176Y-125787275D01*
X196506509Y-125787275D02*
X196530319Y-125811084D01*
X196530319Y-125811084D02*
X196554128Y-125787275D01*
X196554128Y-125787275D02*
X196530319Y-125763465D01*
X196530319Y-125763465D02*
X196506509Y-125787275D01*
X196506509Y-125787275D02*
X196554128Y-125787275D01*
X197006509Y-125334894D02*
X196744604Y-125334894D01*
X196744604Y-125334894D02*
X196696985Y-125358704D01*
X196696985Y-125358704D02*
X196673176Y-125406323D01*
X196673176Y-125406323D02*
X196673176Y-125501561D01*
X196673176Y-125501561D02*
X196696985Y-125549180D01*
X196982700Y-125334894D02*
X197006509Y-125382513D01*
X197006509Y-125382513D02*
X197006509Y-125501561D01*
X197006509Y-125501561D02*
X196982700Y-125549180D01*
X196982700Y-125549180D02*
X196935080Y-125572989D01*
X196935080Y-125572989D02*
X196887461Y-125572989D01*
X196887461Y-125572989D02*
X196839842Y-125549180D01*
X196839842Y-125549180D02*
X196816033Y-125501561D01*
X196816033Y-125501561D02*
X196816033Y-125382513D01*
X196816033Y-125382513D02*
X196792223Y-125334894D01*
X196673176Y-124882513D02*
X197077938Y-124882513D01*
X197077938Y-124882513D02*
X197125557Y-124906323D01*
X197125557Y-124906323D02*
X197149366Y-124930132D01*
X197149366Y-124930132D02*
X197173176Y-124977751D01*
X197173176Y-124977751D02*
X197173176Y-125049180D01*
X197173176Y-125049180D02*
X197149366Y-125096799D01*
X196982700Y-124882513D02*
X197006509Y-124930132D01*
X197006509Y-124930132D02*
X197006509Y-125025370D01*
X197006509Y-125025370D02*
X196982700Y-125072989D01*
X196982700Y-125072989D02*
X196958890Y-125096799D01*
X196958890Y-125096799D02*
X196911271Y-125120608D01*
X196911271Y-125120608D02*
X196768414Y-125120608D01*
X196768414Y-125120608D02*
X196720795Y-125096799D01*
X196720795Y-125096799D02*
X196696985Y-125072989D01*
X196696985Y-125072989D02*
X196673176Y-125025370D01*
X196673176Y-125025370D02*
X196673176Y-124930132D01*
X196673176Y-124930132D02*
X196696985Y-124882513D01*
X196506509Y-124549180D02*
X196506509Y-124501561D01*
X196506509Y-124501561D02*
X196530319Y-124453942D01*
X196530319Y-124453942D02*
X196554128Y-124430132D01*
X196554128Y-124430132D02*
X196601747Y-124406323D01*
X196601747Y-124406323D02*
X196696985Y-124382513D01*
X196696985Y-124382513D02*
X196816033Y-124382513D01*
X196816033Y-124382513D02*
X196911271Y-124406323D01*
X196911271Y-124406323D02*
X196958890Y-124430132D01*
X196958890Y-124430132D02*
X196982700Y-124453942D01*
X196982700Y-124453942D02*
X197006509Y-124501561D01*
X197006509Y-124501561D02*
X197006509Y-124549180D01*
X197006509Y-124549180D02*
X196982700Y-124596799D01*
X196982700Y-124596799D02*
X196958890Y-124620608D01*
X196958890Y-124620608D02*
X196911271Y-124644418D01*
X196911271Y-124644418D02*
X196816033Y-124668227D01*
X196816033Y-124668227D02*
X196696985Y-124668227D01*
X196696985Y-124668227D02*
X196601747Y-124644418D01*
X196601747Y-124644418D02*
X196554128Y-124620608D01*
X196554128Y-124620608D02*
X196530319Y-124596799D01*
X196530319Y-124596799D02*
X196506509Y-124549180D01*
D11*
X192876009Y-135047961D02*
X192923628Y-134905104D01*
X192923628Y-134905104D02*
X192971247Y-134857485D01*
X192971247Y-134857485D02*
X193066485Y-134809866D01*
X193066485Y-134809866D02*
X193209342Y-134809866D01*
X193209342Y-134809866D02*
X193304580Y-134857485D01*
X193304580Y-134857485D02*
X193352200Y-134905104D01*
X193352200Y-134905104D02*
X193399819Y-135000342D01*
X193399819Y-135000342D02*
X193399819Y-135381294D01*
X193399819Y-135381294D02*
X192399819Y-135381294D01*
X192399819Y-135381294D02*
X192399819Y-135047961D01*
X192399819Y-135047961D02*
X192447438Y-134952723D01*
X192447438Y-134952723D02*
X192495057Y-134905104D01*
X192495057Y-134905104D02*
X192590295Y-134857485D01*
X192590295Y-134857485D02*
X192685533Y-134857485D01*
X192685533Y-134857485D02*
X192780771Y-134905104D01*
X192780771Y-134905104D02*
X192828390Y-134952723D01*
X192828390Y-134952723D02*
X192876009Y-135047961D01*
X192876009Y-135047961D02*
X192876009Y-135381294D01*
X192495057Y-134428913D02*
X192447438Y-134381294D01*
X192447438Y-134381294D02*
X192399819Y-134286056D01*
X192399819Y-134286056D02*
X192399819Y-134047961D01*
X192399819Y-134047961D02*
X192447438Y-133952723D01*
X192447438Y-133952723D02*
X192495057Y-133905104D01*
X192495057Y-133905104D02*
X192590295Y-133857485D01*
X192590295Y-133857485D02*
X192685533Y-133857485D01*
X192685533Y-133857485D02*
X192828390Y-133905104D01*
X192828390Y-133905104D02*
X193399819Y-134476532D01*
X193399819Y-134476532D02*
X193399819Y-133857485D01*
D10*
X198276509Y-131748275D02*
X197776509Y-131748275D01*
X197776509Y-131748275D02*
X197776509Y-131629227D01*
X197776509Y-131629227D02*
X197800319Y-131557799D01*
X197800319Y-131557799D02*
X197847938Y-131510180D01*
X197847938Y-131510180D02*
X197895557Y-131486370D01*
X197895557Y-131486370D02*
X197990795Y-131462561D01*
X197990795Y-131462561D02*
X198062223Y-131462561D01*
X198062223Y-131462561D02*
X198157461Y-131486370D01*
X198157461Y-131486370D02*
X198205080Y-131510180D01*
X198205080Y-131510180D02*
X198252700Y-131557799D01*
X198252700Y-131557799D02*
X198276509Y-131629227D01*
X198276509Y-131629227D02*
X198276509Y-131748275D01*
X198276509Y-131248275D02*
X197943176Y-131248275D01*
X197776509Y-131248275D02*
X197800319Y-131272084D01*
X197800319Y-131272084D02*
X197824128Y-131248275D01*
X197824128Y-131248275D02*
X197800319Y-131224465D01*
X197800319Y-131224465D02*
X197776509Y-131248275D01*
X197776509Y-131248275D02*
X197824128Y-131248275D01*
X198276509Y-130795894D02*
X198014604Y-130795894D01*
X198014604Y-130795894D02*
X197966985Y-130819704D01*
X197966985Y-130819704D02*
X197943176Y-130867323D01*
X197943176Y-130867323D02*
X197943176Y-130962561D01*
X197943176Y-130962561D02*
X197966985Y-131010180D01*
X198252700Y-130795894D02*
X198276509Y-130843513D01*
X198276509Y-130843513D02*
X198276509Y-130962561D01*
X198276509Y-130962561D02*
X198252700Y-131010180D01*
X198252700Y-131010180D02*
X198205080Y-131033989D01*
X198205080Y-131033989D02*
X198157461Y-131033989D01*
X198157461Y-131033989D02*
X198109842Y-131010180D01*
X198109842Y-131010180D02*
X198086033Y-130962561D01*
X198086033Y-130962561D02*
X198086033Y-130843513D01*
X198086033Y-130843513D02*
X198062223Y-130795894D01*
X197943176Y-130343513D02*
X198347938Y-130343513D01*
X198347938Y-130343513D02*
X198395557Y-130367323D01*
X198395557Y-130367323D02*
X198419366Y-130391132D01*
X198419366Y-130391132D02*
X198443176Y-130438751D01*
X198443176Y-130438751D02*
X198443176Y-130510180D01*
X198443176Y-130510180D02*
X198419366Y-130557799D01*
X198252700Y-130343513D02*
X198276509Y-130391132D01*
X198276509Y-130391132D02*
X198276509Y-130486370D01*
X198276509Y-130486370D02*
X198252700Y-130533989D01*
X198252700Y-130533989D02*
X198228890Y-130557799D01*
X198228890Y-130557799D02*
X198181271Y-130581608D01*
X198181271Y-130581608D02*
X198038414Y-130581608D01*
X198038414Y-130581608D02*
X197990795Y-130557799D01*
X197990795Y-130557799D02*
X197966985Y-130533989D01*
X197966985Y-130533989D02*
X197943176Y-130486370D01*
X197943176Y-130486370D02*
X197943176Y-130391132D01*
X197943176Y-130391132D02*
X197966985Y-130343513D01*
X198276509Y-129843513D02*
X198276509Y-130129227D01*
X198276509Y-129986370D02*
X197776509Y-129986370D01*
X197776509Y-129986370D02*
X197847938Y-130033989D01*
X197847938Y-130033989D02*
X197895557Y-130081608D01*
X197895557Y-130081608D02*
X197919366Y-130129227D01*
D11*
X188008704Y-135433685D02*
X188008704Y-134957495D01*
X188294419Y-135528923D02*
X187294419Y-135195590D01*
X187294419Y-135195590D02*
X188294419Y-134862257D01*
X188294419Y-134005114D02*
X188294419Y-134576542D01*
X188294419Y-134290828D02*
X187294419Y-134290828D01*
X187294419Y-134290828D02*
X187437276Y-134386066D01*
X187437276Y-134386066D02*
X187532514Y-134481304D01*
X187532514Y-134481304D02*
X187580133Y-134576542D01*
X185932219Y-127270694D02*
X184932219Y-127270694D01*
X184932219Y-127270694D02*
X184932219Y-127032599D01*
X184932219Y-127032599D02*
X184979838Y-126889742D01*
X184979838Y-126889742D02*
X185075076Y-126794504D01*
X185075076Y-126794504D02*
X185170314Y-126746885D01*
X185170314Y-126746885D02*
X185360790Y-126699266D01*
X185360790Y-126699266D02*
X185503647Y-126699266D01*
X185503647Y-126699266D02*
X185694123Y-126746885D01*
X185694123Y-126746885D02*
X185789361Y-126794504D01*
X185789361Y-126794504D02*
X185884600Y-126889742D01*
X185884600Y-126889742D02*
X185932219Y-127032599D01*
X185932219Y-127032599D02*
X185932219Y-127270694D01*
X185836980Y-125699266D02*
X185884600Y-125746885D01*
X185884600Y-125746885D02*
X185932219Y-125889742D01*
X185932219Y-125889742D02*
X185932219Y-125984980D01*
X185932219Y-125984980D02*
X185884600Y-126127837D01*
X185884600Y-126127837D02*
X185789361Y-126223075D01*
X185789361Y-126223075D02*
X185694123Y-126270694D01*
X185694123Y-126270694D02*
X185503647Y-126318313D01*
X185503647Y-126318313D02*
X185360790Y-126318313D01*
X185360790Y-126318313D02*
X185170314Y-126270694D01*
X185170314Y-126270694D02*
X185075076Y-126223075D01*
X185075076Y-126223075D02*
X184979838Y-126127837D01*
X184979838Y-126127837D02*
X184932219Y-125984980D01*
X184932219Y-125984980D02*
X184932219Y-125889742D01*
X184932219Y-125889742D02*
X184979838Y-125746885D01*
X184979838Y-125746885D02*
X185027457Y-125699266D01*
X184932219Y-125080218D02*
X184932219Y-124984980D01*
X184932219Y-124984980D02*
X184979838Y-124889742D01*
X184979838Y-124889742D02*
X185027457Y-124842123D01*
X185027457Y-124842123D02*
X185122695Y-124794504D01*
X185122695Y-124794504D02*
X185313171Y-124746885D01*
X185313171Y-124746885D02*
X185551266Y-124746885D01*
X185551266Y-124746885D02*
X185741742Y-124794504D01*
X185741742Y-124794504D02*
X185836980Y-124842123D01*
X185836980Y-124842123D02*
X185884600Y-124889742D01*
X185884600Y-124889742D02*
X185932219Y-124984980D01*
X185932219Y-124984980D02*
X185932219Y-125080218D01*
X185932219Y-125080218D02*
X185884600Y-125175456D01*
X185884600Y-125175456D02*
X185836980Y-125223075D01*
X185836980Y-125223075D02*
X185741742Y-125270694D01*
X185741742Y-125270694D02*
X185551266Y-125318313D01*
X185551266Y-125318313D02*
X185313171Y-125318313D01*
X185313171Y-125318313D02*
X185122695Y-125270694D01*
X185122695Y-125270694D02*
X185027457Y-125223075D01*
X185027457Y-125223075D02*
X184979838Y-125175456D01*
X184979838Y-125175456D02*
X184932219Y-125080218D01*
X170481666Y-121638819D02*
X170481666Y-122353104D01*
X170481666Y-122353104D02*
X170434047Y-122495961D01*
X170434047Y-122495961D02*
X170338809Y-122591200D01*
X170338809Y-122591200D02*
X170195952Y-122638819D01*
X170195952Y-122638819D02*
X170100714Y-122638819D01*
X170862619Y-121638819D02*
X171481666Y-121638819D01*
X171481666Y-121638819D02*
X171148333Y-122019771D01*
X171148333Y-122019771D02*
X171291190Y-122019771D01*
X171291190Y-122019771D02*
X171386428Y-122067390D01*
X171386428Y-122067390D02*
X171434047Y-122115009D01*
X171434047Y-122115009D02*
X171481666Y-122210247D01*
X171481666Y-122210247D02*
X171481666Y-122448342D01*
X171481666Y-122448342D02*
X171434047Y-122543580D01*
X171434047Y-122543580D02*
X171386428Y-122591200D01*
X171386428Y-122591200D02*
X171291190Y-122638819D01*
X171291190Y-122638819D02*
X171005476Y-122638819D01*
X171005476Y-122638819D02*
X170910238Y-122591200D01*
X170910238Y-122591200D02*
X170862619Y-122543580D01*
X159686666Y-121628819D02*
X159686666Y-122343104D01*
X159686666Y-122343104D02*
X159639047Y-122485961D01*
X159639047Y-122485961D02*
X159543809Y-122581200D01*
X159543809Y-122581200D02*
X159400952Y-122628819D01*
X159400952Y-122628819D02*
X159305714Y-122628819D01*
X160591428Y-121962152D02*
X160591428Y-122628819D01*
X160353333Y-121581200D02*
X160115238Y-122295485D01*
X160115238Y-122295485D02*
X160734285Y-122295485D01*
X202257819Y-134151666D02*
X201781628Y-134484999D01*
X202257819Y-134723094D02*
X201257819Y-134723094D01*
X201257819Y-134723094D02*
X201257819Y-134342142D01*
X201257819Y-134342142D02*
X201305438Y-134246904D01*
X201305438Y-134246904D02*
X201353057Y-134199285D01*
X201353057Y-134199285D02*
X201448295Y-134151666D01*
X201448295Y-134151666D02*
X201591152Y-134151666D01*
X201591152Y-134151666D02*
X201686390Y-134199285D01*
X201686390Y-134199285D02*
X201734009Y-134246904D01*
X201734009Y-134246904D02*
X201781628Y-134342142D01*
X201781628Y-134342142D02*
X201781628Y-134723094D01*
X202257819Y-133199285D02*
X202257819Y-133770713D01*
X202257819Y-133484999D02*
X201257819Y-133484999D01*
X201257819Y-133484999D02*
X201400676Y-133580237D01*
X201400676Y-133580237D02*
X201495914Y-133675475D01*
X201495914Y-133675475D02*
X201543533Y-133770713D01*
X200326666Y-122390819D02*
X200326666Y-123105104D01*
X200326666Y-123105104D02*
X200279047Y-123247961D01*
X200279047Y-123247961D02*
X200183809Y-123343200D01*
X200183809Y-123343200D02*
X200040952Y-123390819D01*
X200040952Y-123390819D02*
X199945714Y-123390819D01*
X201326666Y-123390819D02*
X200755238Y-123390819D01*
X201040952Y-123390819D02*
X201040952Y-122390819D01*
X201040952Y-122390819D02*
X200945714Y-122533676D01*
X200945714Y-122533676D02*
X200850476Y-122628914D01*
X200850476Y-122628914D02*
X200755238Y-122676533D01*
D12*
%TO.C,R2*%
X163357436Y-133197000D02*
X163811564Y-133197000D01*
X163357436Y-134667000D02*
X163811564Y-134667000D01*
%TO.C,D1*%
X161939500Y-129977000D02*
X161939500Y-131897000D01*
X161939500Y-131897000D02*
X164624500Y-131897000D01*
X164624500Y-129977000D02*
X161939500Y-129977000D01*
%TO.C,J2*%
X213736000Y-121094000D02*
X213736000Y-113274000D01*
X213736000Y-119494000D02*
X212816000Y-119494000D01*
X213736000Y-113274000D02*
X195616000Y-113274000D01*
X212816000Y-121094000D02*
X213736000Y-121094000D01*
X212816000Y-119494000D02*
X212816000Y-121094000D01*
X212536000Y-119494000D02*
X212816000Y-119494000D01*
X212536000Y-119494000D02*
X212536000Y-120709000D01*
X212476000Y-115534000D02*
X212476000Y-113274000D01*
X211976000Y-115534000D02*
X211976000Y-113274000D01*
X211176000Y-117634000D02*
X198176000Y-117634000D01*
X211176000Y-113274000D02*
X211176000Y-117634000D01*
X198176000Y-117634000D02*
X198176000Y-113274000D01*
X196536000Y-121094000D02*
X196536000Y-119494000D01*
X196536000Y-119494000D02*
X196816000Y-119494000D01*
X195616000Y-121094000D02*
X196536000Y-121094000D01*
X195616000Y-119494000D02*
X196536000Y-119494000D01*
X195616000Y-113274000D02*
X195616000Y-121094000D01*
X212976000Y-117134000D02*
X211976000Y-117134000D01*
X211976000Y-115534000D01*
X212976000Y-115534000D01*
X212976000Y-117134000D01*
X197376000Y-117134000D02*
X196376000Y-117134000D01*
X196376000Y-115534000D01*
X197376000Y-115534000D01*
X197376000Y-117134000D01*
%TO.C,C1*%
X211182000Y-132647563D02*
X211182000Y-126892000D01*
X211182000Y-126892000D02*
X208832000Y-126892000D01*
X210117563Y-133712000D02*
X211182000Y-132647563D01*
X210117563Y-133712000D02*
X208832000Y-133712000D01*
X205924500Y-134739500D02*
X205924500Y-133952000D01*
X205530750Y-134345750D02*
X206318250Y-134345750D01*
X205426437Y-133712000D02*
X206712000Y-133712000D01*
X205426437Y-133712000D02*
X204362000Y-132647563D01*
X204362000Y-132647563D02*
X204362000Y-126892000D01*
X204362000Y-126892000D02*
X206712000Y-126892000D01*
D11*
%TO.C,U1*%
X180245000Y-137615000D02*
G75*
G02*
X178975000Y-136345000I0J1270000D01*
G01*
X199295000Y-136345000D02*
G75*
G02*
X198025000Y-137615000I-1270000J0D01*
G01*
X178975000Y-123645000D02*
G75*
G02*
X180245000Y-122375000I1269999J1D01*
G01*
X198025000Y-122375000D02*
G75*
G02*
X199295000Y-123645000I1J-1269999D01*
G01*
X180245000Y-137615000D02*
X198025000Y-137615000D01*
X178975000Y-136345000D02*
X178975000Y-123645000D01*
X199295000Y-136345000D02*
X199295000Y-123645000D01*
X198025000Y-122375000D02*
X180245000Y-122375000D01*
D12*
%TO.C,J3*%
X179145000Y-121094000D02*
X179145000Y-113274000D01*
X179145000Y-119494000D02*
X178225000Y-119494000D01*
X179145000Y-113274000D02*
X171025000Y-113274000D01*
X178225000Y-121094000D02*
X179145000Y-121094000D01*
X178225000Y-119494000D02*
X178225000Y-121094000D01*
X177945000Y-119494000D02*
X178225000Y-119494000D01*
X177945000Y-119494000D02*
X177945000Y-120709000D01*
X177885000Y-115534000D02*
X177885000Y-113274000D01*
X177385000Y-115534000D02*
X177385000Y-113274000D01*
X176585000Y-117634000D02*
X173585000Y-117634000D01*
X176585000Y-113274000D02*
X176585000Y-117634000D01*
X173585000Y-117634000D02*
X173585000Y-113274000D01*
X171945000Y-121094000D02*
X171945000Y-119494000D01*
X171945000Y-119494000D02*
X172225000Y-119494000D01*
X171025000Y-121094000D02*
X171945000Y-121094000D01*
X171025000Y-119494000D02*
X171945000Y-119494000D01*
X171025000Y-113274000D02*
X171025000Y-121094000D01*
X178385000Y-117134000D02*
X177385000Y-117134000D01*
X177385000Y-115534000D01*
X178385000Y-115534000D01*
X178385000Y-117134000D01*
X172785000Y-117134000D02*
X171785000Y-117134000D01*
X171785000Y-115534000D01*
X172785000Y-115534000D01*
X172785000Y-117134000D01*
%TO.C,J4*%
X169858000Y-121094000D02*
X169858000Y-113274000D01*
X169858000Y-119494000D02*
X168938000Y-119494000D01*
X169858000Y-113274000D02*
X159738000Y-113274000D01*
X168938000Y-121094000D02*
X169858000Y-121094000D01*
X168938000Y-119494000D02*
X168938000Y-121094000D01*
X168658000Y-119494000D02*
X168938000Y-119494000D01*
X168658000Y-119494000D02*
X168658000Y-120709000D01*
X168598000Y-115534000D02*
X168598000Y-113274000D01*
X168098000Y-115534000D02*
X168098000Y-113274000D01*
X167298000Y-117634000D02*
X162298000Y-117634000D01*
X167298000Y-113274000D02*
X167298000Y-117634000D01*
X162298000Y-117634000D02*
X162298000Y-113274000D01*
X160658000Y-121094000D02*
X160658000Y-119494000D01*
X160658000Y-119494000D02*
X160938000Y-119494000D01*
X159738000Y-121094000D02*
X160658000Y-121094000D01*
X159738000Y-119494000D02*
X160658000Y-119494000D01*
X159738000Y-113274000D02*
X159738000Y-121094000D01*
X169098000Y-117134000D02*
X168098000Y-117134000D01*
X168098000Y-115534000D01*
X169098000Y-115534000D01*
X169098000Y-117134000D01*
X161498000Y-117134000D02*
X160498000Y-117134000D01*
X160498000Y-115534000D01*
X161498000Y-115534000D01*
X161498000Y-117134000D01*
%TO.C,R1*%
X200941000Y-131394564D02*
X200941000Y-130940436D01*
X202411000Y-131394564D02*
X202411000Y-130940436D01*
%TO.C,J1*%
X194464000Y-113274000D02*
X180344000Y-113274000D01*
X191904000Y-113274000D02*
X191904000Y-117634000D01*
X180344000Y-113274000D02*
X180344000Y-121094000D01*
X193204000Y-115534000D02*
X193204000Y-113274000D01*
X192704000Y-115534000D02*
X192704000Y-113274000D01*
X191904000Y-117634000D02*
X182904000Y-117634000D01*
X182904000Y-117634000D02*
X182904000Y-113274000D01*
X194464000Y-119494000D02*
X193544000Y-119494000D01*
X193544000Y-119494000D02*
X193544000Y-121094000D01*
X193264000Y-119494000D02*
X193544000Y-119494000D01*
X193264000Y-119494000D02*
X193264000Y-120709000D01*
X181264000Y-119494000D02*
X181544000Y-119494000D01*
X180344000Y-119494000D02*
X181264000Y-119494000D01*
X194464000Y-121094000D02*
X194464000Y-113274000D01*
X193544000Y-121094000D02*
X194464000Y-121094000D01*
X181264000Y-121094000D02*
X181264000Y-119494000D01*
X180344000Y-121094000D02*
X181264000Y-121094000D01*
X193704000Y-117134000D02*
X192704000Y-117134000D01*
X192704000Y-115534000D01*
X193704000Y-115534000D01*
X193704000Y-117134000D01*
X182104000Y-117134000D02*
X181104000Y-117134000D01*
X181104000Y-115534000D01*
X182104000Y-115534000D01*
X182104000Y-117134000D01*
%TD*%
M02*
