%TF.GenerationSoftware,KiCad,Pcbnew,9.0.7*%
%TF.CreationDate,2026-02-21T16:48:54+00:00*%
%TF.ProjectId,z-axis-addon,7a2d6178-6973-42d6-9164-646f6e2e6b69,A*%
%TF.SameCoordinates,Original*%
%TF.FileFunction,Copper,L1,Top*%
%TF.FilePolarity,Positive*%
%FSLAX46Y46*%
G04 Gerber Fmt 4.6, Leading zero omitted, Abs format (unit mm)*
G04 Created by KiCad (PCBNEW 9.0.7) date 2026-02-21 16:48:54*
%MOMM*%
%LPD*%
G01*
G04 APERTURE LIST*
G04 Aperture macros list*
%AMRoundRect*
0 Rectangle with rounded corners*
0 $1 Rounding radius*
0 $2 $3 $4 $5 $6 $7 $8 $9 X,Y pos of 4 corners*
0 Add a 4 corners polygon primitive as box body*
4,1,4,$2,$3,$4,$5,$6,$7,$8,$9,$2,$3,0*
0 Add four circle primitives for the rounded corners*
1,1,$1+$1,$2,$3*
1,1,$1+$1,$4,$5*
1,1,$1+$1,$6,$7*
1,1,$1+$1,$8,$9*
0 Add four rect primitives between the rounded corners*
20,1,$1+$1,$2,$3,$4,$5,0*
20,1,$1+$1,$4,$5,$6,$7,0*
20,1,$1+$1,$6,$7,$8,$9,0*
20,1,$1+$1,$8,$9,$2,$3,0*%
G04 Aperture macros list end*
%TA.AperFunction,SMDPad,CuDef*%
%ADD10RoundRect,0.250000X-0.262500X-0.450000X0.262500X-0.450000X0.262500X0.450000X-0.262500X0.450000X0*%
%TD*%
%TA.AperFunction,SMDPad,CuDef*%
%ADD11RoundRect,0.243750X-0.243750X-0.456250X0.243750X-0.456250X0.243750X0.456250X-0.243750X0.456250X0*%
%TD*%
%TA.AperFunction,ComponentPad*%
%ADD12RoundRect,0.250000X0.350000X0.625000X-0.350000X0.625000X-0.350000X-0.625000X0.350000X-0.625000X0*%
%TD*%
%TA.AperFunction,ComponentPad*%
%ADD13O,1.200000X1.750000*%
%TD*%
%TA.AperFunction,SMDPad,CuDef*%
%ADD14RoundRect,0.250000X0.550000X-1.500000X0.550000X1.500000X-0.550000X1.500000X-0.550000X-1.500000X0*%
%TD*%
%TA.AperFunction,ComponentPad*%
%ADD15C,1.524000*%
%TD*%
%TA.AperFunction,SMDPad,CuDef*%
%ADD16RoundRect,0.250000X0.450000X-0.262500X0.450000X0.262500X-0.450000X0.262500X-0.450000X-0.262500X0*%
%TD*%
%TA.AperFunction,Conductor*%
%ADD17C,0.200000*%
%TD*%
%TA.AperFunction,Conductor*%
%ADD18C,0.500000*%
%TD*%
G04 APERTURE END LIST*
D10*
%TO.P,R2,1*%
%TO.N,/3v3*%
X162672000Y-133932000D03*
%TO.P,R2,2*%
%TO.N,Net-(D1-A)*%
X164497000Y-133932000D03*
%TD*%
D11*
%TO.P,D1,1,K*%
%TO.N,/GND*%
X162687000Y-130937000D03*
%TO.P,D1,2,A*%
%TO.N,Net-(D1-A)*%
X164562000Y-130937000D03*
%TD*%
D12*
%TO.P,J2,1,Pin_1*%
%TO.N,/Vin*%
X211676000Y-119634000D03*
D13*
%TO.P,J2,2,Pin_2*%
%TO.N,/3v3*%
X209676000Y-119634000D03*
%TO.P,J2,3,Pin_3*%
%TO.N,unconnected-(J2-Pin_3-Pad3)*%
X207676000Y-119634000D03*
%TO.P,J2,4,Pin_4*%
%TO.N,/GND*%
X205676000Y-119634000D03*
%TO.P,J2,5,Pin_5*%
%TO.N,/MOSI*%
X203676000Y-119634000D03*
%TO.P,J2,6,Pin_6*%
%TO.N,/MISO*%
X201676000Y-119634000D03*
%TO.P,J2,7,Pin_7*%
%TO.N,/SCK*%
X199676000Y-119634000D03*
%TO.P,J2,8,Pin_8*%
%TO.N,/CS*%
X197676000Y-119634000D03*
%TD*%
D14*
%TO.P,C1,2*%
%TO.N,/GND*%
X207772000Y-127602000D03*
%TO.P,C1,1*%
%TO.N,/Vin*%
X207772000Y-133002000D03*
%TD*%
D15*
%TO.P,U1,19*%
%TO.N,N/C*%
X196780400Y-127556600D03*
%TO.P,U1,18,DIAG1*%
%TO.N,/STALLGUARD*%
X198050400Y-128826600D03*
%TO.P,U1,17,DIAG0*%
%TO.N,unconnected-(U1-DIAG0-Pad17)*%
X198050400Y-126286600D03*
%TO.P,U1,16,VMOT*%
%TO.N,/Vin*%
X198050400Y-136446600D03*
%TO.P,U1,15,GND*%
%TO.N,/GND*%
X195510400Y-136446600D03*
%TO.P,U1,14,2B*%
%TO.N,/2B*%
X192970400Y-136446600D03*
%TO.P,U1,13,2A*%
%TO.N,/2A*%
X190430400Y-136446600D03*
%TO.P,U1,12,1A*%
%TO.N,/1A*%
X187890400Y-136446600D03*
%TO.P,U1,11,1B*%
%TO.N,/1B*%
X185350400Y-136446600D03*
%TO.P,U1,10,VDD*%
%TO.N,/3v3*%
X182810400Y-136446600D03*
%TO.P,U1,9,GND*%
%TO.N,/GND*%
X180270400Y-136446600D03*
%TO.P,U1,8,DIR*%
%TO.N,/DIR*%
X180270400Y-123746600D03*
%TO.P,U1,7,STEP*%
%TO.N,/STEP*%
X182810400Y-123746600D03*
%TO.P,U1,6,DCO*%
%TO.N,unconnected-(U1-DCO-Pad6)*%
X185350400Y-123746600D03*
%TO.P,U1,5,SDO/CFG0*%
%TO.N,/MISO*%
X187890400Y-123746600D03*
%TO.P,U1,4,CS/CFG3*%
%TO.N,/CS*%
X190430400Y-123746600D03*
%TO.P,U1,3,SCK/CFG2*%
%TO.N,/SCK*%
X192970400Y-123746600D03*
%TO.P,U1,2,SDI/CFG1*%
%TO.N,/MOSI*%
X195510400Y-123746600D03*
%TO.P,U1,1,~{EN}*%
%TO.N,/GND*%
X198050400Y-123746600D03*
%TD*%
D12*
%TO.P,J3,1,Pin_1*%
%TO.N,unconnected-(J3-Pin_1-Pad1)*%
X177085000Y-119634000D03*
D13*
%TO.P,J3,2,Pin_2*%
%TO.N,/STALLGUARD*%
X175085000Y-119634000D03*
%TO.P,J3,3,Pin_3*%
%TO.N,unconnected-(J3-Pin_3-Pad3)*%
X173085000Y-119634000D03*
%TD*%
D12*
%TO.P,J4,1,Pin_1*%
%TO.N,/2B*%
X167798000Y-119634000D03*
D13*
%TO.P,J4,2,Pin_2*%
%TO.N,/2A*%
X165798000Y-119634000D03*
%TO.P,J4,3,Pin_3*%
%TO.N,/1A*%
X163798000Y-119634000D03*
%TO.P,J4,4,Pin_4*%
%TO.N,/1B*%
X161798000Y-119634000D03*
%TD*%
D16*
%TO.P,R1,1*%
%TO.N,/Vin*%
X201676000Y-132080000D03*
%TO.P,R1,2*%
%TO.N,/STALLGUARD*%
X201676000Y-130255000D03*
%TD*%
D12*
%TO.P,J1,1,Pin_1*%
%TO.N,unconnected-(J1-Pin_1-Pad1)*%
X192404000Y-119634000D03*
D13*
%TO.P,J1,2,Pin_2*%
%TO.N,unconnected-(J1-Pin_2-Pad2)*%
X190404000Y-119634000D03*
%TO.P,J1,3,Pin_3*%
%TO.N,unconnected-(J1-Pin_3-Pad3)*%
X188404000Y-119634000D03*
%TO.P,J1,4,Pin_4*%
%TO.N,unconnected-(J1-Pin_4-Pad4)*%
X186404000Y-119634000D03*
%TO.P,J1,5,Pin_5*%
%TO.N,/STEP*%
X184404000Y-119634000D03*
%TO.P,J1,6,Pin_6*%
%TO.N,/DIR*%
X182404000Y-119634000D03*
%TD*%
D17*
%TO.N,/CS*%
X192111000Y-122066000D02*
X190430400Y-123746600D01*
X195110685Y-122066000D02*
X192111000Y-122066000D01*
X197542685Y-119634000D02*
X195110685Y-122066000D01*
X197676000Y-119634000D02*
X197542685Y-119634000D01*
%TO.N,/SCK*%
X196626400Y-122683600D02*
X199676000Y-119634000D01*
X194033400Y-122683600D02*
X196626400Y-122683600D01*
X192970400Y-123746600D02*
X194033400Y-122683600D01*
%TO.N,/MISO*%
X194094794Y-121666000D02*
X197302794Y-118458000D01*
X189971000Y-121666000D02*
X194094794Y-121666000D01*
X189629100Y-122007900D02*
X189971000Y-121666000D01*
X197302794Y-118458000D02*
X200500000Y-118458000D01*
X187890400Y-123746600D02*
X189629100Y-122007900D01*
X200500000Y-118458000D02*
X201676000Y-119634000D01*
%TO.N,/MOSI*%
X199483690Y-120810000D02*
X202500000Y-120810000D01*
X196547090Y-123746600D02*
X199483690Y-120810000D01*
X195510400Y-123746600D02*
X196547090Y-123746600D01*
X202500000Y-120810000D02*
X203676000Y-119634000D01*
%TO.N,/STALLGUARD*%
X180769600Y-128826600D02*
X175085000Y-123142000D01*
X198050400Y-128826600D02*
X180769600Y-128826600D01*
X175085000Y-123142000D02*
X175085000Y-119634000D01*
%TO.N,/STEP*%
X184404000Y-122153000D02*
X182810400Y-123746600D01*
X184404000Y-119634000D02*
X184404000Y-122153000D01*
%TO.N,/DIR*%
X182404000Y-121613000D02*
X180270400Y-123746600D01*
X182404000Y-119634000D02*
X182404000Y-121613000D01*
D18*
%TO.N,/Vin*%
X211676000Y-129098000D02*
X207772000Y-133002000D01*
X211676000Y-119634000D02*
X211676000Y-129098000D01*
%TO.N,/2A*%
X165798000Y-119634000D02*
X179509600Y-133345600D01*
%TO.N,/2B*%
X180811100Y-132647100D02*
X167798000Y-119634000D01*
X189170900Y-132647100D02*
X180811100Y-132647100D01*
X192970400Y-136446600D02*
X189170900Y-132647100D01*
%TO.N,/2A*%
X180519651Y-133345600D02*
X179509600Y-133345600D01*
X180521150Y-133347100D02*
X180519651Y-133345600D01*
X187330900Y-133347100D02*
X180521150Y-133347100D01*
X190430400Y-136446600D02*
X187330900Y-133347100D01*
%TO.N,/1A*%
X178295600Y-134131600D02*
X163798000Y-119634000D01*
X185575400Y-134131600D02*
X178295600Y-134131600D01*
X187890400Y-136446600D02*
X185575400Y-134131600D01*
%TO.N,/1B*%
X176996600Y-134832600D02*
X161798000Y-119634000D01*
X183736400Y-134832600D02*
X176996600Y-134832600D01*
X185350400Y-136446600D02*
X183736400Y-134832600D01*
D17*
%TO.N,/STALLGUARD*%
X199478800Y-130255000D02*
X198050400Y-128826600D01*
X201676000Y-130255000D02*
X199478800Y-130255000D01*
%TO.N,/3v3*%
X164123600Y-135383600D02*
X181747400Y-135383600D01*
X162672000Y-133932000D02*
X164123600Y-135383600D01*
X181747400Y-135383600D02*
X182810400Y-136446600D01*
%TO.N,Net-(D1-A)*%
X164562000Y-133867000D02*
X164497000Y-133932000D01*
X164562000Y-130937000D02*
X164562000Y-133867000D01*
D18*
%TO.N,/Vin*%
X201676000Y-132821000D02*
X198050400Y-136446600D01*
X201676000Y-132080000D02*
X201676000Y-132821000D01*
X206850000Y-132080000D02*
X201676000Y-132080000D01*
X207772000Y-133002000D02*
X206850000Y-132080000D01*
%TD*%
%TA.AperFunction,Conductor*%
%TO.N,/GND*%
G36*
X205926000Y-120983115D02*
G01*
X205933584Y-120981914D01*
X206098255Y-120928408D01*
X206252524Y-120849804D01*
X206392602Y-120748032D01*
X206515036Y-120625598D01*
X206575371Y-120542552D01*
X206630700Y-120499886D01*
X206700313Y-120493905D01*
X206762109Y-120526510D01*
X206776008Y-120542550D01*
X206776318Y-120542976D01*
X206836586Y-120625928D01*
X206959072Y-120748414D01*
X207099212Y-120850232D01*
X207253555Y-120928873D01*
X207418299Y-120982402D01*
X207589389Y-121009500D01*
X207589390Y-121009500D01*
X207762610Y-121009500D01*
X207762611Y-121009500D01*
X207933701Y-120982402D01*
X208098445Y-120928873D01*
X208252788Y-120850232D01*
X208392928Y-120748414D01*
X208515414Y-120625928D01*
X208575682Y-120542975D01*
X208631012Y-120500311D01*
X208700626Y-120494332D01*
X208762421Y-120526938D01*
X208776315Y-120542973D01*
X208836586Y-120625928D01*
X208959072Y-120748414D01*
X209099212Y-120850232D01*
X209253555Y-120928873D01*
X209418299Y-120982402D01*
X209589389Y-121009500D01*
X209589390Y-121009500D01*
X209762610Y-121009500D01*
X209762611Y-121009500D01*
X209933701Y-120982402D01*
X210098445Y-120928873D01*
X210252788Y-120850232D01*
X210392928Y-120748414D01*
X210500472Y-120640869D01*
X210561791Y-120607387D01*
X210631483Y-120612371D01*
X210687417Y-120654242D01*
X210693688Y-120663456D01*
X210733285Y-120727652D01*
X210733288Y-120727656D01*
X210857344Y-120851712D01*
X210866591Y-120857416D01*
X210913318Y-120909360D01*
X210925500Y-120962957D01*
X210925500Y-128735770D01*
X210905815Y-128802809D01*
X210889181Y-128823451D01*
X208867832Y-130844799D01*
X208806509Y-130878284D01*
X208736817Y-130873300D01*
X208715055Y-130862657D01*
X208641340Y-130817189D01*
X208641335Y-130817187D01*
X208641334Y-130817186D01*
X208474797Y-130762001D01*
X208474795Y-130762000D01*
X208372010Y-130751500D01*
X207171998Y-130751500D01*
X207171981Y-130751501D01*
X207069203Y-130762000D01*
X207069200Y-130762001D01*
X206902668Y-130817185D01*
X206902663Y-130817187D01*
X206753342Y-130909289D01*
X206629289Y-131033342D01*
X206537187Y-131182663D01*
X206537186Y-131182666D01*
X206516695Y-131244505D01*
X206476922Y-131301949D01*
X206412406Y-131328772D01*
X206398989Y-131329500D01*
X202750730Y-131329500D01*
X202721289Y-131320855D01*
X202691303Y-131314332D01*
X202686287Y-131310577D01*
X202683691Y-131309815D01*
X202663049Y-131293181D01*
X202625049Y-131255181D01*
X202591564Y-131193858D01*
X202596548Y-131124166D01*
X202625049Y-131079819D01*
X202671526Y-131033342D01*
X202718712Y-130986156D01*
X202810814Y-130836834D01*
X202865999Y-130670297D01*
X202876500Y-130567509D01*
X202876499Y-129942492D01*
X202865999Y-129839703D01*
X202810814Y-129673166D01*
X202718712Y-129523844D01*
X202594656Y-129399788D01*
X202460290Y-129316911D01*
X202445336Y-129307687D01*
X202445331Y-129307685D01*
X202443626Y-129307120D01*
X202278797Y-129252501D01*
X202278795Y-129252500D01*
X202176010Y-129242000D01*
X201175998Y-129242000D01*
X201175980Y-129242001D01*
X201073203Y-129252500D01*
X201073200Y-129252501D01*
X200906668Y-129307685D01*
X200906663Y-129307687D01*
X200757342Y-129399789D01*
X200633289Y-129523842D01*
X200633288Y-129523844D01*
X200600859Y-129576421D01*
X200589031Y-129595597D01*
X200537083Y-129642321D01*
X200483492Y-129654500D01*
X199778898Y-129654500D01*
X199711859Y-129634815D01*
X199691217Y-129618181D01*
X199519821Y-129446785D01*
X199314161Y-129241126D01*
X199280677Y-129179804D01*
X199280976Y-129151986D01*
X206472001Y-129151986D01*
X206482494Y-129254697D01*
X206537641Y-129421119D01*
X206537643Y-129421124D01*
X206629684Y-129570345D01*
X206753654Y-129694315D01*
X206902875Y-129786356D01*
X206902880Y-129786358D01*
X207069302Y-129841505D01*
X207069309Y-129841506D01*
X207172019Y-129851999D01*
X207521999Y-129851999D01*
X208022000Y-129851999D01*
X208371972Y-129851999D01*
X208371986Y-129851998D01*
X208474697Y-129841505D01*
X208641119Y-129786358D01*
X208641124Y-129786356D01*
X208790345Y-129694315D01*
X208914315Y-129570345D01*
X209006356Y-129421124D01*
X209006358Y-129421119D01*
X209061505Y-129254697D01*
X209061506Y-129254690D01*
X209071999Y-129151986D01*
X209072000Y-129151973D01*
X209072000Y-127852000D01*
X208022000Y-127852000D01*
X208022000Y-129851999D01*
X207521999Y-129851999D01*
X207522000Y-129851998D01*
X207522000Y-127852000D01*
X206472001Y-127852000D01*
X206472001Y-129151986D01*
X199280976Y-129151986D01*
X199281243Y-129127078D01*
X199281051Y-129127048D01*
X199281257Y-129125743D01*
X199281271Y-129124491D01*
X199281809Y-129122246D01*
X199281813Y-129122236D01*
X199312900Y-128925961D01*
X199312900Y-128727239D01*
X199281813Y-128530964D01*
X199220405Y-128341968D01*
X199220405Y-128341967D01*
X199157990Y-128219472D01*
X199130187Y-128164906D01*
X199013381Y-128004136D01*
X198872864Y-127863619D01*
X198712094Y-127746813D01*
X198555618Y-127667084D01*
X198504823Y-127619110D01*
X198488028Y-127551289D01*
X198510565Y-127485154D01*
X198555618Y-127446115D01*
X198712094Y-127366387D01*
X198872864Y-127249581D01*
X199013381Y-127109064D01*
X199130187Y-126948294D01*
X199220405Y-126771232D01*
X199281813Y-126582236D01*
X199312900Y-126385961D01*
X199312900Y-126187239D01*
X199291482Y-126052013D01*
X206472000Y-126052013D01*
X206472000Y-127352000D01*
X207522000Y-127352000D01*
X208022000Y-127352000D01*
X209071999Y-127352000D01*
X209071999Y-126052028D01*
X209071998Y-126052013D01*
X209061505Y-125949302D01*
X209006358Y-125782880D01*
X209006356Y-125782875D01*
X208914315Y-125633654D01*
X208790345Y-125509684D01*
X208641124Y-125417643D01*
X208641119Y-125417641D01*
X208474697Y-125362494D01*
X208474690Y-125362493D01*
X208371986Y-125352000D01*
X208022000Y-125352000D01*
X208022000Y-127352000D01*
X207522000Y-127352000D01*
X207522000Y-125352000D01*
X207172028Y-125352000D01*
X207172012Y-125352001D01*
X207069302Y-125362494D01*
X206902880Y-125417641D01*
X206902875Y-125417643D01*
X206753654Y-125509684D01*
X206629684Y-125633654D01*
X206537643Y-125782875D01*
X206537641Y-125782880D01*
X206482494Y-125949302D01*
X206482493Y-125949309D01*
X206472000Y-126052013D01*
X199291482Y-126052013D01*
X199281813Y-125990964D01*
X199220405Y-125801968D01*
X199220405Y-125801967D01*
X199130186Y-125624905D01*
X199046473Y-125509684D01*
X199013381Y-125464136D01*
X198872864Y-125323619D01*
X198712094Y-125206813D01*
X198555067Y-125126803D01*
X198504272Y-125078829D01*
X198487477Y-125011008D01*
X198510014Y-124944873D01*
X198555069Y-124905834D01*
X198711822Y-124825964D01*
X198749116Y-124798868D01*
X198077848Y-124127600D01*
X198100560Y-124127600D01*
X198197461Y-124101636D01*
X198284340Y-124051476D01*
X198355276Y-123980540D01*
X198405436Y-123893661D01*
X198431400Y-123796760D01*
X198431400Y-123774047D01*
X199102668Y-124445315D01*
X199129762Y-124408025D01*
X199219942Y-124231037D01*
X199281324Y-124042123D01*
X199281324Y-124042120D01*
X199312400Y-123845921D01*
X199312400Y-123647278D01*
X199281324Y-123451079D01*
X199281324Y-123451076D01*
X199219942Y-123262162D01*
X199129758Y-123085167D01*
X199102668Y-123047883D01*
X198431400Y-123719151D01*
X198431400Y-123696440D01*
X198405436Y-123599539D01*
X198355276Y-123512660D01*
X198284340Y-123441724D01*
X198197461Y-123391564D01*
X198100560Y-123365600D01*
X198077846Y-123365600D01*
X198749115Y-122694330D01*
X198711832Y-122667241D01*
X198707461Y-122665014D01*
X198656665Y-122617039D01*
X198639870Y-122549218D01*
X198662407Y-122483083D01*
X198676063Y-122466862D01*
X199696107Y-121446819D01*
X199757430Y-121413334D01*
X199783788Y-121410500D01*
X202413331Y-121410500D01*
X202413347Y-121410501D01*
X202420943Y-121410501D01*
X202579054Y-121410501D01*
X202579057Y-121410501D01*
X202731785Y-121369577D01*
X202781904Y-121340639D01*
X202868716Y-121290520D01*
X202980520Y-121178716D01*
X202980520Y-121178714D01*
X202990728Y-121168507D01*
X202990730Y-121168504D01*
X203182319Y-120976914D01*
X203243640Y-120943431D01*
X203308315Y-120946665D01*
X203418299Y-120982402D01*
X203589389Y-121009500D01*
X203589390Y-121009500D01*
X203762610Y-121009500D01*
X203762611Y-121009500D01*
X203933701Y-120982402D01*
X204098445Y-120928873D01*
X204252788Y-120850232D01*
X204392928Y-120748414D01*
X204515414Y-120625928D01*
X204575991Y-120542550D01*
X204631321Y-120499885D01*
X204700934Y-120493906D01*
X204762729Y-120526512D01*
X204776628Y-120542551D01*
X204836967Y-120625602D01*
X204959397Y-120748032D01*
X205099475Y-120849804D01*
X205253744Y-120928408D01*
X205418415Y-120981914D01*
X205418414Y-120981914D01*
X205425999Y-120983115D01*
X205426000Y-120983114D01*
X205426000Y-119914330D01*
X205445745Y-119934075D01*
X205531255Y-119983444D01*
X205626630Y-120009000D01*
X205725370Y-120009000D01*
X205820745Y-119983444D01*
X205906255Y-119934075D01*
X205926000Y-119914330D01*
X205926000Y-120983115D01*
G37*
%TD.AperFunction*%
%TA.AperFunction,Conductor*%
G36*
X156803450Y-90180290D02*
G01*
X156816358Y-90181647D01*
X157145677Y-90233806D01*
X157158342Y-90236497D01*
X157480422Y-90322798D01*
X157492749Y-90326803D01*
X157804038Y-90446296D01*
X157815873Y-90451565D01*
X158112976Y-90602947D01*
X158124191Y-90609423D01*
X158403832Y-90791023D01*
X158414313Y-90798638D01*
X158471455Y-90844910D01*
X158673441Y-91008475D01*
X158683086Y-91017160D01*
X158918839Y-91252913D01*
X158927524Y-91262558D01*
X159137359Y-91521683D01*
X159144978Y-91532171D01*
X159326573Y-91811802D01*
X159333055Y-91823029D01*
X159462834Y-92077733D01*
X159484429Y-92120115D01*
X159489708Y-92131972D01*
X159609193Y-92443241D01*
X159613204Y-92455586D01*
X159699498Y-92777642D01*
X159702196Y-92790337D01*
X159754352Y-93119641D01*
X159755709Y-93132549D01*
X159773330Y-93468756D01*
X159773500Y-93475246D01*
X159773500Y-112714891D01*
X159807608Y-112842187D01*
X159840554Y-112899250D01*
X159873500Y-112956314D01*
X159966686Y-113049500D01*
X160080814Y-113115392D01*
X160208108Y-113149500D01*
X160208110Y-113149500D01*
X213682005Y-113149500D01*
X213682007Y-113149500D01*
X213809301Y-113115392D01*
X213923429Y-113049500D01*
X214016615Y-112956314D01*
X214082507Y-112842186D01*
X214116615Y-112714892D01*
X214116615Y-107884108D01*
X214116616Y-103566038D01*
X214116615Y-103566037D01*
X214116615Y-93656358D01*
X214118533Y-93648111D01*
X214116615Y-93590593D01*
X214116615Y-93569324D01*
X214116639Y-93566895D01*
X214118435Y-93475246D01*
X214120875Y-93350711D01*
X215573500Y-93350711D01*
X215573500Y-93593288D01*
X215605161Y-93833785D01*
X215667947Y-94068104D01*
X215760773Y-94292205D01*
X215760776Y-94292212D01*
X215882064Y-94502289D01*
X215882066Y-94502292D01*
X215882067Y-94502293D01*
X216029733Y-94694736D01*
X216029739Y-94694743D01*
X216201256Y-94866260D01*
X216201262Y-94866265D01*
X216393711Y-95013936D01*
X216603788Y-95135224D01*
X216827900Y-95228054D01*
X217062211Y-95290838D01*
X217242586Y-95314584D01*
X217302711Y-95322500D01*
X217302712Y-95322500D01*
X217545289Y-95322500D01*
X217593388Y-95316167D01*
X217785789Y-95290838D01*
X218020100Y-95228054D01*
X218244212Y-95135224D01*
X218454289Y-95013936D01*
X218646738Y-94866265D01*
X218818265Y-94694738D01*
X218965936Y-94502289D01*
X219087224Y-94292212D01*
X219180054Y-94068100D01*
X219242838Y-93833789D01*
X219274500Y-93593288D01*
X219274500Y-93350712D01*
X219242838Y-93110211D01*
X219180054Y-92875900D01*
X219087224Y-92651788D01*
X218965936Y-92441711D01*
X218818265Y-92249262D01*
X218818260Y-92249256D01*
X218646743Y-92077739D01*
X218646736Y-92077733D01*
X218454293Y-91930067D01*
X218454292Y-91930066D01*
X218454289Y-91930064D01*
X218268909Y-91823035D01*
X218244214Y-91808777D01*
X218244205Y-91808773D01*
X218020104Y-91715947D01*
X217785785Y-91653161D01*
X217545289Y-91621500D01*
X217545288Y-91621500D01*
X217302712Y-91621500D01*
X217302711Y-91621500D01*
X217062214Y-91653161D01*
X216827895Y-91715947D01*
X216603794Y-91808773D01*
X216603785Y-91808777D01*
X216393706Y-91930067D01*
X216201263Y-92077733D01*
X216201256Y-92077739D01*
X216029739Y-92249256D01*
X216029733Y-92249263D01*
X215882067Y-92441706D01*
X215760777Y-92651785D01*
X215760773Y-92651794D01*
X215667947Y-92875895D01*
X215605161Y-93110214D01*
X215573500Y-93350711D01*
X214120875Y-93350711D01*
X214123068Y-93238803D01*
X214124018Y-93225727D01*
X214166170Y-92891412D01*
X214168494Y-92878524D01*
X214245726Y-92550531D01*
X214249401Y-92537949D01*
X214280467Y-92449308D01*
X214360844Y-92219958D01*
X214365830Y-92207830D01*
X214404691Y-92125905D01*
X214510242Y-91903385D01*
X214516471Y-91891869D01*
X214692238Y-91604377D01*
X214699659Y-91593570D01*
X214904807Y-91326259D01*
X214913316Y-91316309D01*
X215145566Y-91072151D01*
X215155075Y-91063159D01*
X215411813Y-90844902D01*
X215422225Y-90836960D01*
X215700580Y-90647047D01*
X215711777Y-90640248D01*
X215815054Y-90584776D01*
X216008623Y-90480805D01*
X216020475Y-90475225D01*
X216332520Y-90348027D01*
X216344900Y-90343729D01*
X216668614Y-90250210D01*
X216681374Y-90247245D01*
X217013173Y-90188442D01*
X217026162Y-90186842D01*
X217362324Y-90163415D01*
X217375423Y-90163198D01*
X217712163Y-90175413D01*
X217725222Y-90176580D01*
X218058767Y-90224293D01*
X218071630Y-90226833D01*
X218398300Y-90309520D01*
X218410792Y-90313396D01*
X218726906Y-90430131D01*
X218738927Y-90435307D01*
X219040936Y-90584779D01*
X219052358Y-90591206D01*
X219336870Y-90771731D01*
X219347550Y-90779328D01*
X219611407Y-90988901D01*
X219621226Y-90997586D01*
X219861468Y-91233859D01*
X219870317Y-91243535D01*
X219938309Y-91326269D01*
X220084244Y-91503847D01*
X220092025Y-91514407D01*
X220277267Y-91795876D01*
X220283887Y-91807197D01*
X220435286Y-92100697D01*
X220438358Y-92106651D01*
X220443740Y-92118597D01*
X220565717Y-92432702D01*
X220569811Y-92445163D01*
X220657923Y-92770384D01*
X220660679Y-92783208D01*
X220713945Y-93115928D01*
X220715330Y-93128971D01*
X220733325Y-93468713D01*
X220733499Y-93475272D01*
X220733500Y-103439108D01*
X220733500Y-136267249D01*
X220733274Y-136274736D01*
X220718156Y-136524656D01*
X220716351Y-136539521D01*
X220671895Y-136782105D01*
X220668311Y-136796643D01*
X220594941Y-137032098D01*
X220589634Y-137046092D01*
X220488420Y-137270978D01*
X220481462Y-137284235D01*
X220353875Y-137495292D01*
X220345369Y-137507616D01*
X220193272Y-137701753D01*
X220183342Y-137712961D01*
X220008961Y-137887342D01*
X219997753Y-137897272D01*
X219803616Y-138049369D01*
X219791292Y-138057875D01*
X219580235Y-138185462D01*
X219566978Y-138192420D01*
X219342092Y-138293634D01*
X219328098Y-138298941D01*
X219094684Y-138371675D01*
X219092643Y-138372312D01*
X219078105Y-138375895D01*
X218835521Y-138420351D01*
X218820656Y-138422156D01*
X218570736Y-138437274D01*
X218563249Y-138437500D01*
X155324751Y-138437500D01*
X155317264Y-138437274D01*
X155067343Y-138422156D01*
X155052478Y-138420351D01*
X154809894Y-138375895D01*
X154795360Y-138372313D01*
X154559896Y-138298940D01*
X154545911Y-138293635D01*
X154414588Y-138234531D01*
X154321021Y-138192420D01*
X154307764Y-138185462D01*
X154096707Y-138057875D01*
X154084383Y-138049369D01*
X153890246Y-137897272D01*
X153879038Y-137887342D01*
X153704657Y-137712961D01*
X153694727Y-137701753D01*
X153675745Y-137677524D01*
X153542626Y-137507610D01*
X153534124Y-137495292D01*
X153406537Y-137284235D01*
X153399579Y-137270978D01*
X153298360Y-137046079D01*
X153293062Y-137032113D01*
X153219683Y-136796627D01*
X153216104Y-136782105D01*
X153171648Y-136539521D01*
X153169843Y-136524656D01*
X153154726Y-136274736D01*
X153154500Y-136267249D01*
X153154500Y-131442815D01*
X161699500Y-131442815D01*
X161709907Y-131544673D01*
X161764594Y-131709709D01*
X161764596Y-131709714D01*
X161855870Y-131857691D01*
X161978808Y-131980629D01*
X162126785Y-132071903D01*
X162126790Y-132071905D01*
X162291826Y-132126592D01*
X162393684Y-132136999D01*
X162393697Y-132137000D01*
X162437000Y-132137000D01*
X162437000Y-131187000D01*
X161699500Y-131187000D01*
X161699500Y-131442815D01*
X153154500Y-131442815D01*
X153154500Y-130431184D01*
X161699500Y-130431184D01*
X161699500Y-130687000D01*
X162437000Y-130687000D01*
X162437000Y-129737000D01*
X162393684Y-129737000D01*
X162291826Y-129747407D01*
X162126790Y-129802094D01*
X162126785Y-129802096D01*
X161978808Y-129893370D01*
X161855870Y-130016308D01*
X161764596Y-130164285D01*
X161764594Y-130164290D01*
X161709907Y-130329326D01*
X161699500Y-130431184D01*
X153154500Y-130431184D01*
X153154500Y-119272389D01*
X160697500Y-119272389D01*
X160697500Y-119995611D01*
X160724598Y-120166701D01*
X160778127Y-120331445D01*
X160856768Y-120485788D01*
X160958586Y-120625928D01*
X161081072Y-120748414D01*
X161221212Y-120850232D01*
X161375555Y-120928873D01*
X161540299Y-120982402D01*
X161711389Y-121009500D01*
X161711390Y-121009500D01*
X161884610Y-121009500D01*
X161884611Y-121009500D01*
X162018620Y-120988275D01*
X162087914Y-120997230D01*
X162125699Y-121023067D01*
X168966253Y-127863621D01*
X175674052Y-134571419D01*
X175707537Y-134632742D01*
X175702553Y-134702434D01*
X175660681Y-134758367D01*
X175595217Y-134782784D01*
X175586371Y-134783100D01*
X165588939Y-134783100D01*
X165521900Y-134763415D01*
X165476145Y-134710611D01*
X165466201Y-134641453D01*
X165471231Y-134620102D01*
X165499499Y-134534797D01*
X165510000Y-134432009D01*
X165509999Y-133431992D01*
X165509012Y-133422333D01*
X165499499Y-133329203D01*
X165499498Y-133329200D01*
X165489629Y-133299418D01*
X165444314Y-133162666D01*
X165352212Y-133013344D01*
X165228156Y-132889288D01*
X165228155Y-132889287D01*
X165221402Y-132885122D01*
X165174678Y-132833173D01*
X165162500Y-132779584D01*
X165162500Y-132116849D01*
X165182185Y-132049810D01*
X165221402Y-132011311D01*
X165270503Y-131981026D01*
X165393526Y-131858003D01*
X165484862Y-131709925D01*
X165539587Y-131544775D01*
X165550000Y-131442848D01*
X165550000Y-130431152D01*
X165539587Y-130329225D01*
X165484862Y-130164075D01*
X165484858Y-130164069D01*
X165484857Y-130164066D01*
X165393528Y-130016000D01*
X165393525Y-130015996D01*
X165270503Y-129892974D01*
X165270499Y-129892971D01*
X165122433Y-129801642D01*
X165122427Y-129801639D01*
X165122425Y-129801638D01*
X165076307Y-129786356D01*
X164957276Y-129746913D01*
X164855355Y-129736500D01*
X164855348Y-129736500D01*
X164268652Y-129736500D01*
X164268644Y-129736500D01*
X164166723Y-129746913D01*
X164001577Y-129801637D01*
X164001566Y-129801642D01*
X163853500Y-129892971D01*
X163853496Y-129892974D01*
X163730474Y-130015996D01*
X163730467Y-130016005D01*
X163729734Y-130017194D01*
X163729019Y-130017836D01*
X163725993Y-130021664D01*
X163725338Y-130021146D01*
X163677780Y-130063911D01*
X163608816Y-130075123D01*
X163544738Y-130047271D01*
X163522738Y-130021877D01*
X163522612Y-130021977D01*
X163520385Y-130019161D01*
X163518663Y-130017173D01*
X163518130Y-130016309D01*
X163395191Y-129893370D01*
X163247214Y-129802096D01*
X163247209Y-129802094D01*
X163082173Y-129747407D01*
X162980315Y-129737000D01*
X162937000Y-129737000D01*
X162937000Y-132137000D01*
X162980303Y-132137000D01*
X162980315Y-132136999D01*
X163082173Y-132126592D01*
X163247209Y-132071905D01*
X163247214Y-132071903D01*
X163395191Y-131980629D01*
X163518128Y-131857692D01*
X163518659Y-131856832D01*
X163519180Y-131856363D01*
X163522612Y-131852023D01*
X163523353Y-131852608D01*
X163570601Y-131810102D01*
X163639563Y-131798872D01*
X163703648Y-131826708D01*
X163725913Y-131852398D01*
X163725993Y-131852336D01*
X163727390Y-131854103D01*
X163729738Y-131856812D01*
X163730468Y-131857995D01*
X163730474Y-131858003D01*
X163853497Y-131981026D01*
X163902597Y-132011311D01*
X163949321Y-132063257D01*
X163961500Y-132116849D01*
X163961500Y-132699400D01*
X163941815Y-132766439D01*
X163902598Y-132804937D01*
X163819305Y-132856313D01*
X163765842Y-132889289D01*
X163672181Y-132982951D01*
X163610858Y-133016436D01*
X163541166Y-133011452D01*
X163496819Y-132982951D01*
X163403157Y-132889289D01*
X163403156Y-132889288D01*
X163253834Y-132797186D01*
X163087297Y-132742001D01*
X163087295Y-132742000D01*
X162984510Y-132731500D01*
X162359498Y-132731500D01*
X162359480Y-132731501D01*
X162256703Y-132742000D01*
X162256700Y-132742001D01*
X162090168Y-132797185D01*
X162090163Y-132797187D01*
X161940842Y-132889289D01*
X161816789Y-133013342D01*
X161724687Y-133162663D01*
X161724685Y-133162668D01*
X161705385Y-133220911D01*
X161669501Y-133329203D01*
X161669501Y-133329204D01*
X161669500Y-133329204D01*
X161659000Y-133431983D01*
X161659000Y-134432001D01*
X161659001Y-134432019D01*
X161669500Y-134534796D01*
X161669501Y-134534799D01*
X161675207Y-134552018D01*
X161724686Y-134701334D01*
X161816788Y-134850656D01*
X161940844Y-134974712D01*
X162090166Y-135066814D01*
X162256703Y-135121999D01*
X162359491Y-135132500D01*
X162971902Y-135132499D01*
X163038941Y-135152183D01*
X163059583Y-135168818D01*
X163638739Y-135747974D01*
X163638749Y-135747985D01*
X163643079Y-135752315D01*
X163643080Y-135752316D01*
X163754884Y-135864120D01*
X163754886Y-135864121D01*
X163754890Y-135864124D01*
X163891809Y-135943173D01*
X163891816Y-135943177D01*
X163985144Y-135968184D01*
X164044542Y-135984100D01*
X164044543Y-135984100D01*
X178923059Y-135984100D01*
X178990098Y-136003785D01*
X179035853Y-136056589D01*
X179045797Y-136125747D01*
X179040989Y-136146421D01*
X179039474Y-136151080D01*
X179008400Y-136347278D01*
X179008400Y-136545921D01*
X179039475Y-136742120D01*
X179039475Y-136742123D01*
X179100857Y-136931037D01*
X179191041Y-137108032D01*
X179218130Y-137145315D01*
X179889400Y-136474045D01*
X179889400Y-136496760D01*
X179915364Y-136593661D01*
X179965524Y-136680540D01*
X180036460Y-136751476D01*
X180123339Y-136801636D01*
X180220240Y-136827600D01*
X180242953Y-136827600D01*
X179571683Y-137498868D01*
X179571683Y-137498869D01*
X179608967Y-137525958D01*
X179785962Y-137616142D01*
X179974877Y-137677524D01*
X180171079Y-137708600D01*
X180369721Y-137708600D01*
X180565920Y-137677524D01*
X180565923Y-137677524D01*
X180754837Y-137616142D01*
X180931825Y-137525962D01*
X180969116Y-137498868D01*
X180297848Y-136827600D01*
X180320560Y-136827600D01*
X180417461Y-136801636D01*
X180504340Y-136751476D01*
X180575276Y-136680540D01*
X180625436Y-136593661D01*
X180651400Y-136496760D01*
X180651400Y-136474047D01*
X181322668Y-137145315D01*
X181349764Y-137108022D01*
X181429634Y-136951269D01*
X181477608Y-136900472D01*
X181545429Y-136883677D01*
X181611564Y-136906214D01*
X181650603Y-136951267D01*
X181730613Y-137108294D01*
X181847419Y-137269064D01*
X181987936Y-137409581D01*
X182148706Y-137526387D01*
X182235549Y-137570635D01*
X182325767Y-137616605D01*
X182325770Y-137616606D01*
X182420266Y-137647309D01*
X182514764Y-137678013D01*
X182711039Y-137709100D01*
X182711040Y-137709100D01*
X182909760Y-137709100D01*
X182909761Y-137709100D01*
X183106036Y-137678013D01*
X183295032Y-137616605D01*
X183472094Y-137526387D01*
X183632864Y-137409581D01*
X183773381Y-137269064D01*
X183890187Y-137108294D01*
X183969915Y-136951818D01*
X184017890Y-136901023D01*
X184085711Y-136884228D01*
X184151846Y-136906765D01*
X184190884Y-136951818D01*
X184270613Y-137108294D01*
X184387419Y-137269064D01*
X184527936Y-137409581D01*
X184688706Y-137526387D01*
X184775549Y-137570635D01*
X184865767Y-137616605D01*
X184865770Y-137616606D01*
X184960266Y-137647309D01*
X185054764Y-137678013D01*
X185251039Y-137709100D01*
X185251040Y-137709100D01*
X185449760Y-137709100D01*
X185449761Y-137709100D01*
X185646036Y-137678013D01*
X185835032Y-137616605D01*
X186012094Y-137526387D01*
X186172864Y-137409581D01*
X186313381Y-137269064D01*
X186430187Y-137108294D01*
X186509915Y-136951818D01*
X186557890Y-136901023D01*
X186625711Y-136884228D01*
X186691846Y-136906765D01*
X186730884Y-136951818D01*
X186810613Y-137108294D01*
X186927419Y-137269064D01*
X187067936Y-137409581D01*
X187228706Y-137526387D01*
X187315549Y-137570635D01*
X187405767Y-137616605D01*
X187405770Y-137616606D01*
X187500266Y-137647309D01*
X187594764Y-137678013D01*
X187791039Y-137709100D01*
X187791040Y-137709100D01*
X187989760Y-137709100D01*
X187989761Y-137709100D01*
X188186036Y-137678013D01*
X188375032Y-137616605D01*
X188552094Y-137526387D01*
X188712864Y-137409581D01*
X188853381Y-137269064D01*
X188970187Y-137108294D01*
X189049915Y-136951818D01*
X189097890Y-136901023D01*
X189165711Y-136884228D01*
X189231846Y-136906765D01*
X189270884Y-136951818D01*
X189350613Y-137108294D01*
X189467419Y-137269064D01*
X189607936Y-137409581D01*
X189768706Y-137526387D01*
X189855549Y-137570635D01*
X189945767Y-137616605D01*
X189945770Y-137616606D01*
X190040266Y-137647309D01*
X190134764Y-137678013D01*
X190331039Y-137709100D01*
X190331040Y-137709100D01*
X190529760Y-137709100D01*
X190529761Y-137709100D01*
X190726036Y-137678013D01*
X190915032Y-137616605D01*
X191092094Y-137526387D01*
X191252864Y-137409581D01*
X191393381Y-137269064D01*
X191510187Y-137108294D01*
X191589915Y-136951818D01*
X191637890Y-136901023D01*
X191705711Y-136884228D01*
X191771846Y-136906765D01*
X191810884Y-136951818D01*
X191890613Y-137108294D01*
X192007419Y-137269064D01*
X192147936Y-137409581D01*
X192308706Y-137526387D01*
X192395549Y-137570635D01*
X192485767Y-137616605D01*
X192485770Y-137616606D01*
X192580266Y-137647309D01*
X192674764Y-137678013D01*
X192871039Y-137709100D01*
X192871040Y-137709100D01*
X193069760Y-137709100D01*
X193069761Y-137709100D01*
X193266036Y-137678013D01*
X193455032Y-137616605D01*
X193632094Y-137526387D01*
X193792864Y-137409581D01*
X193933381Y-137269064D01*
X194050187Y-137108294D01*
X194130196Y-136951267D01*
X194178169Y-136900472D01*
X194245990Y-136883677D01*
X194312125Y-136906214D01*
X194351165Y-136951268D01*
X194431041Y-137108032D01*
X194458130Y-137145315D01*
X194458131Y-137145316D01*
X195129400Y-136474047D01*
X195129400Y-136496760D01*
X195155364Y-136593661D01*
X195205524Y-136680540D01*
X195276460Y-136751476D01*
X195363339Y-136801636D01*
X195460240Y-136827600D01*
X195482953Y-136827600D01*
X194811683Y-137498868D01*
X194811683Y-137498869D01*
X194848967Y-137525958D01*
X195025962Y-137616142D01*
X195214877Y-137677524D01*
X195411079Y-137708600D01*
X195609721Y-137708600D01*
X195805920Y-137677524D01*
X195805923Y-137677524D01*
X195994837Y-137616142D01*
X196171825Y-137525962D01*
X196209116Y-137498868D01*
X195537848Y-136827600D01*
X195560560Y-136827600D01*
X195657461Y-136801636D01*
X195744340Y-136751476D01*
X195815276Y-136680540D01*
X195865436Y-136593661D01*
X195891400Y-136496760D01*
X195891400Y-136474047D01*
X196562668Y-137145315D01*
X196589764Y-137108022D01*
X196669634Y-136951269D01*
X196717608Y-136900472D01*
X196785429Y-136883677D01*
X196851564Y-136906214D01*
X196890603Y-136951267D01*
X196970613Y-137108294D01*
X197087419Y-137269064D01*
X197227936Y-137409581D01*
X197388706Y-137526387D01*
X197475549Y-137570635D01*
X197565767Y-137616605D01*
X197565770Y-137616606D01*
X197660266Y-137647309D01*
X197754764Y-137678013D01*
X197951039Y-137709100D01*
X197951040Y-137709100D01*
X198149760Y-137709100D01*
X198149761Y-137709100D01*
X198346036Y-137678013D01*
X198535032Y-137616605D01*
X198712094Y-137526387D01*
X198872864Y-137409581D01*
X199013381Y-137269064D01*
X199130187Y-137108294D01*
X199220405Y-136931232D01*
X199281813Y-136742236D01*
X199312900Y-136545961D01*
X199312900Y-136347239D01*
X199308868Y-136321785D01*
X199317822Y-136252493D01*
X199343657Y-136214709D01*
X202258952Y-133299416D01*
X202311406Y-133220912D01*
X202341084Y-133176495D01*
X202374413Y-133096030D01*
X202418254Y-133041627D01*
X202439169Y-133031176D01*
X202438791Y-133030364D01*
X202445326Y-133027316D01*
X202445334Y-133027314D01*
X202594656Y-132935212D01*
X202663049Y-132866819D01*
X202724372Y-132833334D01*
X202750730Y-132830500D01*
X206347500Y-132830500D01*
X206414539Y-132850185D01*
X206460294Y-132902989D01*
X206471500Y-132954500D01*
X206471500Y-134552001D01*
X206471501Y-134552018D01*
X206482000Y-134654796D01*
X206482001Y-134654799D01*
X206524412Y-134782784D01*
X206537186Y-134821334D01*
X206629288Y-134970656D01*
X206753344Y-135094712D01*
X206902666Y-135186814D01*
X207069203Y-135241999D01*
X207171991Y-135252500D01*
X208372008Y-135252499D01*
X208474797Y-135241999D01*
X208641334Y-135186814D01*
X208790656Y-135094712D01*
X208914712Y-134970656D01*
X209006814Y-134821334D01*
X209061999Y-134654797D01*
X209072500Y-134552009D01*
X209072499Y-132814228D01*
X209092184Y-132747190D01*
X209108813Y-132726553D01*
X212258952Y-129576416D01*
X212317832Y-129488294D01*
X212341084Y-129453495D01*
X212368968Y-129386176D01*
X212397659Y-129316912D01*
X212426500Y-129171917D01*
X212426500Y-129024082D01*
X212426500Y-120962957D01*
X212446185Y-120895918D01*
X212485407Y-120857416D01*
X212494656Y-120851712D01*
X212618712Y-120727656D01*
X212710814Y-120578334D01*
X212765999Y-120411797D01*
X212776500Y-120309009D01*
X212776499Y-118958992D01*
X212765999Y-118856203D01*
X212710814Y-118689666D01*
X212618712Y-118540344D01*
X212494656Y-118416288D01*
X212369559Y-118339128D01*
X212345336Y-118324187D01*
X212345331Y-118324185D01*
X212336724Y-118321333D01*
X212178797Y-118269001D01*
X212178795Y-118269000D01*
X212076010Y-118258500D01*
X211275998Y-118258500D01*
X211275980Y-118258501D01*
X211173203Y-118269000D01*
X211173200Y-118269001D01*
X211006668Y-118324185D01*
X211006663Y-118324187D01*
X210857342Y-118416289D01*
X210733287Y-118540344D01*
X210693688Y-118604544D01*
X210641739Y-118651268D01*
X210572777Y-118662489D01*
X210508695Y-118634645D01*
X210500469Y-118627127D01*
X210392930Y-118519588D01*
X210392928Y-118519586D01*
X210252788Y-118417768D01*
X210098445Y-118339127D01*
X209933701Y-118285598D01*
X209933699Y-118285597D01*
X209933698Y-118285597D01*
X209802271Y-118264781D01*
X209762611Y-118258500D01*
X209589389Y-118258500D01*
X209549728Y-118264781D01*
X209418302Y-118285597D01*
X209253552Y-118339128D01*
X209099211Y-118417768D01*
X209019256Y-118475859D01*
X208959072Y-118519586D01*
X208959070Y-118519588D01*
X208959069Y-118519588D01*
X208836588Y-118642069D01*
X208836581Y-118642078D01*
X208776317Y-118725023D01*
X208720987Y-118767689D01*
X208651374Y-118773667D01*
X208589579Y-118741061D01*
X208575683Y-118725023D01*
X208515653Y-118642401D01*
X208515414Y-118642072D01*
X208392928Y-118519586D01*
X208252788Y-118417768D01*
X208098445Y-118339127D01*
X207933701Y-118285598D01*
X207933699Y-118285597D01*
X207933698Y-118285597D01*
X207802271Y-118264781D01*
X207762611Y-118258500D01*
X207589389Y-118258500D01*
X207549728Y-118264781D01*
X207418302Y-118285597D01*
X207253552Y-118339128D01*
X207099211Y-118417768D01*
X207019256Y-118475859D01*
X206959072Y-118519586D01*
X206959070Y-118519588D01*
X206959069Y-118519588D01*
X206836585Y-118642072D01*
X206776007Y-118725450D01*
X206720677Y-118768115D01*
X206651063Y-118774093D01*
X206589269Y-118741486D01*
X206575371Y-118725447D01*
X206515036Y-118642401D01*
X206392602Y-118519967D01*
X206252524Y-118418195D01*
X206098257Y-118339591D01*
X205933589Y-118286087D01*
X205933581Y-118286085D01*
X205926000Y-118284884D01*
X205926000Y-119353670D01*
X205906255Y-119333925D01*
X205820745Y-119284556D01*
X205725370Y-119259000D01*
X205626630Y-119259000D01*
X205531255Y-119284556D01*
X205445745Y-119333925D01*
X205426000Y-119353670D01*
X205426000Y-118284884D01*
X205425999Y-118284884D01*
X205418418Y-118286085D01*
X205418410Y-118286087D01*
X205253742Y-118339591D01*
X205099475Y-118418195D01*
X204959397Y-118519967D01*
X204836965Y-118642399D01*
X204836961Y-118642404D01*
X204776627Y-118725448D01*
X204721297Y-118768114D01*
X204651684Y-118774093D01*
X204589889Y-118741488D01*
X204575991Y-118725449D01*
X204575990Y-118725447D01*
X204515414Y-118642072D01*
X204392928Y-118519586D01*
X204252788Y-118417768D01*
X204098445Y-118339127D01*
X203933701Y-118285598D01*
X203933699Y-118285597D01*
X203933698Y-118285597D01*
X203802271Y-118264781D01*
X203762611Y-118258500D01*
X203589389Y-118258500D01*
X203549728Y-118264781D01*
X203418302Y-118285597D01*
X203253552Y-118339128D01*
X203099211Y-118417768D01*
X203019256Y-118475859D01*
X202959072Y-118519586D01*
X202959070Y-118519588D01*
X202959069Y-118519588D01*
X202836588Y-118642069D01*
X202836581Y-118642078D01*
X202776317Y-118725023D01*
X202720987Y-118767689D01*
X202651374Y-118773667D01*
X202589579Y-118741061D01*
X202575683Y-118725023D01*
X202515653Y-118642401D01*
X202515414Y-118642072D01*
X202392928Y-118519586D01*
X202252788Y-118417768D01*
X202098445Y-118339127D01*
X201933701Y-118285598D01*
X201933699Y-118285597D01*
X201933698Y-118285597D01*
X201802271Y-118264781D01*
X201762611Y-118258500D01*
X201589389Y-118258500D01*
X201557192Y-118263599D01*
X201418301Y-118285597D01*
X201418297Y-118285598D01*
X201308316Y-118321333D01*
X201238475Y-118323328D01*
X201182318Y-118291083D01*
X200987590Y-118096355D01*
X200987588Y-118096352D01*
X200868717Y-117977481D01*
X200868716Y-117977480D01*
X200781904Y-117927360D01*
X200781904Y-117927359D01*
X200781900Y-117927358D01*
X200731785Y-117898423D01*
X200579057Y-117857499D01*
X200420943Y-117857499D01*
X200413347Y-117857499D01*
X200413331Y-117857500D01*
X197381851Y-117857500D01*
X197223737Y-117857500D01*
X197071009Y-117898423D01*
X197071008Y-117898423D01*
X197071006Y-117898424D01*
X197071003Y-117898425D01*
X197020890Y-117927359D01*
X197020889Y-117927360D01*
X196977483Y-117952420D01*
X196934079Y-117977479D01*
X196934076Y-117977481D01*
X196822272Y-118089286D01*
X193882378Y-121029181D01*
X193821055Y-121062666D01*
X193794697Y-121065500D01*
X193308230Y-121065500D01*
X193241191Y-121045815D01*
X193195436Y-120993011D01*
X193185492Y-120923853D01*
X193214517Y-120860297D01*
X193220549Y-120853819D01*
X193278503Y-120795865D01*
X193346712Y-120727656D01*
X193438814Y-120578334D01*
X193493999Y-120411797D01*
X193504500Y-120309009D01*
X193504499Y-118958992D01*
X193493999Y-118856203D01*
X193438814Y-118689666D01*
X193346712Y-118540344D01*
X193222656Y-118416288D01*
X193097559Y-118339128D01*
X193073336Y-118324187D01*
X193073331Y-118324185D01*
X193064724Y-118321333D01*
X192906797Y-118269001D01*
X192906795Y-118269000D01*
X192804010Y-118258500D01*
X192003998Y-118258500D01*
X192003980Y-118258501D01*
X191901203Y-118269000D01*
X191901200Y-118269001D01*
X191734668Y-118324185D01*
X191734663Y-118324187D01*
X191585342Y-118416289D01*
X191461287Y-118540344D01*
X191421688Y-118604544D01*
X191369739Y-118651268D01*
X191300777Y-118662489D01*
X191236695Y-118634645D01*
X191228469Y-118627127D01*
X191120930Y-118519588D01*
X191120928Y-118519586D01*
X190980788Y-118417768D01*
X190826445Y-118339127D01*
X190661701Y-118285598D01*
X190661699Y-118285597D01*
X190661698Y-118285597D01*
X190530271Y-118264781D01*
X190490611Y-118258500D01*
X190317389Y-118258500D01*
X190277728Y-118264781D01*
X190146302Y-118285597D01*
X189981552Y-118339128D01*
X189827211Y-118417768D01*
X189747256Y-118475859D01*
X189687072Y-118519586D01*
X189687070Y-118519588D01*
X189687069Y-118519588D01*
X189564588Y-118642069D01*
X189564581Y-118642078D01*
X189504317Y-118725023D01*
X189448987Y-118767689D01*
X189379374Y-118773667D01*
X189317579Y-118741061D01*
X189303683Y-118725023D01*
X189243653Y-118642401D01*
X189243414Y-118642072D01*
X189120928Y-118519586D01*
X188980788Y-118417768D01*
X188826445Y-118339127D01*
X188661701Y-118285598D01*
X188661699Y-118285597D01*
X188661698Y-118285597D01*
X188530271Y-118264781D01*
X188490611Y-118258500D01*
X188317389Y-118258500D01*
X188277728Y-118264781D01*
X188146302Y-118285597D01*
X187981552Y-118339128D01*
X187827211Y-118417768D01*
X187747256Y-118475859D01*
X187687072Y-118519586D01*
X187687070Y-118519588D01*
X187687069Y-118519588D01*
X187564588Y-118642069D01*
X187564581Y-118642078D01*
X187504317Y-118725023D01*
X187448987Y-118767689D01*
X187379374Y-118773667D01*
X187317579Y-118741061D01*
X187303683Y-118725023D01*
X187243653Y-118642401D01*
X187243414Y-118642072D01*
X187120928Y-118519586D01*
X186980788Y-118417768D01*
X186826445Y-118339127D01*
X186661701Y-118285598D01*
X186661699Y-118285597D01*
X186661698Y-118285597D01*
X186530271Y-118264781D01*
X186490611Y-118258500D01*
X186317389Y-118258500D01*
X186277728Y-118264781D01*
X186146302Y-118285597D01*
X185981552Y-118339128D01*
X185827211Y-118417768D01*
X185747256Y-118475859D01*
X185687072Y-118519586D01*
X185687070Y-118519588D01*
X185687069Y-118519588D01*
X185564588Y-118642069D01*
X185564581Y-118642078D01*
X185504317Y-118725023D01*
X185448987Y-118767689D01*
X185379374Y-118773667D01*
X185317579Y-118741061D01*
X185303683Y-118725023D01*
X185243653Y-118642401D01*
X185243414Y-118642072D01*
X185120928Y-118519586D01*
X184980788Y-118417768D01*
X184826445Y-118339127D01*
X184661701Y-118285598D01*
X184661699Y-118285597D01*
X184661698Y-118285597D01*
X184530271Y-118264781D01*
X184490611Y-118258500D01*
X184317389Y-118258500D01*
X184277728Y-118264781D01*
X184146302Y-118285597D01*
X183981552Y-118339128D01*
X183827211Y-118417768D01*
X183747256Y-118475859D01*
X183687072Y-118519586D01*
X183687070Y-118519588D01*
X183687069Y-118519588D01*
X183564588Y-118642069D01*
X183564581Y-118642078D01*
X183504317Y-118725023D01*
X183448987Y-118767689D01*
X183379374Y-118773667D01*
X183317579Y-118741061D01*
X183303683Y-118725023D01*
X183243653Y-118642401D01*
X183243414Y-118642072D01*
X183120928Y-118519586D01*
X182980788Y-118417768D01*
X182826445Y-118339127D01*
X182661701Y-118285598D01*
X182661699Y-118285597D01*
X182661698Y-118285597D01*
X182530271Y-118264781D01*
X182490611Y-118258500D01*
X182317389Y-118258500D01*
X182277728Y-118264781D01*
X182146302Y-118285597D01*
X181981552Y-118339128D01*
X181827211Y-118417768D01*
X181747256Y-118475859D01*
X181687072Y-118519586D01*
X181687070Y-118519588D01*
X181687069Y-118519588D01*
X181564588Y-118642069D01*
X181564588Y-118642070D01*
X181564586Y-118642072D01*
X181564345Y-118642404D01*
X181462768Y-118782211D01*
X181384128Y-118936552D01*
X181330597Y-119101302D01*
X181305621Y-119259000D01*
X181303500Y-119272389D01*
X181303500Y-119995611D01*
X181330598Y-120166701D01*
X181384127Y-120331445D01*
X181462768Y-120485788D01*
X181564586Y-120625928D01*
X181687072Y-120748414D01*
X181752388Y-120795868D01*
X181795051Y-120851195D01*
X181803500Y-120896184D01*
X181803500Y-121312902D01*
X181783815Y-121379941D01*
X181767181Y-121400583D01*
X180684926Y-122482837D01*
X180623603Y-122516322D01*
X180570878Y-122515758D01*
X180570848Y-122515949D01*
X180569556Y-122515744D01*
X180568303Y-122515731D01*
X180566036Y-122515186D01*
X180383632Y-122486297D01*
X180369761Y-122484100D01*
X180171039Y-122484100D01*
X180105614Y-122494462D01*
X179974762Y-122515187D01*
X179785770Y-122576593D01*
X179785767Y-122576594D01*
X179608705Y-122666813D01*
X179447933Y-122783621D01*
X179307421Y-122924133D01*
X179190613Y-123084905D01*
X179100394Y-123261967D01*
X179100393Y-123261970D01*
X179038987Y-123450962D01*
X179007900Y-123647239D01*
X179007900Y-123845960D01*
X179038987Y-124042237D01*
X179100393Y-124231229D01*
X179100394Y-124231232D01*
X179185256Y-124397780D01*
X179190613Y-124408294D01*
X179307419Y-124569064D01*
X179447936Y-124709581D01*
X179608706Y-124826387D01*
X179695549Y-124870635D01*
X179785767Y-124916605D01*
X179785770Y-124916606D01*
X179872769Y-124944873D01*
X179974764Y-124978013D01*
X180171039Y-125009100D01*
X180171040Y-125009100D01*
X180369760Y-125009100D01*
X180369761Y-125009100D01*
X180566036Y-124978013D01*
X180755032Y-124916605D01*
X180932094Y-124826387D01*
X181092864Y-124709581D01*
X181233381Y-124569064D01*
X181350187Y-124408294D01*
X181429915Y-124251818D01*
X181477890Y-124201023D01*
X181545711Y-124184228D01*
X181611846Y-124206765D01*
X181650884Y-124251818D01*
X181730613Y-124408294D01*
X181847419Y-124569064D01*
X181987936Y-124709581D01*
X182148706Y-124826387D01*
X182235549Y-124870635D01*
X182325767Y-124916605D01*
X182325770Y-124916606D01*
X182412769Y-124944873D01*
X182514764Y-124978013D01*
X182711039Y-125009100D01*
X182711040Y-125009100D01*
X182909760Y-125009100D01*
X182909761Y-125009100D01*
X183106036Y-124978013D01*
X183295032Y-124916605D01*
X183472094Y-124826387D01*
X183632864Y-124709581D01*
X183773381Y-124569064D01*
X183890187Y-124408294D01*
X183969915Y-124251818D01*
X184017890Y-124201023D01*
X184085711Y-124184228D01*
X184151846Y-124206765D01*
X184190884Y-124251818D01*
X184270613Y-124408294D01*
X184387419Y-124569064D01*
X184527936Y-124709581D01*
X184688706Y-124826387D01*
X184775549Y-124870635D01*
X184865767Y-124916605D01*
X184865770Y-124916606D01*
X184952769Y-124944873D01*
X185054764Y-124978013D01*
X185251039Y-125009100D01*
X185251040Y-125009100D01*
X185449760Y-125009100D01*
X185449761Y-125009100D01*
X185646036Y-124978013D01*
X185835032Y-124916605D01*
X186012094Y-124826387D01*
X186172864Y-124709581D01*
X186313381Y-124569064D01*
X186430187Y-124408294D01*
X186509915Y-124251818D01*
X186557890Y-124201023D01*
X186625711Y-124184228D01*
X186691846Y-124206765D01*
X186730884Y-124251818D01*
X186810613Y-124408294D01*
X186927419Y-124569064D01*
X187067936Y-124709581D01*
X187228706Y-124826387D01*
X187315549Y-124870635D01*
X187405767Y-124916605D01*
X187405770Y-124916606D01*
X187492769Y-124944873D01*
X187594764Y-124978013D01*
X187791039Y-125009100D01*
X187791040Y-125009100D01*
X187989760Y-125009100D01*
X187989761Y-125009100D01*
X188186036Y-124978013D01*
X188375032Y-124916605D01*
X188552094Y-124826387D01*
X188712864Y-124709581D01*
X188853381Y-124569064D01*
X188970187Y-124408294D01*
X189049915Y-124251818D01*
X189097890Y-124201023D01*
X189165711Y-124184228D01*
X189231846Y-124206765D01*
X189270884Y-124251818D01*
X189350613Y-124408294D01*
X189467419Y-124569064D01*
X189607936Y-124709581D01*
X189768706Y-124826387D01*
X189855549Y-124870635D01*
X189945767Y-124916605D01*
X189945770Y-124916606D01*
X190032769Y-124944873D01*
X190134764Y-124978013D01*
X190331039Y-125009100D01*
X190331040Y-125009100D01*
X190529760Y-125009100D01*
X190529761Y-125009100D01*
X190726036Y-124978013D01*
X190915032Y-124916605D01*
X191092094Y-124826387D01*
X191252864Y-124709581D01*
X191393381Y-124569064D01*
X191510187Y-124408294D01*
X191589915Y-124251818D01*
X191637890Y-124201023D01*
X191705711Y-124184228D01*
X191771846Y-124206765D01*
X191810884Y-124251818D01*
X191890613Y-124408294D01*
X192007419Y-124569064D01*
X192147936Y-124709581D01*
X192308706Y-124826387D01*
X192395549Y-124870635D01*
X192485767Y-124916605D01*
X192485770Y-124916606D01*
X192572769Y-124944873D01*
X192674764Y-124978013D01*
X192871039Y-125009100D01*
X192871040Y-125009100D01*
X193069760Y-125009100D01*
X193069761Y-125009100D01*
X193266036Y-124978013D01*
X193455032Y-124916605D01*
X193632094Y-124826387D01*
X193792864Y-124709581D01*
X193933381Y-124569064D01*
X194050187Y-124408294D01*
X194129915Y-124251818D01*
X194177890Y-124201023D01*
X194245711Y-124184228D01*
X194311846Y-124206765D01*
X194350884Y-124251818D01*
X194430613Y-124408294D01*
X194547419Y-124569064D01*
X194687936Y-124709581D01*
X194848706Y-124826387D01*
X194935549Y-124870635D01*
X195025767Y-124916605D01*
X195025770Y-124916606D01*
X195112769Y-124944873D01*
X195214764Y-124978013D01*
X195411039Y-125009100D01*
X195411040Y-125009100D01*
X195609760Y-125009100D01*
X195609761Y-125009100D01*
X195806036Y-124978013D01*
X195995032Y-124916605D01*
X196172094Y-124826387D01*
X196332864Y-124709581D01*
X196473381Y-124569064D01*
X196590187Y-124408294D01*
X196595545Y-124397777D01*
X196617918Y-124374085D01*
X196639321Y-124349543D01*
X196642359Y-124348204D01*
X196643514Y-124346982D01*
X196671471Y-124334982D01*
X196672626Y-124334646D01*
X196778875Y-124306177D01*
X196787107Y-124301423D01*
X196801537Y-124297236D01*
X196822050Y-124297300D01*
X196841983Y-124292463D01*
X196856279Y-124297409D01*
X196871407Y-124297457D01*
X196888625Y-124308599D01*
X196908013Y-124315307D01*
X196919408Y-124328519D01*
X196930065Y-124335416D01*
X196935272Y-124346914D01*
X196946582Y-124360028D01*
X196971041Y-124408032D01*
X196998130Y-124445315D01*
X197669400Y-123774045D01*
X197669400Y-123796760D01*
X197695364Y-123893661D01*
X197745524Y-123980540D01*
X197816460Y-124051476D01*
X197903339Y-124101636D01*
X198000240Y-124127600D01*
X198022953Y-124127600D01*
X197351683Y-124798868D01*
X197351683Y-124798869D01*
X197388967Y-124825958D01*
X197545731Y-124905834D01*
X197596527Y-124953809D01*
X197613322Y-125021630D01*
X197590784Y-125087765D01*
X197545731Y-125126804D01*
X197388705Y-125206813D01*
X197227933Y-125323621D01*
X197087421Y-125464133D01*
X196970613Y-125624905D01*
X196880394Y-125801967D01*
X196880393Y-125801970D01*
X196818987Y-125990962D01*
X196787382Y-126190507D01*
X196757453Y-126253642D01*
X196698141Y-126290573D01*
X196684307Y-126293582D01*
X196484762Y-126325187D01*
X196295770Y-126386593D01*
X196295767Y-126386594D01*
X196118705Y-126476813D01*
X195957933Y-126593621D01*
X195817421Y-126734133D01*
X195700613Y-126894905D01*
X195610394Y-127071967D01*
X195610393Y-127071970D01*
X195548987Y-127260962D01*
X195519662Y-127446115D01*
X195517900Y-127457239D01*
X195517900Y-127655961D01*
X195519662Y-127667085D01*
X195548987Y-127852237D01*
X195610393Y-128041229D01*
X195610396Y-128041236D01*
X195612724Y-128045804D01*
X195625621Y-128114473D01*
X195599345Y-128179214D01*
X195542239Y-128219472D01*
X195502240Y-128226100D01*
X181069697Y-128226100D01*
X181002658Y-128206415D01*
X180982016Y-128189781D01*
X175721819Y-122929584D01*
X175688334Y-122868261D01*
X175685500Y-122841903D01*
X175685500Y-120896184D01*
X175705185Y-120829145D01*
X175736609Y-120795870D01*
X175801928Y-120748414D01*
X175909472Y-120640869D01*
X175970791Y-120607387D01*
X176040483Y-120612371D01*
X176096417Y-120654242D01*
X176102688Y-120663456D01*
X176142285Y-120727652D01*
X176142288Y-120727656D01*
X176266344Y-120851712D01*
X176415666Y-120943814D01*
X176582203Y-120998999D01*
X176684991Y-121009500D01*
X177485008Y-121009499D01*
X177485016Y-121009498D01*
X177485019Y-121009498D01*
X177541302Y-121003748D01*
X177587797Y-120998999D01*
X177754334Y-120943814D01*
X177903656Y-120851712D01*
X178027712Y-120727656D01*
X178119814Y-120578334D01*
X178174999Y-120411797D01*
X178185500Y-120309009D01*
X178185499Y-118958992D01*
X178174999Y-118856203D01*
X178119814Y-118689666D01*
X178027712Y-118540344D01*
X177903656Y-118416288D01*
X177778559Y-118339128D01*
X177754336Y-118324187D01*
X177754331Y-118324185D01*
X177745724Y-118321333D01*
X177587797Y-118269001D01*
X177587795Y-118269000D01*
X177485010Y-118258500D01*
X176684998Y-118258500D01*
X176684980Y-118258501D01*
X176582203Y-118269000D01*
X176582200Y-118269001D01*
X176415668Y-118324185D01*
X176415663Y-118324187D01*
X176266342Y-118416289D01*
X176142287Y-118540344D01*
X176102688Y-118604544D01*
X176050739Y-118651268D01*
X175981777Y-118662489D01*
X175917695Y-118634645D01*
X175909469Y-118627127D01*
X175801930Y-118519588D01*
X175801928Y-118519586D01*
X175661788Y-118417768D01*
X175507445Y-118339127D01*
X175342701Y-118285598D01*
X175342699Y-118285597D01*
X175342698Y-118285597D01*
X175211271Y-118264781D01*
X175171611Y-118258500D01*
X174998389Y-118258500D01*
X174958728Y-118264781D01*
X174827302Y-118285597D01*
X174662552Y-118339128D01*
X174508211Y-118417768D01*
X174428256Y-118475859D01*
X174368072Y-118519586D01*
X174368070Y-118519588D01*
X174368069Y-118519588D01*
X174245588Y-118642069D01*
X174245581Y-118642078D01*
X174185317Y-118725023D01*
X174129987Y-118767689D01*
X174060374Y-118773667D01*
X173998579Y-118741061D01*
X173984683Y-118725023D01*
X173924653Y-118642401D01*
X173924414Y-118642072D01*
X173801928Y-118519586D01*
X173661788Y-118417768D01*
X173507445Y-118339127D01*
X173342701Y-118285598D01*
X173342699Y-118285597D01*
X173342698Y-118285597D01*
X173211271Y-118264781D01*
X173171611Y-118258500D01*
X172998389Y-118258500D01*
X172958728Y-118264781D01*
X172827302Y-118285597D01*
X172662552Y-118339128D01*
X172508211Y-118417768D01*
X172428256Y-118475859D01*
X172368072Y-118519586D01*
X172368070Y-118519588D01*
X172368069Y-118519588D01*
X172245588Y-118642069D01*
X172245588Y-118642070D01*
X172245586Y-118642072D01*
X172245345Y-118642404D01*
X172143768Y-118782211D01*
X172065128Y-118936552D01*
X172011597Y-119101302D01*
X171986621Y-119259000D01*
X171984500Y-119272389D01*
X171984500Y-119995611D01*
X172011598Y-120166701D01*
X172065127Y-120331445D01*
X172143768Y-120485788D01*
X172245586Y-120625928D01*
X172368072Y-120748414D01*
X172508212Y-120850232D01*
X172662555Y-120928873D01*
X172827299Y-120982402D01*
X172998389Y-121009500D01*
X172998390Y-121009500D01*
X173171610Y-121009500D01*
X173171611Y-121009500D01*
X173342701Y-120982402D01*
X173507445Y-120928873D01*
X173661788Y-120850232D01*
X173801928Y-120748414D01*
X173924414Y-120625928D01*
X173984682Y-120542975D01*
X174040012Y-120500311D01*
X174109626Y-120494332D01*
X174171421Y-120526938D01*
X174185315Y-120542973D01*
X174245586Y-120625928D01*
X174368072Y-120748414D01*
X174433388Y-120795868D01*
X174476051Y-120851195D01*
X174484500Y-120896184D01*
X174484500Y-123055330D01*
X174484499Y-123055348D01*
X174484499Y-123221056D01*
X174525421Y-123373781D01*
X174525422Y-123373783D01*
X174525423Y-123373785D01*
X174527790Y-123377884D01*
X174527793Y-123377890D01*
X174527795Y-123377893D01*
X174604477Y-123510712D01*
X174604481Y-123510717D01*
X174723349Y-123629585D01*
X174723355Y-123629590D01*
X180284739Y-129190974D01*
X180284749Y-129190985D01*
X180289079Y-129195315D01*
X180289080Y-129195316D01*
X180400884Y-129307120D01*
X180400886Y-129307121D01*
X180400890Y-129307124D01*
X180417844Y-129316912D01*
X180537816Y-129386177D01*
X180649619Y-129416134D01*
X180690542Y-129427100D01*
X180690543Y-129427100D01*
X196863670Y-129427100D01*
X196930709Y-129446785D01*
X196967591Y-129484466D01*
X196967749Y-129484352D01*
X196968527Y-129485423D01*
X196969400Y-129486315D01*
X196970610Y-129488290D01*
X196970613Y-129488294D01*
X197087419Y-129649064D01*
X197227936Y-129789581D01*
X197388706Y-129906387D01*
X197459542Y-129942480D01*
X197565767Y-129996605D01*
X197565770Y-129996606D01*
X197660266Y-130027309D01*
X197754764Y-130058013D01*
X197951039Y-130089100D01*
X197951040Y-130089100D01*
X198149760Y-130089100D01*
X198149761Y-130089100D01*
X198346036Y-130058013D01*
X198346046Y-130058009D01*
X198348291Y-130057471D01*
X198349178Y-130057515D01*
X198350848Y-130057251D01*
X198350903Y-130057601D01*
X198418074Y-130060957D01*
X198464926Y-130090361D01*
X199110084Y-130735520D01*
X199110086Y-130735521D01*
X199110090Y-130735524D01*
X199247009Y-130814573D01*
X199247016Y-130814577D01*
X199399743Y-130855501D01*
X199399745Y-130855501D01*
X199565454Y-130855501D01*
X199565470Y-130855500D01*
X200483492Y-130855500D01*
X200484854Y-130855900D01*
X200486227Y-130855530D01*
X200518298Y-130865720D01*
X200550531Y-130875185D01*
X200551898Y-130876396D01*
X200552816Y-130876688D01*
X200556170Y-130880181D01*
X200578973Y-130900384D01*
X200584491Y-130907043D01*
X200633288Y-130986156D01*
X200731052Y-131083920D01*
X200734751Y-131088384D01*
X200746360Y-131115365D01*
X200760436Y-131141142D01*
X200760010Y-131147088D01*
X200762367Y-131152564D01*
X200757547Y-131181535D01*
X200755452Y-131210834D01*
X200751702Y-131216667D01*
X200750901Y-131221487D01*
X200743000Y-131230208D01*
X200726951Y-131255181D01*
X200633289Y-131348842D01*
X200541187Y-131498163D01*
X200541186Y-131498166D01*
X200486001Y-131664703D01*
X200486001Y-131664704D01*
X200486000Y-131664704D01*
X200475500Y-131767483D01*
X200475500Y-132392501D01*
X200475501Y-132392519D01*
X200486000Y-132495296D01*
X200486001Y-132495299D01*
X200541185Y-132661831D01*
X200541186Y-132661834D01*
X200541190Y-132661840D01*
X200578454Y-132722257D01*
X200596894Y-132789650D01*
X200575971Y-132856313D01*
X200560596Y-132875034D01*
X198282291Y-135153339D01*
X198220968Y-135186824D01*
X198175213Y-135188131D01*
X198149761Y-135184100D01*
X197951039Y-135184100D01*
X197885614Y-135194462D01*
X197754762Y-135215187D01*
X197565770Y-135276593D01*
X197565767Y-135276594D01*
X197388705Y-135366813D01*
X197227933Y-135483621D01*
X197087421Y-135624133D01*
X196970613Y-135784905D01*
X196890604Y-135941931D01*
X196842629Y-135992727D01*
X196774808Y-136009522D01*
X196708673Y-135986984D01*
X196669634Y-135941931D01*
X196589758Y-135785167D01*
X196562668Y-135747883D01*
X195891400Y-136419151D01*
X195891400Y-136396440D01*
X195865436Y-136299539D01*
X195815276Y-136212660D01*
X195744340Y-136141724D01*
X195657461Y-136091564D01*
X195560560Y-136065600D01*
X195537847Y-136065600D01*
X196209116Y-135394331D01*
X196209115Y-135394330D01*
X196171832Y-135367241D01*
X195994837Y-135277057D01*
X195805922Y-135215675D01*
X195609721Y-135184600D01*
X195411079Y-135184600D01*
X195214879Y-135215675D01*
X195214876Y-135215675D01*
X195025962Y-135277057D01*
X194848964Y-135367243D01*
X194811683Y-135394329D01*
X194811682Y-135394330D01*
X195482954Y-136065600D01*
X195460240Y-136065600D01*
X195363339Y-136091564D01*
X195276460Y-136141724D01*
X195205524Y-136212660D01*
X195155364Y-136299539D01*
X195129400Y-136396440D01*
X195129400Y-136419152D01*
X194458130Y-135747882D01*
X194458129Y-135747883D01*
X194431041Y-135785166D01*
X194351164Y-135941932D01*
X194303190Y-135992727D01*
X194235369Y-136009522D01*
X194169234Y-135986984D01*
X194130196Y-135941932D01*
X194050187Y-135784906D01*
X193933381Y-135624136D01*
X193792864Y-135483619D01*
X193632094Y-135366813D01*
X193455032Y-135276594D01*
X193455029Y-135276593D01*
X193266037Y-135215187D01*
X193167898Y-135199643D01*
X193069761Y-135184100D01*
X192871039Y-135184100D01*
X192871036Y-135184100D01*
X192845581Y-135188131D01*
X192776287Y-135179174D01*
X192738505Y-135153338D01*
X189649321Y-132064152D01*
X189649320Y-132064151D01*
X189562412Y-132006082D01*
X189526395Y-131982016D01*
X189526393Y-131982015D01*
X189526390Y-131982013D01*
X189389817Y-131925443D01*
X189389807Y-131925440D01*
X189244820Y-131896600D01*
X189244818Y-131896600D01*
X181173329Y-131896600D01*
X181106290Y-131876915D01*
X181085648Y-131860281D01*
X168934818Y-119709450D01*
X168901333Y-119648127D01*
X168898499Y-119621769D01*
X168898499Y-118958998D01*
X168898498Y-118958981D01*
X168887999Y-118856203D01*
X168887998Y-118856200D01*
X168832814Y-118689666D01*
X168740712Y-118540344D01*
X168616656Y-118416288D01*
X168491559Y-118339128D01*
X168467336Y-118324187D01*
X168467331Y-118324185D01*
X168458724Y-118321333D01*
X168300797Y-118269001D01*
X168300795Y-118269000D01*
X168198010Y-118258500D01*
X167397998Y-118258500D01*
X167397980Y-118258501D01*
X167295203Y-118269000D01*
X167295200Y-118269001D01*
X167128668Y-118324185D01*
X167128663Y-118324187D01*
X166979342Y-118416289D01*
X166855287Y-118540344D01*
X166815688Y-118604544D01*
X166763739Y-118651268D01*
X166694777Y-118662489D01*
X166630695Y-118634645D01*
X166622469Y-118627127D01*
X166514930Y-118519588D01*
X166514928Y-118519586D01*
X166374788Y-118417768D01*
X166220445Y-118339127D01*
X166055701Y-118285598D01*
X166055699Y-118285597D01*
X166055698Y-118285597D01*
X165924271Y-118264781D01*
X165884611Y-118258500D01*
X165711389Y-118258500D01*
X165671728Y-118264781D01*
X165540302Y-118285597D01*
X165375552Y-118339128D01*
X165221211Y-118417768D01*
X165141256Y-118475859D01*
X165081072Y-118519586D01*
X165081070Y-118519588D01*
X165081069Y-118519588D01*
X164958588Y-118642069D01*
X164958581Y-118642078D01*
X164898317Y-118725023D01*
X164842987Y-118767689D01*
X164773374Y-118773667D01*
X164711579Y-118741061D01*
X164697683Y-118725023D01*
X164637653Y-118642401D01*
X164637414Y-118642072D01*
X164514928Y-118519586D01*
X164374788Y-118417768D01*
X164220445Y-118339127D01*
X164055701Y-118285598D01*
X164055699Y-118285597D01*
X164055698Y-118285597D01*
X163924271Y-118264781D01*
X163884611Y-118258500D01*
X163711389Y-118258500D01*
X163671728Y-118264781D01*
X163540302Y-118285597D01*
X163375552Y-118339128D01*
X163221211Y-118417768D01*
X163141256Y-118475859D01*
X163081072Y-118519586D01*
X163081070Y-118519588D01*
X163081069Y-118519588D01*
X162958588Y-118642069D01*
X162958581Y-118642078D01*
X162898317Y-118725023D01*
X162842987Y-118767689D01*
X162773374Y-118773667D01*
X162711579Y-118741061D01*
X162697683Y-118725023D01*
X162637653Y-118642401D01*
X162637414Y-118642072D01*
X162514928Y-118519586D01*
X162374788Y-118417768D01*
X162220445Y-118339127D01*
X162055701Y-118285598D01*
X162055699Y-118285597D01*
X162055698Y-118285597D01*
X161924271Y-118264781D01*
X161884611Y-118258500D01*
X161711389Y-118258500D01*
X161671728Y-118264781D01*
X161540302Y-118285597D01*
X161375552Y-118339128D01*
X161221211Y-118417768D01*
X161141256Y-118475859D01*
X161081072Y-118519586D01*
X161081070Y-118519588D01*
X161081069Y-118519588D01*
X160958588Y-118642069D01*
X160958588Y-118642070D01*
X160958586Y-118642072D01*
X160958345Y-118642404D01*
X160856768Y-118782211D01*
X160778128Y-118936552D01*
X160724597Y-119101302D01*
X160699621Y-119259000D01*
X160697500Y-119272389D01*
X153154500Y-119272389D01*
X153154500Y-93475246D01*
X153154670Y-93468757D01*
X153157953Y-93406108D01*
X153160856Y-93350711D01*
X154613500Y-93350711D01*
X154613500Y-93593288D01*
X154645161Y-93833785D01*
X154707947Y-94068104D01*
X154800773Y-94292205D01*
X154800776Y-94292212D01*
X154922064Y-94502289D01*
X154922066Y-94502292D01*
X154922067Y-94502293D01*
X155069733Y-94694736D01*
X155069739Y-94694743D01*
X155241256Y-94866260D01*
X155241262Y-94866265D01*
X155433711Y-95013936D01*
X155643788Y-95135224D01*
X155867900Y-95228054D01*
X156102211Y-95290838D01*
X156282586Y-95314584D01*
X156342711Y-95322500D01*
X156342712Y-95322500D01*
X156585289Y-95322500D01*
X156633388Y-95316167D01*
X156825789Y-95290838D01*
X157060100Y-95228054D01*
X157284212Y-95135224D01*
X157494289Y-95013936D01*
X157686738Y-94866265D01*
X157858265Y-94694738D01*
X158005936Y-94502289D01*
X158127224Y-94292212D01*
X158220054Y-94068100D01*
X158282838Y-93833789D01*
X158314500Y-93593288D01*
X158314500Y-93350712D01*
X158282838Y-93110211D01*
X158220054Y-92875900D01*
X158127224Y-92651788D01*
X158005936Y-92441711D01*
X157858265Y-92249262D01*
X157858260Y-92249256D01*
X157686743Y-92077739D01*
X157686736Y-92077733D01*
X157494293Y-91930067D01*
X157494292Y-91930066D01*
X157494289Y-91930064D01*
X157308909Y-91823035D01*
X157284214Y-91808777D01*
X157284205Y-91808773D01*
X157060104Y-91715947D01*
X156825785Y-91653161D01*
X156585289Y-91621500D01*
X156585288Y-91621500D01*
X156342712Y-91621500D01*
X156342711Y-91621500D01*
X156102214Y-91653161D01*
X155867895Y-91715947D01*
X155643794Y-91808773D01*
X155643785Y-91808777D01*
X155433706Y-91930067D01*
X155241263Y-92077733D01*
X155241256Y-92077739D01*
X155069739Y-92249256D01*
X155069733Y-92249263D01*
X154922067Y-92441706D01*
X154800777Y-92651785D01*
X154800773Y-92651794D01*
X154707947Y-92875895D01*
X154645161Y-93110214D01*
X154613500Y-93350711D01*
X153160856Y-93350711D01*
X153172290Y-93132547D01*
X153173647Y-93119641D01*
X153175141Y-93110211D01*
X153225806Y-92790318D01*
X153228496Y-92777661D01*
X153314799Y-92455571D01*
X153318801Y-92443256D01*
X153438298Y-92131954D01*
X153443561Y-92120133D01*
X153594951Y-91823014D01*
X153601417Y-91811816D01*
X153783029Y-91532158D01*
X153790631Y-91521695D01*
X154000483Y-91262548D01*
X154009150Y-91252923D01*
X154244923Y-91017150D01*
X154254548Y-91008483D01*
X154513695Y-90798631D01*
X154524158Y-90791029D01*
X154803816Y-90609417D01*
X154815014Y-90602951D01*
X155112133Y-90451561D01*
X155123954Y-90446298D01*
X155435256Y-90326801D01*
X155447571Y-90322799D01*
X155769661Y-90236496D01*
X155782318Y-90233806D01*
X156111643Y-90181646D01*
X156124547Y-90180290D01*
X156457512Y-90162840D01*
X156470488Y-90162840D01*
X156803450Y-90180290D01*
G37*
%TD.AperFunction*%
%TD*%
M02*
