M48
; DRILL file {KiCad 9.0.7} date 2026-02-21T16:48:58+0000
; FORMAT={-:-/ absolute / metric / decimal}
; #@! TF.CreationDate,2026-02-21T16:48:58+00:00
; #@! TF.GenerationSoftware,Kicad,Pcbnew,9.0.7
; #@! TF.FileFunction,Plated,1,2,PTH
FMAT,2
METRIC
; #@! TA.AperFunction,Plated,PTH,ComponentDrill
T1C0.750
; #@! TA.AperFunction,Plated,PTH,ComponentDrill
T2C0.762
%
G90
G05
T1
X161.798Y-119.634
X163.798Y-119.634
X165.798Y-119.634
X167.798Y-119.634
X173.085Y-119.634
X175.085Y-119.634
X177.085Y-119.634
X182.404Y-119.634
X184.404Y-119.634
X186.404Y-119.634
X188.404Y-119.634
X190.404Y-119.634
X192.404Y-119.634
X197.676Y-119.634
X199.676Y-119.634
X201.676Y-119.634
X203.676Y-119.634
X205.676Y-119.634
X207.676Y-119.634
X209.676Y-119.634
X211.676Y-119.634
T2
X180.27Y-123.747
X180.27Y-136.447
X182.81Y-123.747
X182.81Y-136.447
X185.35Y-123.747
X185.35Y-136.447
X187.89Y-123.747
X187.89Y-136.447
X190.43Y-123.747
X190.43Y-136.447
X192.97Y-123.747
X192.97Y-136.447
X195.51Y-123.747
X195.51Y-136.447
X196.78Y-127.557
X198.05Y-123.747
X198.05Y-126.287
X198.05Y-128.827
X198.05Y-136.447
M30
